<svg width="84" height="84" viewBox="0 0 84 84" fill="none" xmlns="http://www.w3.org/2000/svg">
<g filter="url(#filter0_d)">
<rect x="25" y="25" width="34" height="34" rx="8" fill="#D4801E"/>
</g>
<path d="M38.5076 47.6142V49.094C38.5076 49.2574 38.6824 49.39 38.8977 49.39H40.458C40.5615 49.39 40.6607 49.3588 40.7339 49.3033C40.807 49.2478 40.8481 49.1725 40.8481 49.094V47.6142H41.6283V49.094C41.6283 49.2574 41.803 49.39 42.0184 49.39H43.5787C43.6821 49.39 43.7814 49.3588 43.8545 49.3033C43.9277 49.2478 43.9688 49.1725 43.9688 49.094V47.6142H44.0998C47.208 47.6142 49.4299 46.3913 49.4299 44.2758C49.4299 42.4976 47.8587 41.5257 46.019 41.3872V41.283C47.5326 40.9965 48.6451 40.13 48.6451 38.6904C48.6451 36.8767 46.8507 35.7758 44.1123 35.7758H43.9688V34.296C43.9688 34.2175 43.9277 34.1422 43.8545 34.0867C43.7814 34.0312 43.6821 34 43.5787 34H42.0184C41.9149 34 41.8157 34.0312 41.7425 34.0867C41.6694 34.1422 41.6283 34.2175 41.6283 34.296V35.7758H40.7342V34.296C40.7342 34.2175 40.6931 34.1422 40.62 34.0867C40.5468 34.0312 40.4476 34 40.3441 34H38.8977C38.7942 34 38.695 34.0312 38.6219 34.0867C38.5487 34.1422 38.5076 34.2175 38.5076 34.296V35.7758L35.3901 35.7888C35.2866 35.7888 35.1874 35.82 35.1143 35.8755C35.0411 35.931 35 36.0063 35 36.0848V37.2556C35 37.4178 35.1716 37.5515 35.387 37.5515L36.565 37.5456C36.874 37.5472 37.1697 37.6414 37.3875 37.8078C37.6052 37.9741 37.7275 38.199 37.7275 38.4335V44.9506C37.7275 45.1861 37.6042 45.4119 37.3847 45.5784C37.1652 45.7449 36.8676 45.8385 36.5572 45.8385L35.3901 45.8515C35.2866 45.8515 35.1874 45.8827 35.1143 45.9382C35.0411 45.9937 35 46.069 35 46.1474V47.3313C35 47.4947 35.1748 47.6273 35.3901 47.6273L38.5076 47.6142ZM40.7342 37.5361H43.4164C44.8301 37.5361 45.6602 38.1257 45.6602 39.0894C45.6602 40.1205 44.763 40.7018 42.7314 40.7018H40.7342V37.5361ZM40.7342 42.3319H43.6052C45.3793 42.3319 46.3451 43.0185 46.3451 44.1361C46.3451 45.2643 45.3684 45.8527 42.978 45.8527H40.7342V42.3331V42.3319Z" fill="white"/>
<defs>
<filter id="filter0_d" x="0" y="0" width="84" height="84" filterUnits="userSpaceOnUse" color-interpolation-filters="sRGB">
<feFlood flood-opacity="0" result="BackgroundImageFix"/>
<feColorMatrix in="SourceAlpha" type="matrix" values="0 0 0 0 0 0 0 0 0 0 0 0 0 0 0 0 0 0 127 0" result="hardAlpha"/>
<feMorphology radius="5" operator="dilate" in="SourceAlpha" result="effect1_dropShadow"/>
<feOffset/>
<feGaussianBlur stdDeviation="10"/>
<feComposite in2="hardAlpha" operator="out"/>
<feColorMatrix type="matrix" values="0 0 0 0 0.94902 0 0 0 0 0.717647 0 0 0 0 0.0196078 0 0 0 0.1 0"/>
<feBlend mode="normal" in2="BackgroundImageFix" result="effect1_dropShadow"/>
<feBlend mode="normal" in="SourceGraphic" in2="effect1_dropShadow" result="shape"/>
</filter>
</defs>
</svg>
