<svg width="20" height="20" viewBox="0 0 20 20" fill="none" xmlns="http://www.w3.org/2000/svg">
<path d="M8.90234 10.5492C8.90234 11.3523 8.32695 12.0058 7.60352 12.0058C6.89141 12.0058 6.30469 11.3523 6.30469 10.5492C6.30469 9.74643 6.88008 9.09253 7.60352 9.09253C8.33242 9.09253 8.91367 9.75229 8.90234 10.5492Z" fill="white"/>
<path d="M13.7043 10.5492C13.7043 11.3523 13.1348 12.0058 12.4055 12.0058C11.6934 12.0058 11.1067 11.3523 11.1067 10.5492C11.1067 9.74643 11.6821 9.09253 12.4055 9.09253C13.1348 9.09253 13.7157 9.75229 13.7043 10.5492Z" fill="white"/>
<path d="M10 0C4.47734 0 0 4.47734 0 10C0 15.5227 4.47734 20 10 20C15.5227 20 20 15.5227 20 10C20 4.47734 15.5227 0 10 0ZM17.1449 13.6816C15.909 14.5895 14.7113 15.1406 13.5305 15.5059C13.5117 15.5117 13.4914 15.5047 13.4797 15.4887C13.207 15.109 12.9594 14.7086 12.7422 14.2883C12.7297 14.2637 12.741 14.234 12.7668 14.2242C13.1602 14.0754 13.5344 13.8977 13.8945 13.6875C13.923 13.6707 13.9246 13.6301 13.8984 13.6105C13.8223 13.5539 13.7465 13.4941 13.6742 13.4344C13.6605 13.4234 13.6422 13.4211 13.627 13.4285C11.2895 14.5086 8.72891 14.5086 6.36367 13.4285C6.34844 13.4219 6.33008 13.4242 6.31719 13.4352C6.24492 13.4945 6.16914 13.5539 6.09336 13.6105C6.06719 13.6301 6.06914 13.6707 6.09766 13.6875C6.45781 13.8938 6.83203 14.0754 7.225 14.2246C7.25078 14.2344 7.26289 14.2637 7.25 14.2883C7.03789 14.7094 6.78984 15.1094 6.51211 15.4891C6.5 15.5047 6.48008 15.5117 6.46133 15.5059C5.28594 15.1406 4.08867 14.5895 2.85234 13.6816C2.84219 13.6734 2.83477 13.6609 2.83359 13.6477C2.58203 10.9512 3.09531 8.22109 4.96875 5.42188C4.97344 5.41445 4.98008 5.40859 4.98828 5.40547C5.90977 4.98203 6.89766 4.6707 7.92969 4.49297C7.94844 4.49023 7.96719 4.49883 7.97695 4.51523C8.10469 4.74141 8.25039 5.03086 8.34922 5.26758C9.43711 5.10156 10.5422 5.10156 11.6531 5.26758C11.7516 5.03594 11.8922 4.74141 12.0191 4.51523C12.0289 4.49805 12.0477 4.48945 12.0664 4.49297C13.0992 4.67109 14.0871 4.98281 15.0082 5.40547C15.0164 5.40859 15.023 5.41445 15.027 5.42266C16.659 7.82305 17.4652 10.5309 17.1637 13.6484C17.1625 13.6617 17.1559 13.6734 17.1449 13.6816Z" fill="white"/>
</svg>
