<svg width="20" height="20" viewBox="0 0 20 20" fill="none" xmlns="http://www.w3.org/2000/svg">
<path d="M20 10C20 14.9914 16.343 19.1285 11.5625 19.8785V12.8906H13.8926L14.3359 10H11.5625V8.12422C11.5625 7.3332 11.95 6.5625 13.1922 6.5625H14.4531V4.10156C14.4531 4.10156 13.3086 3.90625 12.2145 3.90625C9.93047 3.90625 8.4375 5.29063 8.4375 7.79688V10H5.89844V12.8906H8.4375V19.8785C3.65703 19.1285 0 14.9914 0 10C0 4.47734 4.47734 0 10 0C15.5227 0 20 4.47734 20 10Z" fill="#1877F2"/>
<path d="M13.8926 12.8906L14.3359 10H11.5625V8.12418C11.5625 7.33336 11.9499 6.5625 13.1921 6.5625H14.4531V4.10156C14.4531 4.10156 13.3088 3.90625 12.2146 3.90625C9.93043 3.90625 8.4375 5.29063 8.4375 7.79688V10H5.89844V12.8906H8.4375V19.8785C8.94664 19.9584 9.46844 20 10 20C10.5316 20 11.0534 19.9584 11.5625 19.8785V12.8906H13.8926Z" fill="white"/>
</svg>
