<svg width="20" height="20" viewBox="0 0 20 20" fill="none" xmlns="http://www.w3.org/2000/svg">
<g clip-path="url(#clip0)">
<path d="M0.504673 5.56218C0.277473 5.56218 0.0798734 5.40138 0.0186734 5.16138C-0.0453266 4.91058 0.0590734 4.65178 0.272273 4.53178L8.09027 0.133777C8.24467 0.0469766 8.41867 0.000976562 8.59267 0.000976562C9.19267 0.000976562 9.68107 0.528576 9.68107 1.17738V3.87138C9.68107 4.49338 9.23107 5.00938 8.65667 5.04578L0.535473 5.56138C0.525073 5.56178 0.515073 5.56218 0.504673 5.56218ZM8.59267 0.639776C8.51307 0.639776 8.43347 0.660576 8.36307 0.700576L0.900673 4.89858L8.62187 4.40818C8.88467 4.39138 9.09027 4.15578 9.09027 3.87138V1.17738C9.09027 0.880976 8.86707 0.639776 8.59267 0.639776Z" fill="#FAFAFA" fill-opacity="0.5"/>
<path d="M19.4948 5.56218C19.4848 5.56218 19.4744 5.56178 19.464 5.56138L11.3428 5.04578C10.7684 5.00938 10.3184 4.49338 10.3184 3.87138V1.17738C10.3184 0.528576 10.8068 0.000976562 11.4068 0.000976562C11.5812 0.000976562 11.7548 0.0469766 11.9092 0.133777L19.7268 4.53178C19.94 4.65178 20.0444 4.91058 19.9804 5.16138C19.9192 5.40138 19.722 5.56218 19.4948 5.56218ZM11.4068 0.639776C11.1324 0.639776 10.9092 0.880976 10.9092 1.17738V3.87138C10.9092 4.15578 11.1148 4.39138 11.3776 4.40818L19.0988 4.89858L11.6364 0.700176C11.566 0.660576 11.4864 0.639776 11.4068 0.639776Z" fill="#FAFAFA" fill-opacity="0.5"/>
<path d="M18.5355 20.0009H1.46351C0.658706 20.0009 0.00390625 19.2933 0.00390625 18.4233C0.00390625 17.5533 0.658706 16.8457 1.46351 16.8457H18.5355C19.3403 16.8457 19.9951 17.5533 19.9951 18.4233C19.9951 19.2933 19.3403 20.0009 18.5355 20.0009ZM1.46351 17.4753C0.979906 17.4753 0.586306 17.9005 0.586306 18.4233C0.586306 18.9461 0.979906 19.3713 1.46351 19.3713H18.5355C19.0191 19.3713 19.4127 18.9461 19.4127 18.4233C19.4127 17.9005 19.0191 17.4753 18.5355 17.4753H1.46351Z" fill="#FAFAFA" fill-opacity="0.5"/>
<path d="M10.0003 16.0851C9.30353 16.0851 8.73633 15.4723 8.73633 14.7187V7.15546C8.73633 6.40226 9.30353 5.78906 10.0003 5.78906C10.6975 5.78906 11.2643 6.40186 11.2643 7.15546V14.7191C11.2643 15.4723 10.6975 16.0851 10.0003 16.0851ZM10.0003 6.41826C9.62433 6.41826 9.31873 6.74906 9.31873 7.15506V14.7187C9.31873 15.1251 9.62473 15.4555 10.0003 15.4555C10.3763 15.4555 10.6823 15.1247 10.6823 14.7187V7.15546C10.6823 6.74906 10.3763 6.41826 10.0003 6.41826Z" fill="#FAFAFA" fill-opacity="0.5"/>
<path d="M16.5628 16.0851C15.8656 16.0851 15.2988 15.4723 15.2988 14.7187V7.15546C15.2988 6.40226 15.866 5.78906 16.5628 5.78906C17.26 5.78906 17.8268 6.40186 17.8268 7.15546V14.7191C17.8272 15.4723 17.26 16.0851 16.5628 16.0851ZM16.5628 6.41826C16.1868 6.41826 15.8812 6.74906 15.8812 7.15506V14.7187C15.8812 15.1251 16.1872 15.4555 16.5628 15.4555C16.9388 15.4555 17.2448 15.1247 17.2448 14.7187V7.15546C17.2448 6.74906 16.9388 6.41826 16.5628 6.41826Z" fill="#FAFAFA" fill-opacity="0.5"/>
<path d="M3.43783 16.0851C2.74063 16.0851 2.17383 15.4723 2.17383 14.7187V7.15546C2.17383 6.40226 2.74103 5.78906 3.43783 5.78906C4.13463 5.78906 4.70183 6.40186 4.70183 7.15546V14.7191C4.70183 15.4723 4.13463 16.0851 3.43783 16.0851ZM3.43783 6.41826C3.06183 6.41826 2.75583 6.74906 2.75583 7.15506V14.7187C2.75583 15.1251 3.06183 15.4555 3.43783 15.4555C3.81383 15.4555 4.11943 15.1247 4.11943 14.7187V7.15546C4.11943 6.74906 3.81343 6.41826 3.43783 6.41826Z" fill="#FAFAFA" fill-opacity="0.5"/>
</g>
<defs>
<clipPath id="clip0">
<rect width="20" height="20" fill="white"/>
</clipPath>
</defs>
</svg>
