<svg width="20" height="20" viewBox="0 0 20 20" fill="none" xmlns="http://www.w3.org/2000/svg">
<path d="M20 10C20 4.47715 15.5228 0 10 0C4.47715 0 0 4.47715 0 10C0 15.5228 4.47715 20 10 20C15.5228 20 20 15.5228 20 10Z" fill="url(#paint0_linear_2627_25740)"/>
<path opacity="0.1" d="M17.5262 3.42117C16.0683 6.09749 14.0065 8.85801 11.4302 11.4343C8.85383 14.0106 6.09331 16.0685 3.42094 17.5264C3.2534 17.3808 3.09068 17.2291 2.93278 17.0712C1.97838 16.1486 1.2172 15.0453 0.69362 13.8256C0.170039 12.6058 -0.105463 11.294 -0.116821 9.96667C-0.128179 8.63933 0.124834 7.32302 0.627465 6.09448C1.1301 4.86594 1.87229 3.74976 2.81076 2.81102C3.74923 1.87229 4.8652 1.12979 6.0936 0.626813C7.322 0.123839 8.63825 -0.129541 9.96559 -0.118554C11.2929 -0.107566 12.6048 0.167569 13.8247 0.69081C15.0446 1.21405 16.1481 1.97493 17.0709 2.92907C17.2288 3.08696 17.3806 3.251 17.5262 3.42117Z" fill="white"/>
<path d="M12.3679 4.73682H7.63106C6.86333 4.73682 6.12704 5.0418 5.58418 5.58467C5.04131 6.12753 4.73633 6.86382 4.73633 7.63155V12.3684C4.73633 13.1361 5.04131 13.8724 5.58418 14.4153C6.12704 14.9582 6.86333 15.2631 7.63106 15.2631H12.3679C13.1356 15.2631 13.8719 14.9582 14.4148 14.4153C14.9577 13.8724 15.2626 13.1361 15.2626 12.3684V7.63155C15.2626 6.86382 14.9577 6.12753 14.4148 5.58467C13.8719 5.0418 13.1356 4.73682 12.3679 4.73682ZM14.3416 11.9526C14.3416 12.5863 14.0898 13.1941 13.6417 13.6422C13.1936 14.0903 12.5858 14.3421 11.9521 14.3421H8.04685C7.41313 14.3421 6.80535 14.0903 6.35724 13.6422C5.90913 13.1941 5.65738 12.5863 5.65738 11.9526V8.04734C5.65738 7.41361 5.90913 6.80584 6.35724 6.35773C6.80535 5.90962 7.41313 5.65787 8.04685 5.65787H11.9521C12.5858 5.65787 13.1936 5.90962 13.6417 6.35773C14.0898 6.80584 14.3416 7.41361 14.3416 8.04734V11.9526Z" fill="white"/>
<path d="M11.9193 8.10001L11.8943 8.07501L11.8732 8.05396C11.3757 7.55818 10.7019 7.27994 9.99952 7.28027C9.64484 7.28268 9.29411 7.35495 8.96736 7.49296C8.64062 7.63096 8.34427 7.83199 8.09524 8.08456C7.84622 8.33713 7.6494 8.63629 7.51602 8.96495C7.38265 9.29361 7.31534 9.64533 7.31794 10C7.31741 10.7198 7.60114 11.4107 8.10742 11.9224C8.3554 12.1734 8.6509 12.3725 8.97667 12.508C9.30244 12.6436 9.65195 12.7129 10.0048 12.7118C10.534 12.7007 11.0486 12.5359 11.4858 12.2373C11.923 11.9388 12.2638 11.5195 12.4668 11.0306C12.6698 10.5417 12.7261 10.0042 12.6288 9.48388C12.5316 8.9635 12.2851 8.48267 11.9193 8.10001ZM9.99952 11.7842C9.64562 11.7892 9.29823 11.6888 9.00155 11.4958C8.70487 11.3027 8.4723 11.0258 8.33341 10.7003C8.19453 10.3747 8.15561 10.0152 8.2216 9.6675C8.2876 9.31977 8.45552 8.99952 8.70403 8.74749C8.95253 8.49546 9.27038 8.32303 9.61714 8.25213C9.96391 8.18124 10.3239 8.21508 10.6514 8.34936C10.9789 8.48363 11.259 8.71228 11.4562 9.00621C11.6534 9.30014 11.7587 9.64607 11.7587 10C11.7605 10.2327 11.7163 10.4634 11.6288 10.6791C11.5414 10.8947 11.4122 11.091 11.2489 11.2567C11.0855 11.4224 10.8911 11.5542 10.6767 11.6448C10.4623 11.7353 10.2322 11.7827 9.99952 11.7842Z" fill="white"/>
<path d="M13.4775 7.15523C13.4782 7.23967 13.4622 7.32341 13.4305 7.40166C13.3988 7.47992 13.3519 7.55115 13.2927 7.61128C13.2334 7.67141 13.1628 7.71926 13.0851 7.75209C13.0073 7.78492 12.9238 7.80208 12.8393 7.8026C12.7556 7.80256 12.6727 7.78591 12.5955 7.75361C12.5182 7.72132 12.4482 7.67401 12.3893 7.61444C12.3002 7.524 12.2395 7.40938 12.2149 7.28481C12.1903 7.16023 12.2028 7.03116 12.2509 6.91362C12.2989 6.79608 12.3804 6.69522 12.4853 6.62356C12.5901 6.5519 12.7137 6.51259 12.8406 6.5105C12.9892 6.51047 13.1331 6.56263 13.2472 6.65787L13.2604 6.67102C13.2816 6.6883 13.301 6.7077 13.3183 6.72892L13.3327 6.74471C13.4269 6.86074 13.4781 7.00579 13.4775 7.15523Z" fill="white"/>
<defs>
<linearGradient id="paint0_linear_2627_25740" x1="2.92895" y1="2.92895" x2="17.0711" y2="17.0711" gradientUnits="userSpaceOnUse">
<stop stop-color="#FAE100"/>
<stop offset="0.15" stop-color="#FCB720"/>
<stop offset="0.3" stop-color="#FF7950"/>
<stop offset="0.5" stop-color="#FF1C74"/>
<stop offset="1" stop-color="#6C1CD1"/>
</linearGradient>
</defs>
</svg>
