<svg width="55" height="160" viewBox="0 0 55 160" fill="none" xmlns="http://www.w3.org/2000/svg">
<path d="M33.4288 27.647V106.901C33.4288 107.445 32.9444 107.836 32.4091 107.759C30.8541 107.513 29.2651 107.394 27.6506 107.394C26.0276 107.394 24.4301 107.513 22.8751 107.759C22.3398 107.844 21.8555 107.445 21.8555 106.901V27.647C21.8555 24.452 24.4471 21.8604 27.6421 21.8604C30.8371 21.8604 33.4288 24.452 33.4288 27.647Z" fill="white"/>
<path d="M27.6512 160C39.7166 160 49.4976 150.219 49.4976 138.154C49.4976 126.088 39.7166 116.307 27.6512 116.307C15.5857 116.307 5.80469 126.088 5.80469 138.154C5.80469 150.219 15.5857 160 27.6512 160Z" fill="#2E9B9B"/>
<path d="M54.3785 27.8422V119.314C54.3785 120.167 53.2585 120.501 52.8071 119.774C50.4083 115.971 47.1904 112.736 43.3958 110.329C43.1534 110.171 43.0029 109.903 43.0029 109.611V27.7085C43.0029 19.0076 36.191 11.5354 27.4901 11.3765C18.6221 11.2177 11.3839 18.3556 11.3839 27.1819V109.611C11.3839 109.903 11.2334 110.171 10.991 110.321C7.19641 112.736 3.9785 115.971 1.5797 119.782C1.12 120.518 0 120.192 0 119.331V27.1903C0 11.8446 12.7128 -0.533892 28.1755 0.017749C42.911 0.544316 54.3785 13.0983 54.3785 27.8422Z" fill="white"/>
</svg>
