<svg width="67" height="170" viewBox="0 0 67 170" fill="none" xmlns="http://www.w3.org/2000/svg">
<path d="M33.4671 106.336C35.4212 106.336 37.3444 106.48 39.2267 106.778C39.8746 106.871 40.4608 106.397 40.4608 105.739V33.4683C40.4608 29.6012 37.324 26.4643 33.4568 26.4643C29.5896 26.4643 26.4528 29.6012 26.4528 33.4683V105.739C26.4528 106.397 27.039 106.881 27.687 106.778C29.5691 106.48 31.5027 106.336 33.4671 106.336Z" fill="#F7F8F8"/>
<path d="M33.4671 117.114C18.8633 117.114 7.0246 128.954 7.0246 143.557C7.0246 158.161 18.8633 170 33.4671 170C48.0709 170 59.9096 158.161 59.9096 143.557C59.9096 128.954 48.0709 117.114 33.4671 117.114Z" fill="#5CC4B8"/>
<path d="M34.6704 0.0218524C15.6433 -0.657157 0 14.5755 0 33.4579V123.183C0 124.242 1.37817 124.643 1.94383 123.738C4.89555 119.048 8.85528 115.068 13.5246 112.095C13.8229 111.91 14.008 111.581 14.008 111.221V33.4484C14.008 22.5868 22.9147 13.8038 33.8271 13.9996C44.5337 14.1944 52.9159 23.3897 52.9159 34.0962V111.221C52.9159 111.581 53.101 111.91 53.3993 112.106C58.0686 115.068 62.0283 119.048 64.9801 123.728C65.5355 124.622 66.9136 124.211 66.9136 123.162V34.2607C66.9136 16.118 52.8027 0.669684 34.6704 0.0218524Z" fill="#F7F8F8"/>
</svg>
