<svg width="292" height="48" viewBox="0 0 292 48" fill="none" xmlns="http://www.w3.org/2000/svg">
<path d="M49.9084 47.2019V29.32C49.9084 22.7419 47.0918 19.4066 41.5362 19.4066C38.7184 19.4066 36.3832 20.3865 34.5974 22.3196C32.8256 24.2344 31.9275 26.9922 31.9275 30.5165V47.2019H24.9542V29.32C24.9542 22.7419 22.1127 19.4066 16.5092 19.4066C13.7393 19.4066 11.429 20.3865 9.64321 22.3196C7.87138 24.2344 6.97333 26.9922 6.97333 30.5165V47.2019H0V14.8953H6.97333L6.88904 20.1858L7.4366 19.3928C8.56204 17.7645 10.0713 16.4604 11.9232 15.5176C13.7757 14.5755 15.955 14.0972 18.4005 14.0972C23.9446 14.0972 27.8472 16.1145 30.0011 20.0933L30.294 20.6342L30.6451 20.1232C31.916 18.2749 33.6448 16.7923 35.7847 15.7183C37.9264 14.6425 40.278 14.0972 42.7732 14.0972C47.1561 14.0972 50.6397 15.3148 53.1271 17.7157C55.6181 20.1232 56.8818 23.7816 56.8818 28.5884V47.2019H49.9084Z" fill="#F7F8F8"/>
<path d="M83.15 48C79.6918 48 76.5841 47.2878 73.913 45.8834C71.2444 44.4813 69.1245 42.5005 67.6134 39.9954C66.0987 37.4881 65.331 34.5224 65.331 31.1816C65.331 27.797 66.0878 24.7853 67.5794 22.2309C69.0681 19.6832 71.1752 17.6691 73.8421 16.2459C76.512 14.8204 79.6682 14.0972 83.2227 14.0972C86.6779 14.0972 89.7225 14.8082 92.2717 16.2104C94.8221 17.6137 96.8341 19.5064 98.2506 21.8369C99.6683 24.169 100.387 26.7761 100.387 29.5854C100.387 30.0249 100.374 30.4966 100.35 31.0009C100.33 31.4205 100.302 31.8777 100.266 32.3732H72.1321L72.1594 32.734C72.4074 36.0033 73.6117 38.5306 75.7395 40.2453C77.8606 41.9562 80.3534 42.8236 83.15 42.8236C85.3966 42.8236 87.314 42.3458 88.8487 41.4031C90.3161 40.5014 91.4404 39.2799 92.1941 37.7696H99.1674C98.1808 40.6028 96.3271 43.0159 93.6518 44.9473C90.8467 46.973 87.3134 48 83.15 48ZM83.15 19.2071C80.508 19.2071 78.131 19.9353 76.0863 21.3719C74.0283 22.8162 72.7567 25.0042 72.308 27.8757L72.2473 28.2608H93.4335L93.4129 27.9062C93.2631 25.2542 92.2183 23.1171 90.3076 21.5542C88.4012 19.9969 85.9927 19.2071 83.15 19.2071Z" fill="#F7F8F8"/>
<path d="M122.946 47.2019C119.51 47.2019 116.749 46.4338 114.743 44.9185C112.756 43.4199 111.749 40.6776 111.749 36.7671V20.1382H105.564V14.8953H111.713V6.51654H118.722V14.8953H128.907V20.1382H118.722V36.7671C118.722 38.7046 119.179 40.0164 120.119 40.7768C121.045 41.5278 122.565 41.8925 124.766 41.8925H128.543V47.2019H122.946Z" fill="#F7F8F8"/>
<path d="M198.662 48C195.256 48 192.213 47.2562 189.617 45.7892C187.018 44.3216 184.958 42.2849 183.493 39.7355C182.025 37.1822 181.28 34.237 181.28 30.9821C181.28 27.7277 182.025 24.7942 183.492 22.2631C184.956 19.7375 187.028 17.7234 189.65 16.2769C192.272 14.8304 195.328 14.0972 198.735 14.0972C201.522 14.0972 203.998 14.5993 206.095 15.5891C208.182 16.5756 209.833 17.9873 211.004 19.784L211.691 20.8376V0H218.664V47.2019H211.691V41.33L211.017 42.2283C209.886 43.7353 208.306 45.0909 206.32 46.2575C204.353 47.4136 201.776 48 198.662 48ZM200.045 19.5396C196.656 19.5396 193.825 20.6154 191.628 22.7369C189.437 24.8529 188.326 27.6495 188.326 31.0486C188.326 33.2677 188.829 35.2673 189.823 36.991C190.82 38.7234 192.224 40.0985 193.997 41.0789C195.767 42.0604 197.802 42.5576 200.045 42.5576C203.435 42.5576 206.255 41.4696 208.427 39.3242C210.593 37.186 211.691 34.4016 211.691 31.0486C211.691 27.6512 210.593 24.8552 208.426 22.7386C206.254 20.6159 203.434 19.5396 200.045 19.5396Z" fill="#F7F8F8"/>
<path d="M154.043 48C150.693 48 147.7 47.2562 145.146 45.7903C142.589 44.3233 140.562 42.2871 139.12 39.7371C137.675 37.1838 136.942 34.2381 136.942 30.9821C136.942 27.7266 137.674 24.7925 139.119 22.2614C140.56 19.7358 142.599 17.7218 145.179 16.2753C147.757 14.8304 150.764 14.0972 154.115 14.0972C156.856 14.0972 159.291 14.5987 161.354 15.588C163.406 16.5745 165.031 17.9856 166.183 19.7818L166.871 20.8548V16.0702H173.722V47.2019H166.871V41.315L166.196 42.2306C165.084 43.7369 163.529 45.092 161.574 46.2592C159.64 47.4142 157.105 48 154.043 48ZM155.403 19.5396C152.066 19.5396 149.277 20.6159 147.114 22.7391C144.957 24.8552 143.864 27.6507 143.864 31.0486C143.864 33.2671 144.359 35.2657 145.338 36.9887C146.319 38.7212 147.701 40.0968 149.446 41.0778C151.19 42.0599 153.194 42.5576 155.403 42.5576C158.743 42.5576 161.521 41.4691 163.66 39.322C165.791 37.1849 166.871 34.4011 166.871 31.0486C166.871 27.6518 165.791 24.8568 163.659 22.7403C161.519 20.6165 158.741 19.5396 155.403 19.5396Z" fill="#F7F8F8"/>
<path d="M245.661 48C242.3 48 239.241 47.2878 236.57 45.8834C233.901 44.4818 231.757 42.4883 230.196 39.9594C228.634 37.4288 227.842 34.431 227.842 31.0486C227.842 27.6662 228.646 24.6684 230.231 22.14C231.814 19.6122 233.983 17.6187 236.678 16.2143C239.374 14.8099 242.421 14.0972 245.734 14.0972C249.095 14.0972 252.154 14.8093 254.825 16.2137C257.495 17.6181 259.653 19.6117 261.237 22.14C262.822 24.6706 263.626 27.6678 263.626 31.0486C263.626 34.4293 262.822 37.4266 261.237 39.9571C259.651 42.4872 257.482 44.4813 254.79 45.8829C252.094 47.2873 249.023 48 245.661 48ZM245.734 19.4731C243.835 19.4731 242.046 19.9137 240.419 20.7827C238.789 21.6529 237.458 22.9619 236.459 24.6723C235.465 26.3743 234.961 28.5197 234.961 31.0486C234.961 33.5775 235.465 35.7229 236.46 37.4249C237.458 39.1358 238.777 40.4437 240.38 41.3133C241.982 42.1829 243.759 42.6241 245.661 42.6241C247.562 42.6241 249.35 42.1834 250.977 41.3144C252.606 40.4443 253.937 39.1358 254.936 37.4249C255.93 35.7212 256.434 33.5758 256.434 31.0486C256.434 28.5224 255.943 26.3787 254.974 24.6756C254.001 22.9647 252.681 21.6551 251.05 20.7827C249.42 19.9137 247.632 19.4731 245.734 19.4731Z" fill="#F7F8F8"/>
<path d="M286.039 47.2019C282.602 47.2019 279.842 46.4338 277.836 44.9185C275.849 43.4199 274.841 40.6776 274.841 36.7671V20.1382H268.657V14.8953H274.806V6.51654H281.815V14.8953H292V20.1382H281.815V36.7671C281.815 38.7046 282.272 40.0164 283.212 40.7768C284.138 41.5278 285.658 41.8925 287.858 41.8925H291.636V47.2019H286.039Z" fill="#F7F8F8"/>
</svg>
