<svg width="276" height="74" viewBox="0 0 276 74" fill="none" xmlns="http://www.w3.org/2000/svg">
<g filter="url(#filter0_d_1996_898)">
<path d="M15.0589 61.485H14.9793C13.333 61.485 12 60.152 12 58.5056V42.6341C12 35.0291 18.0333 28.8516 25.4642 28.8516C29.7218 28.8516 33.4323 30.8312 35.9093 33.9995C38.3863 30.8312 42.1763 28.8516 46.4339 28.8516C53.8599 28.8516 59.8186 35.0291 59.8186 42.6341V58.5056C59.8186 60.152 58.4856 61.485 56.8392 61.485C55.1929 61.485 53.8599 60.152 53.8599 58.5056V42.6341C53.8599 38.4362 50.5324 34.9495 46.4339 34.9495C42.2559 34.9495 38.9284 38.4362 38.9284 42.6341V58.5056C38.9284 60.152 37.5954 61.485 35.9491 61.485C34.3027 61.485 32.9697 60.152 32.9697 58.5056V42.6341C32.9697 38.4362 29.5676 34.9495 25.4642 34.9495C21.3608 34.9495 18.0333 38.4362 18.0333 42.6341V58.5056C18.0382 60.152 16.7053 61.485 15.0589 61.485Z" fill="white"/>
<path d="M66.6178 45.1668C66.6178 36.2165 73.7374 28.8506 82.5582 28.8506C91.3797 28.8506 98.4993 36.2165 98.4993 45.1668C98.4993 46.8858 97.4855 47.8805 95.9933 48.2563H73.0404C74.279 52.3745 78.0705 55.385 82.5582 55.385C85.344 55.385 87.8206 54.1968 89.6778 52.3745H93.2757H96.8737C94.3202 57.7608 88.8262 61.4836 82.5582 61.4836C73.7374 61.4836 66.6178 54.1968 66.6178 45.1668ZM73.0404 42.157H92.0767C90.7611 38.0388 86.9689 35.0283 82.5582 35.0283C78.0705 35.0283 74.279 38.0388 73.0404 42.157Z" fill="white"/>
<path d="M91.7656 50.6159C91.0578 51.1664 90.5221 51.6107 89.6766 52.3766L96.8737 52.3766C97.7342 50.3672 94.0038 48.8751 91.7656 50.6159Z" fill="white"/>
<path d="M117.326 28.8514H122.295C123.941 28.8514 125.274 30.1844 125.274 31.8308V31.97C125.274 33.6164 123.941 34.9494 122.295 34.9494H117.326V58.5055C117.326 60.1518 115.993 61.4848 114.347 61.4848C112.701 61.4848 111.368 60.1518 111.368 58.5055V34.9494H106.399C104.752 34.9494 103.419 33.6164 103.419 31.97V31.8308C103.419 30.1844 104.752 28.8514 106.399 28.8514H111.368V15.5116C111.368 13.8652 112.701 12.5322 114.347 12.5322C115.993 12.5322 117.326 13.8652 117.326 15.5116V28.8514Z" fill="white"/>
<path d="M256.052 28.8514H261.021C262.667 28.8514 264 30.1844 264 31.8308V31.97C264 33.6164 262.667 34.9494 261.021 34.9494H256.052V58.5055C256.052 60.1518 254.719 61.4848 253.072 61.4848C251.426 61.4848 250.093 60.1518 250.093 58.5055V34.9494H245.124C243.478 34.9494 242.145 33.6164 242.145 31.97V31.8308C242.145 30.1844 243.478 28.8514 245.124 28.8514H250.093V15.5116C250.093 13.8652 251.426 12.5322 253.072 12.5322C254.719 12.5322 256.052 13.8652 256.052 15.5116V28.8514Z" fill="white"/>
<path d="M160.822 45.1658V58.5056C160.822 60.152 159.489 61.485 157.843 61.485C156.197 61.485 154.864 60.152 154.864 58.5056V57.9187C152.078 60.1371 148.671 61.485 144.881 61.485C136.063 61.485 128.94 54.1983 128.94 45.1658C128.94 36.1382 136.058 28.8516 144.881 28.8516C153.7 28.8516 160.822 36.1382 160.822 45.1658ZM154.864 45.1658C154.864 39.5404 150.377 34.9495 144.881 34.9495C139.385 34.9495 134.899 39.5453 134.899 45.1658C134.899 50.7912 139.385 55.3821 144.881 55.3821C150.377 55.3821 154.864 50.7912 154.864 45.1658Z" fill="white"/>
<path d="M167.433 45.1656C167.433 36.1381 174.55 28.8514 183.374 28.8514C187.164 28.8514 190.651 30.1993 193.356 32.4177V15.5116C193.356 13.8652 194.689 12.5322 196.336 12.5322C197.982 12.5322 199.315 13.8652 199.315 15.5116V45.1656C199.315 54.1932 192.198 61.4848 183.374 61.4848C174.555 61.4848 167.433 54.1981 167.433 45.1656ZM173.391 45.1656C173.391 50.791 177.878 55.3819 183.374 55.3819C188.87 55.3819 193.356 50.7861 193.356 45.1656C193.356 39.5402 188.87 34.9494 183.374 34.9494C177.878 34.9494 173.391 39.5452 173.391 45.1656Z" fill="white"/>
<path d="M238.429 45.1658C238.429 54.1187 231.312 61.485 222.488 61.485C213.67 61.485 206.547 54.1187 206.547 45.1658C206.547 36.1382 213.665 28.8516 222.488 28.8516C231.307 28.8516 238.429 36.1382 238.429 45.1658ZM232.471 45.1658C232.471 39.5404 227.984 34.9495 222.488 34.9495C216.992 34.9495 212.506 39.5453 212.506 45.1658C212.506 50.7912 216.992 55.3025 222.488 55.3025C227.979 55.3074 232.471 50.7912 232.471 45.1658Z" fill="white"/>
</g>
<defs>
<filter id="filter0_d_1996_898" x="0" y="0.532227" width="276" height="72.9526" filterUnits="userSpaceOnUse" color-interpolation-filters="sRGB">
<feFlood flood-opacity="0" result="BackgroundImageFix"/>
<feColorMatrix in="SourceAlpha" type="matrix" values="0 0 0 0 0 0 0 0 0 0 0 0 0 0 0 0 0 0 127 0" result="hardAlpha"/>
<feOffset/>
<feGaussianBlur stdDeviation="6"/>
<feComposite in2="hardAlpha" operator="out"/>
<feColorMatrix type="matrix" values="0 0 0 0 0.980392 0 0 0 0 0.980392 0 0 0 0 0.980392 0 0 0 0.2 0"/>
<feBlend mode="normal" in2="BackgroundImageFix" result="effect1_dropShadow_1996_898"/>
<feBlend mode="normal" in="SourceGraphic" in2="effect1_dropShadow_1996_898" result="shape"/>
</filter>
</defs>
</svg>
