<svg width="16" height="16" viewBox="0 0 16 16" fill="none" xmlns="http://www.w3.org/2000/svg">
<g opacity="0.86">
<path d="M9.59362 14.6937L8.46167 13.5617L14.3197 7.70406C14.6321 7.39169 15.1385 7.3916 15.451 7.70386L15.451 7.70386C15.7637 8.01629 15.7638 8.52305 15.4513 8.83561L9.59362 14.6937Z" fill="#FAFAFA"/>
<path d="M9.59359 14.6934L8.29187 14.8637L8.46223 13.562L9.59359 14.6934Z" fill="#FAFAFA"/>
<path d="M7.12389 7.92209C6.07094 7.92209 5.08048 7.51194 4.33482 6.76671C3.59003 6.02235 3.17944 5.0319 3.17944 3.97765C3.17944 2.92339 3.59003 1.93294 4.33569 1.18815C5.07962 0.443359 6.07007 0.0332031 7.12389 0.0332031C8.17771 0.0332031 9.16816 0.44336 9.91295 1.18859C10.6577 1.93294 11.0683 2.92339 11.0683 3.97765C11.0683 5.0319 10.6577 6.02235 9.91208 6.76714C9.16729 7.51194 8.17684 7.92209 7.12389 7.92209ZM7.12389 1.63303C6.49715 1.63303 5.90948 1.87695 5.46677 2.31966C5.02319 2.76237 4.78014 3.35091 4.78014 3.97765C4.78014 4.60438 5.02319 5.19293 5.4659 5.6352C6.35305 6.52148 7.89559 6.52105 8.78101 5.63563C9.22458 5.19292 9.46764 4.60438 9.46764 3.97765C9.46764 3.35091 9.22458 2.76237 8.78187 2.3201C8.3383 1.87695 7.75062 1.63303 7.12389 1.63303Z" fill="#FAFAFA"/>
<path d="M13.413 15.9399C12.9711 15.9399 12.6126 15.5814 12.6126 15.1396V14.354C12.6126 13.9208 12.5414 13.492 12.4 13.0805C12.2567 12.6621 12.4798 12.2073 12.8973 12.064C13.3157 11.9217 13.7706 12.1439 13.9138 12.5614C14.1126 13.1413 14.2133 13.7437 14.2133 14.354V15.1396C14.2133 15.5814 13.8548 15.9399 13.413 15.9399Z" fill="#FAFAFA"/>
<path d="M0.834893 15.9403C0.393053 15.9403 0.0345459 15.5818 0.0345459 15.1399V14.3543C0.0345459 12.9021 0.623956 11.4802 1.65087 10.4524C2.69253 9.41075 4.07795 8.8374 5.55191 8.8374H8.696C9.35573 8.8374 10.0042 8.95416 10.6222 9.18419C11.0363 9.33871 11.2464 9.79964 11.0927 10.2137C10.9373 10.6278 10.4781 10.8361 10.0632 10.6842C9.62482 10.5201 9.16475 10.4377 8.696 10.4377H5.55191C4.5059 10.4377 3.52239 10.8448 2.78281 11.5844C2.05278 12.3135 1.63524 13.3231 1.63524 14.3543V15.1399C1.63524 15.5818 1.27673 15.9403 0.834893 15.9403Z" fill="#FAFAFA"/>
</g>
</svg>
