<svg width="20" height="20" viewBox="0 0 20 20" fill="none" xmlns="http://www.w3.org/2000/svg">
<g clip-path="url(#clip0)">
<path d="M6.7688 20.0206H1.8548C0.832 20.0206 0 19.1206 0 18.0142C0 17.693 0.0724 17.3726 0.2096 17.0878L8.232 0.412186C8.3896 0.0849866 8.716 -0.0690131 9.0448 0.0293867C9.3736 0.127387 9.5808 0.440986 9.5608 0.808986L8.62 18.1318C8.5628 19.191 7.7492 20.0206 6.7688 20.0206ZM8.8508 0.630586C8.8168 0.630586 8.7764 0.645386 8.7488 0.702986L0.726 17.3786C0.632 17.5742 0.5824 17.7938 0.5824 18.0142C0.5824 18.773 1.1532 19.3906 1.8548 19.3906H6.7688C7.4416 19.3906 7.9996 18.8214 8.0388 18.095L8.9796 0.771786C8.9848 0.678986 8.9256 0.646986 8.89 0.636586C8.8792 0.633386 8.8656 0.630586 8.8508 0.630586Z" fill="white"/>
<path d="M18.0296 20.0199H13.1156C12.1348 20.0199 11.3216 19.1903 11.264 18.1311L10.3236 0.807856C10.3036 0.439456 10.5108 0.126256 10.8396 0.0282562C11.1684 -0.0697438 11.4948 0.0838562 11.6524 0.411056L19.6752 17.0867C19.8124 17.3715 19.8848 17.6919 19.8848 18.0131C19.8844 19.1199 19.0524 20.0199 18.0296 20.0199ZM11.0336 0.629856C11.0188 0.629856 11.0056 0.632656 10.9948 0.635856C10.9592 0.646656 10.9 0.678256 10.9052 0.771056L11.846 18.0939C11.8856 18.8203 12.4432 19.3895 13.116 19.3895H18.03C18.7316 19.3895 19.3024 18.7719 19.3024 18.0131C19.3024 17.7927 19.2528 17.5731 19.1588 17.3775L11.1356 0.702256C11.108 0.644656 11.0676 0.629856 11.0336 0.629856Z" fill="white"/>
</g>
<defs>
<clipPath id="clip0">
<rect width="20" height="20" fill="white"/>
</clipPath>
</defs>
</svg>
