<svg width="20" height="20" viewBox="0 0 20 20" fill="none" xmlns="http://www.w3.org/2000/svg">
<path d="M5.48076 3.77962C5.48076 4.15562 5.81156 4.46122 6.21756 4.46122H13.7812C14.1876 4.46122 14.518 4.15522 14.518 3.77962C14.518 3.40362 14.1872 3.09762 13.7812 3.09762H6.21796C5.81156 3.09762 5.48076 3.40362 5.48076 3.77962ZM15.1476 3.77962C15.1476 4.47682 14.5348 5.04362 13.7812 5.04362H6.21796C5.46476 5.04362 4.85156 4.47642 4.85156 3.77962C4.85156 3.08282 5.46436 2.51562 6.21796 2.51562H13.7816C14.5348 2.51562 15.1476 3.08242 15.1476 3.77962Z" fill="#FAFAFA" fill-opacity="0.5"/>
<path d="M5.48076 6.88998C5.48076 7.26598 5.81156 7.57158 6.21756 7.57158H13.7812C14.1876 7.57158 14.518 7.26558 14.518 6.88998C14.518 6.51398 14.1872 6.20798 13.7812 6.20798H6.21796C5.81156 6.20838 5.48076 6.51398 5.48076 6.88998ZM15.1476 6.88998C15.1476 7.58718 14.5348 8.15398 13.7812 8.15398H6.21796C5.46476 8.15398 4.85156 7.58678 4.85156 6.88998C4.85156 6.19318 5.46436 5.62598 6.21796 5.62598H13.7816C14.5348 5.62598 15.1476 6.19318 15.1476 6.88998Z" fill="#FAFAFA" fill-opacity="0.5"/>
<path d="M5.48076 10.0013C5.48076 10.3773 5.81156 10.6833 6.21756 10.6833H13.7812C14.1876 10.6833 14.518 10.3773 14.518 10.0013C14.518 9.6253 14.1872 9.3193 13.7812 9.3193H6.21796C5.81156 9.3193 5.48076 9.6253 5.48076 10.0013ZM15.1476 10.0013C15.1476 10.6985 14.5348 11.2653 13.7812 11.2653H6.21796C5.46476 11.2653 4.85156 10.6981 4.85156 10.0013C4.85156 9.3045 5.46436 8.7373 6.21796 8.7373H13.7816C14.5348 8.7373 15.1476 9.3041 15.1476 10.0013Z" fill="#FAFAFA" fill-opacity="0.5"/>
<path d="M5.48076 13.1107C5.48076 13.4867 5.81156 13.7927 6.21756 13.7927H13.7812C14.1876 13.7927 14.518 13.4867 14.518 13.1107C14.518 12.7347 14.1872 12.4291 13.7812 12.4291H6.21796C5.81156 12.4287 5.48076 12.7347 5.48076 13.1107ZM15.1476 13.1107C15.1476 13.8079 14.5348 14.3747 13.7812 14.3747H6.21796C5.46476 14.3747 4.85156 13.8075 4.85156 13.1107C4.85156 12.4139 5.46436 11.8467 6.21796 11.8467H13.7816C14.5348 11.8463 15.1476 12.4135 15.1476 13.1107Z" fill="#FAFAFA" fill-opacity="0.5"/>
<path d="M5.48076 16.222C5.48076 16.598 5.81156 16.904 6.21756 16.904H13.7812C14.1876 16.904 14.518 16.598 14.518 16.222C14.518 15.846 14.1872 15.5404 13.7812 15.5404H6.21796C5.81156 15.5404 5.48076 15.846 5.48076 16.222ZM15.1476 16.222C15.1476 16.9192 14.5348 17.486 13.7812 17.486H6.21796C5.46476 17.486 4.85156 16.9188 4.85156 16.222C4.85156 15.5248 5.46436 14.958 6.21796 14.958H13.7816C14.5348 14.958 15.1476 15.5248 15.1476 16.222Z" fill="#FAFAFA" fill-opacity="0.5"/>
<path d="M17.7736 19.9994H2.22875C1.00115 19.9994 0.00195312 19.0002 0.00195312 17.7726V2.22778C0.00195312 1.00018 1.00115 0.000976562 2.22875 0.000976562H17.7732C19.0012 0.000976562 20 1.00018 20 2.22778V17.7722C20.0004 19.0002 19.0012 19.9994 17.7736 19.9994ZM2.22875 0.583376C1.32195 0.583376 0.584353 1.32098 0.584353 2.22778V17.7722C0.584353 18.679 1.32195 19.4166 2.22875 19.4166H17.7732C18.68 19.4166 19.4176 18.679 19.4176 17.7722V2.22778C19.4176 1.32098 18.68 0.583376 17.7732 0.583376H2.22875Z" fill="#FAFAFA" fill-opacity="0.5"/>
</svg>
