<svg width="179" height="179" viewBox="0 0 179 179" fill="none" xmlns="http://www.w3.org/2000/svg">
<g opacity="0.41" filter="url(#filter0_d_1012:1086)">
<circle cx="89.3168" cy="89.3168" r="64.3168" fill="#880041"/>
</g>
<circle opacity="0.53" cx="89.3169" cy="89.3159" r="55.7163" fill="#E6007A"/>
<circle opacity="0.5" cx="89.3169" cy="89.3159" r="47.4897" fill="#E6007A" fill-opacity="0.9"/>
<circle cx="89.3169" cy="89.3159" r="39.2631" fill="#880041"/>
<g clip-path="url(#clip0_1012:1086)">
<path d="M108.482 72.5342C106.587 71.5137 104.473 73.4818 103.234 74.6481C100.391 77.4181 97.9856 80.6255 95.2884 83.5412C92.2998 86.7486 89.5298 89.9559 86.4682 93.0905C84.7187 94.84 82.8235 96.7352 81.6572 98.9221C79.033 96.3706 76.7733 93.6006 73.8575 91.341C71.7436 89.7374 68.2446 88.5711 68.3175 92.4345C68.4633 97.4643 72.9099 102.858 76.1901 106.284C77.5751 107.742 79.3975 109.273 81.5114 109.346C84.0627 109.492 86.6869 106.43 88.2177 104.754C90.9149 101.838 93.1017 98.5575 95.58 95.5689C98.7874 91.6326 102.068 87.7691 105.202 83.7599C107.17 81.2815 113.366 75.1583 108.482 72.5342ZM71.5248 92.1429C71.4519 92.1429 71.379 92.1429 71.2332 92.2157C70.9416 92.1429 70.7229 92.0699 70.4313 91.9241C70.65 91.7783 71.0145 91.8512 71.5248 92.1429Z" fill="#FAFAFA"/>
</g>
<circle cx="162.5" cy="35.5" r="7.5" fill="#880041"/>
<circle cx="14.5" cy="131.5" r="6.5" fill="#880041"/>
<defs>
<filter id="filter0_d_1012:1086" x="0" y="0" width="178.634" height="178.633" filterUnits="userSpaceOnUse" color-interpolation-filters="sRGB">
<feFlood flood-opacity="0" result="BackgroundImageFix"/>
<feColorMatrix in="SourceAlpha" type="matrix" values="0 0 0 0 0 0 0 0 0 0 0 0 0 0 0 0 0 0 127 0" result="hardAlpha"/>
<feMorphology radius="5" operator="dilate" in="SourceAlpha" result="effect1_dropShadow_1012:1086"/>
<feOffset/>
<feGaussianBlur stdDeviation="10"/>
<feComposite in2="hardAlpha" operator="out"/>
<feColorMatrix type="matrix" values="0 0 0 0 0.533333 0 0 0 0 0 0 0 0 0 0.254902 0 0 0 1 0"/>
<feBlend mode="normal" in2="BackgroundImageFix" result="effect1_dropShadow_1012:1086"/>
<feBlend mode="normal" in="SourceGraphic" in2="effect1_dropShadow_1012:1086" result="shape"/>
</filter>
<clipPath id="clip0_1012:1086">
<rect width="42" height="42" fill="white" transform="translate(68.3164 69.8008)"/>
</clipPath>
</defs>
</svg>
