<svg width="20" height="20" viewBox="0 0 20 20" fill="none" xmlns="http://www.w3.org/2000/svg">
<g clip-path="url(#clip0)">
<path d="M6.808 19.9983H1.8656C0.8368 19.9983 0 19.0991 0 17.9939C0 17.6731 0.0728 17.3531 0.2108 17.0683L8.28 0.410659C8.4384 0.0838594 8.7672 -0.0697406 9.0972 0.0282594C9.4276 0.126259 9.6364 0.439459 9.6164 0.807059L8.67 18.1111C8.6124 19.1695 7.7944 19.9983 6.808 19.9983ZM8.9024 0.629059C8.8684 0.629059 8.8276 0.643859 8.7996 0.701459L0.7304 17.3591C0.636 17.5543 0.586 17.7739 0.586 17.9939C0.586 18.7519 1.16 19.3687 1.8656 19.3687H6.808C7.4848 19.3687 8.0456 18.8003 8.0856 18.0743L9.032 0.769859C9.0372 0.677059 8.9776 0.645459 8.942 0.634659C8.9308 0.631859 8.9172 0.629059 8.9024 0.629059Z" fill="#FAFAFA" fill-opacity="0.5"/>
<path d="M11.1009 20.0008C11.0361 20.0008 10.9697 19.9911 10.9033 19.9715C10.5729 19.8736 10.3641 19.5604 10.3841 19.1928L11.3301 1.88875C11.3881 0.830753 12.2061 0.00195326 13.1925 0.00195326H18.1353C19.1641 0.00155326 20.0009 0.900753 20.0009 2.00595C20.0009 2.32675 19.9281 2.64675 19.7901 2.93155L11.7209 19.5892C11.5941 19.85 11.3589 20.0008 11.1009 20.0008ZM13.1929 0.631153C12.5161 0.631153 11.9553 1.19955 11.9153 1.92555L10.9693 19.2296C10.9641 19.3224 11.0237 19.3544 11.0593 19.3648C11.0949 19.3756 11.1613 19.3808 11.2013 19.2984L19.2705 2.64075C19.3649 2.44555 19.4149 2.22595 19.4149 2.00595C19.4149 1.24795 18.8409 0.631153 18.1353 0.631153H13.1929Z" fill="#FAFAFA" fill-opacity="0.5"/>
</g>
<defs>
<clipPath id="clip0">
<rect width="20" height="20" fill="white"/>
</clipPath>
</defs>
</svg>
