<svg width="20" height="20" viewBox="0 0 20 20" fill="none" xmlns="http://www.w3.org/2000/svg">
<path d="M10 20C15.5228 20 20 15.5228 20 10C20 4.47715 15.5228 0 10 0C4.47715 0 0 4.47715 0 10C0 15.5228 4.47715 20 10 20Z" fill="#039BE5"/>
<path d="M4.57556 9.78326L14.2172 6.06576C14.6647 5.9041 15.0556 6.17493 14.9106 6.8516L14.9114 6.85076L13.2697 14.5849C13.1481 15.1333 12.8222 15.2666 12.3664 15.0083L9.8664 13.1658L8.66056 14.3274C8.52723 14.4608 8.41473 14.5733 8.1564 14.5733L8.3339 12.0291L12.9672 7.84326C13.1689 7.66576 12.9222 7.56576 12.6564 7.74243L6.93057 11.3474L4.46223 10.5774C3.9264 10.4074 3.91473 10.0416 4.57556 9.78326Z" fill="white"/>
</svg>
