<svg width="15" height="36" viewBox="0 0 15 36" fill="none" xmlns="http://www.w3.org/2000/svg">
<path d="M7.08713 22.5182C7.50094 22.5182 7.90821 22.5487 8.3068 22.612C8.44401 22.6316 8.56815 22.5313 8.56815 22.3919V7.08745C8.56815 6.26854 7.90388 5.60425 7.08495 5.60425C6.26602 5.60425 5.60175 6.26854 5.60175 7.08745V22.3919C5.60175 22.5313 5.72589 22.6336 5.8631 22.612C6.26166 22.5487 6.67114 22.5182 7.08713 22.5182Z" fill="#F7F8F8"/>
<path d="M7.08714 24.8008C3.99457 24.8008 1.48755 27.3079 1.48755 30.4004C1.48755 33.4929 3.99457 36.0001 7.08714 36.0001C10.1797 36.0001 12.6867 33.4929 12.6867 30.4004C12.6867 27.3079 10.1797 24.8008 7.08714 24.8008Z" fill="#2E9B9B"/>
<path d="M7.34197 0.00462758C3.3127 -0.139163 0 3.08658 0 7.0852V26.0858C0 26.3101 0.291847 26.395 0.411634 26.2034C1.0367 25.2102 1.87524 24.3673 2.86404 23.7378C2.9272 23.6986 2.96641 23.6289 2.96641 23.5528V7.08318C2.96641 4.78309 4.85253 2.92317 7.16338 2.96462C9.43067 3.00588 11.2057 4.9531 11.2057 7.22037V23.5528C11.2057 23.6289 11.2449 23.6986 11.3081 23.74C12.2969 24.3673 13.1354 25.2102 13.7605 26.2012C13.8781 26.3906 14.1699 26.3035 14.1699 26.0814V7.25522C14.1699 3.41323 11.1818 0.141815 7.34197 0.00462758Z" fill="#F7F8F8"/>
</svg>
