<svg width="13" height="36" viewBox="0 0 13 36" fill="none" xmlns="http://www.w3.org/2000/svg">
<path d="M11.1182 31.0846C11.1182 33.7994 8.92131 36 6.21087 36C3.50086 36 1.30371 33.7994 1.30371 31.0846C1.30371 28.3701 3.50086 26.1694 6.21087 26.1694C8.92131 26.1694 11.1182 28.3701 11.1182 31.0846Z" fill="#219A9A"/>
<path d="M7.50932 6.22185V24.0555C7.50932 24.1771 7.40089 24.2665 7.28085 24.2477C6.93127 24.1928 6.57415 24.1652 6.21124 24.1652C5.84595 24.1652 5.48821 24.1928 5.13841 24.2477C5.01859 24.2665 4.91016 24.1771 4.91016 24.0555V6.22185C4.91016 5.50281 5.49208 4.92017 6.20974 4.92017C6.9274 4.92017 7.50932 5.50281 7.50932 6.22185Z" fill="white"/>
<path d="M12.4193 6.3685V27.2938C12.4193 27.4897 12.1639 27.5655 12.0596 27.3996C11.5118 26.5297 10.777 25.7904 9.91084 25.2393C9.85469 25.2035 9.82026 25.1423 9.82026 25.0757V6.33918C9.82026 4.34821 8.26487 2.64015 6.27728 2.60373C4.25226 2.56645 2.59921 4.19975 2.59921 6.2196V25.0759C2.59921 25.1425 2.56478 25.2035 2.50885 25.2393C1.64252 25.7926 0.907415 26.5323 0.359908 27.4041C0.255784 27.57 0 27.4942 0 27.2983V6.2196C0 2.70931 2.90361 -0.121798 6.43606 0.00403857C9.80113 0.123842 12.4193 2.99612 12.4193 6.3685Z" fill="white"/>
</svg>
