<svg width="20" height="20" viewBox="0 0 20 20" fill="none" xmlns="http://www.w3.org/2000/svg">
<path d="M10 20C15.5228 20 20 15.5228 20 10C20 4.47715 15.5228 0 10 0C4.47715 0 0 4.47715 0 10C0 15.5228 4.47715 20 10 20Z" fill="#03A9F4"/>
<path d="M16.4777 5.98285C15.9904 6.19564 15.475 6.33701 14.9474 6.40258C15.5036 6.07276 15.9194 5.55023 16.1158 4.93416C15.5953 5.24316 15.0256 5.46077 14.4316 5.57758C14.0676 5.18831 13.5949 4.91757 13.075 4.80059C12.555 4.68361 12.0119 4.72581 11.5163 4.92168C11.0206 5.11755 10.5954 5.45804 10.2959 5.89886C9.99637 6.33968 9.83644 6.86043 9.83689 7.39337C9.83502 7.59679 9.85577 7.7998 9.89874 7.99864C8.84212 7.94674 7.80834 7.67252 6.86492 7.19389C5.9215 6.71527 5.08966 6.043 4.42374 5.221C4.08145 5.80575 3.9754 6.49915 4.12728 7.15947C4.27915 7.8198 4.67748 8.39719 5.24084 8.77364C4.82035 8.7623 4.40876 8.64993 4.04084 8.44601V8.47495C4.04202 9.08788 4.25418 9.68172 4.64164 10.1566C5.02911 10.6316 5.56826 10.9586 6.16847 11.0828C5.94133 11.1425 5.70726 11.1717 5.47242 11.1697C5.30332 11.1728 5.13438 11.1578 4.96847 11.125C5.14043 11.6521 5.47149 12.113 5.91611 12.4443C6.36073 12.7756 6.89707 12.961 7.45137 12.975C6.51206 13.7091 5.3541 14.108 4.16189 14.1078C3.94947 14.1097 3.73716 14.0973 3.52637 14.071C4.74199 14.8548 6.15895 15.2689 7.60531 15.2631C12.4935 15.2631 15.1658 11.2144 15.1658 7.70522C15.1658 7.58811 15.1658 7.47495 15.1566 7.36179C15.6771 6.98619 16.1247 6.51891 16.4777 5.98285Z" fill="white"/>
</svg>
