<svg width="90" height="90" viewBox="0 0 20 20" fill="none" xmlns="http://www.w3.org/2000/svg">
<path d="M0.808105 5.24686L1.69186 6.13061C2.00686 5.81561 2.34936 5.53686 2.70561 5.28123L1.81248 4.38811C1.46248 4.65186 1.12248 4.93186 0.808105 5.24686ZM4.04623 3.16248L2.31686 1.43311L1.43311 2.31686L12.6831 13.5669L13.5669 12.6831L10.4344 9.55061L11.0444 8.94123C10.3445 8.24678 9.45181 7.779 8.48248 7.59873L7.05873 6.17498C8.80186 6.05561 10.5894 6.64248 11.8894 7.94186L12.7731 7.05811C10.9619 5.24623 8.35998 4.59811 5.96811 5.08436L5.01498 4.13123C5.81934 3.87952 6.65716 3.75098 7.49998 3.74998C9.71061 3.74998 11.7731 4.59561 13.3081 6.13061L14.1919 5.24686C12.4212 3.47561 10.0444 2.49998 7.49998 2.49998C6.31753 2.50392 5.14621 2.7286 4.04623 3.16248V3.16248ZM2.22686 7.05811L3.11061 7.94186C3.49366 7.56218 3.92633 7.23609 4.39686 6.97248L3.48498 6.06061C3.03686 6.34248 2.61311 6.67248 2.22686 7.05811V7.05811ZM3.95561 8.94186L4.83936 9.82561C5.27186 9.39311 5.79873 9.10623 6.35748 8.93311L5.38436 7.95998C4.853 8.19881 4.36902 8.53141 3.95561 8.94186V8.94186ZM8.74311 11.3187L7.43061 10.0062C7.18991 10.0191 6.9581 10.1015 6.76322 10.2434C6.56834 10.3852 6.41873 10.5805 6.33248 10.8056C6.24624 11.0307 6.22705 11.2759 6.27723 11.5117C6.32742 11.7474 6.44483 11.9636 6.61528 12.1341C6.78572 12.3045 7.0019 12.4219 7.23766 12.4721C7.47342 12.5223 7.71867 12.5031 7.94376 12.4169C8.16884 12.3306 8.36412 12.181 8.50598 11.9861C8.64784 11.7912 8.7302 11.5594 8.74311 11.3187Z" fill="white"/>
</svg>
