<svg width="16" height="18" viewBox="0 0 16 18" fill="none" xmlns="http://www.w3.org/2000/svg">
<path d="M8.0013 8.16667C7.11725 8.16667 6.2694 7.81548 5.64428 7.19036C5.01916 6.56524 4.66797 5.71739 4.66797 4.83333C4.66797 3.94928 5.01916 3.10143 5.64428 2.47631C6.2694 1.85119 7.11725 1.5 8.0013 1.5C8.88536 1.5 9.7332 1.85119 10.3583 2.47631C10.9834 3.10143 11.3346 3.94928 11.3346 4.83333C11.3346 5.71739 10.9834 6.56524 10.3583 7.19036C9.7332 7.81548 8.88536 8.16667 8.0013 8.16667Z" stroke="#FAFAFA" stroke-width="2" stroke-linecap="round"/>
<path d="M1.33398 16.4994V15.666C1.33398 14.3399 1.86077 13.0682 2.79845 12.1305C3.73613 11.1928 5.0079 10.666 6.33398 10.666H9.66732C10.9934 10.666 12.2652 11.1928 13.2029 12.1305C14.1405 13.0682 14.6673 14.3399 14.6673 15.666V16.4994" stroke="#FAFAFA" stroke-width="2" stroke-linecap="round"/>
</svg>
