<svg width="15" height="15" viewBox="0 0 15 15" fill="none" xmlns="http://www.w3.org/2000/svg">
<path d="M8.125 2.1875C8.125 1.93886 8.02623 1.7004 7.85041 1.52459C7.6746 1.34877 7.43614 1.25 7.1875 1.25C6.93886 1.25 6.7004 1.34877 6.52459 1.52459C6.34877 1.7004 6.25 1.93886 6.25 2.1875V6.25H2.1875C1.93886 6.25 1.7004 6.34877 1.52459 6.52459C1.34877 6.7004 1.25 6.93886 1.25 7.1875C1.25 7.43614 1.34877 7.6746 1.52459 7.85041C1.7004 8.02623 1.93886 8.125 2.1875 8.125H6.25V12.1875C6.25 12.4361 6.34877 12.6746 6.52459 12.8504C6.7004 13.0262 6.93886 13.125 7.1875 13.125C7.43614 13.125 7.6746 13.0262 7.85041 12.8504C8.02623 12.6746 8.125 12.4361 8.125 12.1875V8.125H12.1875C12.4361 8.125 12.6746 8.02623 12.8504 7.85041C13.0262 7.6746 13.125 7.43614 13.125 7.1875C13.125 6.93886 13.0262 6.7004 12.8504 6.52459C12.6746 6.34877 12.4361 6.25 12.1875 6.25H8.125V2.1875Z" fill="white"/>
</svg>
