<svg width="24" height="24" viewBox="0 0 24 24" fill="none" xmlns="http://www.w3.org/2000/svg">
<path d="M18.4167 20.25H5.58333C5.0971 20.25 4.63079 20.0568 4.28697 19.713C3.94315 19.3692 3.75 18.9029 3.75 18.4167V5.58333C3.75 5.0971 3.94315 4.63079 4.28697 4.28697C4.63079 3.94315 5.0971 3.75 5.58333 3.75H18.4167C18.9029 3.75 19.3692 3.94315 19.713 4.28697C20.0568 4.63079 20.25 5.0971 20.25 5.58333V18.4167C20.25 18.9029 20.0568 19.3692 19.713 19.713C19.3692 20.0568 18.9029 20.25 18.4167 20.25Z" stroke="#2E9B9B" stroke-width="1.5" stroke-linecap="round" stroke-linejoin="round"/>
<path d="M19 21H5C4.46957 21 3.96086 20.7893 3.58579 20.4142C3.21071 20.0391 3 19.5304 3 19V5C3 4.46957 3.21071 3.96086 3.58579 3.58579C3.96086 3.21071 4.46957 3 5 3H19C19.5304 3 20.0391 3.21071 20.4142 3.58579C20.7893 3.96086 21 4.46957 21 5V19C21 19.5304 20.7893 20.0391 20.4142 20.4142C20.0391 20.7893 19.5304 21 19 21Z" fill="#2E9B9B" stroke="#2E9B9B" stroke-width="1.5" stroke-linecap="round" stroke-linejoin="round"/>
<path d="M8.71198 12.5662L10.905 14.7592L15.692 9.97119" stroke="white" stroke-width="1.5" stroke-linecap="round" stroke-linejoin="round"/>
</svg>
