<svg width="14" height="14" viewBox="0 0 14 14" fill="none" xmlns="http://www.w3.org/2000/svg">
<path d="M8.96875 10.2812C3.71875 12.0312 1.53125 7 1.53125 7C1.53125 7 1.96875 5.46875 4.15625 4.15625M7.65625 3.28125C10.7188 3.71875 12.4688 7 12.4688 7C12.4688 7 12.0312 8.09375 11.1562 8.96875L7.65625 3.28125Z" stroke="white" stroke-width="1.40625" stroke-linecap="round" stroke-linejoin="round"/>
<path d="M7.54686 7.94774C7.30989 8.08451 7.03026 8.12749 6.76315 8.0682C6.49604 8.00892 6.26085 7.85167 6.10399 7.62749C5.9469 7.4034 5.87953 7.12857 5.91517 6.85724C5.95081 6.5859 6.08687 6.33779 6.29649 6.16187L6.99999 7.00012L7.54686 7.94774Z" fill="black" stroke="black" stroke-width="1.40625" stroke-linecap="round" stroke-linejoin="round"/>
<path d="M3.28125 1.53125L10.7188 12.4688" stroke="white" stroke-width="1.40625" stroke-linecap="round" stroke-linejoin="round"/>
</svg>
