<svg width="10" height="14" viewBox="0 0 10 14" fill="none" xmlns="http://www.w3.org/2000/svg">
<path d="M9.37497 0.875H2.04684C1.98669 0.875 1.93747 0.924219 1.93747 0.984375V1.75C1.93747 1.81016 1.98669 1.85938 2.04684 1.85938H8.82809V11.2656C8.82809 11.3258 8.87731 11.375 8.93747 11.375H9.70309C9.76325 11.375 9.81247 11.3258 9.81247 11.2656V1.3125C9.81247 1.07051 9.61696 0.875 9.37497 0.875ZM7.62497 2.625H0.624969C0.382977 2.625 0.187469 2.82051 0.187469 3.0625V10.3182C0.187469 10.4344 0.233954 10.5451 0.315985 10.6271L2.68532 12.9965C2.7154 13.0266 2.74958 13.0512 2.78649 13.0717V13.0977H2.84391C2.89177 13.1154 2.94235 13.125 2.99431 13.125H7.62497C7.86696 13.125 8.06247 12.9295 8.06247 12.6875V3.0625C8.06247 2.82051 7.86696 2.625 7.62497 2.625ZM2.78513 11.7059L1.60798 10.5273H2.78513V11.7059ZM7.07809 12.1406H3.66013V10.1992C3.66013 9.89707 3.4154 9.65234 3.11325 9.65234H1.17184V3.60938H7.07809V12.1406Z" fill="#F9F9F9"/>
</svg>
