<svg width="18" height="18" viewBox="0 0 18 18" fill="none" xmlns="http://www.w3.org/2000/svg">
<g opacity="0.6">
<path d="M15.4266 12.0305L14.0203 15.4055C13.9779 15.5086 13.9058 15.5969 13.8132 15.659C13.7205 15.7211 13.6115 15.7542 13.5 15.7542C13.3885 15.7542 13.2795 15.7211 13.1868 15.659C13.0942 15.5969 13.0221 15.5086 12.9797 15.4055L11.5734 12.0305C11.5448 11.9621 11.5299 11.8888 11.5296 11.8148C11.5293 11.7407 11.5436 11.6673 11.5717 11.5987C11.5998 11.5302 11.6411 11.4678 11.6933 11.4152C11.7454 11.3626 11.8075 11.3208 11.8758 11.2922C11.9441 11.2636 12.0174 11.2487 12.0915 11.2484C12.1656 11.2481 12.239 11.2624 12.3075 11.2905C12.3761 11.3185 12.4384 11.3598 12.491 11.412C12.5436 11.4642 12.5854 11.5262 12.6141 11.5945L13.5 13.725L14.3859 11.5945C14.4146 11.5262 14.4564 11.4642 14.509 11.412C14.5616 11.3598 14.6239 11.3185 14.6925 11.2905C14.761 11.2624 14.8344 11.2481 14.9085 11.2484C14.9826 11.2487 15.0559 11.2636 15.1242 11.2922C15.1925 11.3208 15.2546 11.3626 15.3067 11.4152C15.3589 11.4678 15.4002 11.5302 15.4283 11.5987C15.4564 11.6673 15.4707 11.7407 15.4704 11.8148C15.4701 11.8888 15.4552 11.9621 15.4266 12.0305ZM4.64062 12.375C4.86481 12.3772 5.08022 12.4624 5.24531 12.6141C5.29981 12.6644 5.36382 12.7032 5.43358 12.7284C5.50334 12.7535 5.57743 12.7645 5.65148 12.7605C5.72553 12.7566 5.79804 12.7379 5.86474 12.7055C5.93144 12.6731 5.99098 12.6277 6.03984 12.5719C6.14051 12.4618 6.19336 12.3163 6.18676 12.1673C6.18017 12.0183 6.11468 11.8781 6.00469 11.7773C5.62979 11.4407 5.1445 11.2531 4.64062 11.25C3.48047 11.25 2.53125 12.2625 2.53125 13.5C2.53125 14.7375 3.48047 15.75 4.64062 15.75C5.1445 15.747 5.62979 15.5593 6.00469 15.2227C6.11468 15.1219 6.18017 14.9817 6.18676 14.8327C6.19336 14.6837 6.14051 14.5382 6.03984 14.4281C5.99098 14.3723 5.93144 14.3269 5.86474 14.2945C5.79804 14.2621 5.72553 14.2434 5.65148 14.2395C5.57743 14.2355 5.50334 14.2465 5.43358 14.2716C5.36382 14.2968 5.29981 14.3356 5.24531 14.3859C5.08022 14.5376 4.86481 14.6228 4.64062 14.625C4.09922 14.625 3.65625 14.1188 3.65625 13.5C3.65625 12.8813 4.09922 12.375 4.64062 12.375ZM14.0625 6.75H10.6875C10.5383 6.75 10.3952 6.69074 10.2898 6.58525C10.1843 6.47976 10.125 6.33669 10.125 6.1875V2.8125H3.9375V9C3.9375 9.14919 3.87824 9.29226 3.77275 9.39775C3.66726 9.50324 3.52418 9.5625 3.375 9.5625C3.22582 9.5625 3.08274 9.50324 2.97725 9.39775C2.87176 9.29226 2.8125 9.14919 2.8125 9V2.8125C2.8125 2.51413 2.93103 2.22798 3.142 2.01701C3.35298 1.80603 3.63913 1.6875 3.9375 1.6875H10.6875C10.8372 1.68666 10.9811 1.74475 11.0883 1.84922L15.0188 5.78672C15.0727 5.83849 15.1155 5.90075 15.1445 5.96967C15.1736 6.03859 15.1882 6.11272 15.1875 6.1875V9C15.1875 9.14919 15.1282 9.29226 15.0227 9.39775C14.9173 9.50324 14.7742 9.5625 14.625 9.5625C14.4758 9.5625 14.3327 9.50324 14.2273 9.39775C14.1218 9.29226 14.0625 9.14919 14.0625 9V6.75ZM11.25 5.625H13.268L11.25 3.60703V5.625ZM9.11953 12.9234C8.90156 12.8672 8.51484 12.7617 8.4375 12.6703V12.6563C8.4375 12.4242 8.60625 12.3047 8.92969 12.3047C9.18094 12.3098 9.42526 12.388 9.63281 12.5297H9.62578C9.72783 12.6107 9.85407 12.6553 9.98438 12.6563C10.1336 12.6563 10.2766 12.597 10.3821 12.4915C10.4876 12.386 10.5469 12.2429 10.5469 12.0938C10.5482 12.0114 10.5306 11.9298 10.4952 11.8554C10.4598 11.781 10.4077 11.7158 10.343 11.6648C9.93726 11.3536 9.44104 11.1832 8.92969 11.1797C7.98047 11.1797 7.3125 11.7844 7.3125 12.6563C7.3125 13.5281 8.22656 13.8516 8.83125 14.0133C9.07031 14.0766 9.32344 14.1398 9.47813 14.2313C9.63281 14.3227 9.5625 14.3016 9.5625 14.3438C9.5625 14.3859 9.5625 14.6953 8.92969 14.6953C8.67843 14.6902 8.43411 14.612 8.22656 14.4703H8.23359C8.13155 14.3893 8.00531 14.3447 7.875 14.3438C7.72582 14.3438 7.58274 14.403 7.47725 14.5085C7.37176 14.614 7.3125 14.7571 7.3125 14.9063C7.31113 14.9886 7.32882 15.0702 7.36419 15.1446C7.39956 15.219 7.45166 15.2842 7.51641 15.3352C7.92212 15.6464 8.41834 15.8168 8.92969 15.8203C10.0266 15.8203 10.6875 15.2648 10.6875 14.3438C10.6875 13.4227 9.70312 13.0781 9.11953 12.9234Z" fill="#F8F8F8"/>
</g>
</svg>
