<svg width="18" height="18" viewBox="0 0 18 18" fill="none" xmlns="http://www.w3.org/2000/svg">
<g opacity="0.86">
<path d="M9 1.84976C12.9426 1.84976 16.1502 5.05735 16.1502 9C16.1502 12.9427 12.9426 16.1502 9 16.1502C5.05735 16.1502 1.84976 12.9427 1.84976 9C1.84976 5.05735 5.05735 1.84976 9 1.84976ZM9 0C4.02944 0 0 4.02944 0 9C0 13.9706 4.02944 18 9 18C13.9706 18 18 13.9706 18 9C18 4.02943 13.9706 0 9 0Z" fill="#FAFAFA"/>
<path d="M9.23334 4.67798H8.71951V14.2073H9.23334V4.67798Z" fill="#FAFAFA"/>
<path d="M9.15809 10.5385L8.7948 10.1752L11.3709 7.59907V6.18506H11.8848V7.81183L9.15809 10.5385Z" fill="#FAFAFA"/>
<path d="M8.7948 12.2183L6.29092 9.71489V8.07056H6.80475V9.50213L9.15809 11.855L8.7948 12.2183Z" fill="#FAFAFA"/>
<path d="M6.54831 9.07098H6.54831C6.01518 9.07098 5.57898 8.63478 5.57898 8.10165V8.10165C5.57898 7.56852 6.01518 7.13232 6.54831 7.13232H6.54831C7.08144 7.13232 7.51764 7.56852 7.51764 8.10165V8.10165C7.51764 8.63478 7.08144 9.07098 6.54831 9.07098Z" fill="#FAFAFA"/>
<path d="M8.97604 15.1767H8.97604C8.44291 15.1767 8.00671 14.7405 8.00671 14.2074V14.2074C8.00671 13.6742 8.44291 13.238 8.97604 13.238H8.97604C9.50917 13.238 9.94537 13.6742 9.94537 14.2074V14.2074C9.94537 14.7405 9.50917 15.1767 8.97604 15.1767Z" fill="#FAFAFA"/>
<path d="M12.421 5.17603H10.8337V6.7633H12.421V5.17603Z" fill="#FAFAFA"/>
<path d="M8.97604 2.82324L7.90509 4.67818H10.047L8.97604 2.82324Z" fill="#FAFAFA"/>
</g>
</svg>
