<svg width="13" height="15" viewBox="0 0 13 15" fill="none" xmlns="http://www.w3.org/2000/svg">
<path d="M0 13.6495C6.36908e-06 13.778 0.0547024 13.9022 0.153973 13.999C0.253243 14.0959 0.390372 14.1589 0.54 14.1764L0.625 14.1813L11.4617 14.1813C11.62 14.1813 11.7724 14.1301 11.8882 14.0381C12.0039 13.9461 12.0742 13.8202 12.085 13.6858C12.0958 13.5513 12.0462 13.4184 11.9463 13.3139C11.8464 13.2094 11.7035 13.1411 11.5467 13.1227L11.4617 13.1177L0.625 13.1177C0.45924 13.1177 0.300268 13.1737 0.183058 13.2735C0.0658479 13.3732 0 13.5085 0 13.6495ZM1.50333 7.54943L1.43333 7.60119C1.32727 7.69127 1.26277 7.81079 1.25161 7.93795C1.24044 8.06511 1.28334 8.19145 1.3725 8.29395L1.43333 8.35351L5.5975 11.896C5.70332 11.9861 5.84362 12.0408 5.99287 12.0503C6.14213 12.0598 6.29044 12.0234 6.41083 11.9478L6.48166 11.8967L10.6508 8.35351C10.7629 8.25874 10.8287 8.13134 10.8349 7.99698C10.841 7.86261 10.7871 7.73124 10.6841 7.62932C10.581 7.5274 10.4363 7.4625 10.2792 7.44768C10.1222 7.43285 9.96433 7.46921 9.8375 7.54943L9.7675 7.60119L6.67 10.2318L6.67 0.5318C6.67002 0.403396 6.61544 0.279323 6.51634 0.182488C6.41724 0.0856534 6.28031 0.0225975 6.13083 0.00496344L6.04583 0C5.89468 2.88478e-05 5.74865 0.046668 5.63481 0.131279C5.52097 0.21589 5.44702 0.332739 5.42666 0.460184L5.42083 0.5318L5.42 10.2417L2.31667 7.60119C2.21084 7.51112 2.07055 7.45636 1.92129 7.44687C1.77203 7.43737 1.62372 7.47376 1.50333 7.54943L1.43333 7.60119L1.50333 7.54943Z" fill="#FAFAFA"/>
</svg>
