<svg width="15" height="15" viewBox="0 0 15 15" fill="none" xmlns="http://www.w3.org/2000/svg">
<path d="M12.1875 13.2812C12.1875 13.3945 12.1465 13.504 12.072 13.5893C11.9976 13.6747 11.8947 13.7302 11.7825 13.7456L11.7188 13.75H3.28125C3.16249 13.75 3.04816 13.7048 2.96138 13.6238C2.8746 13.5427 2.82183 13.4317 2.81373 13.3132C2.80564 13.1947 2.84282 13.0776 2.91777 12.9854C2.99272 12.8933 3.09984 12.8331 3.2175 12.8169L3.28125 12.8125H11.7188C11.8431 12.8125 11.9623 12.8619 12.0502 12.9498C12.1381 13.0377 12.1875 13.1569 12.1875 13.2812V13.2812ZM11.0081 7.63125L11.0669 7.68313C11.1745 7.79075 11.2391 7.93393 11.2487 8.08582C11.2582 8.23772 11.212 8.38787 11.1187 8.50812L11.0669 8.56687L7.94312 11.69C7.8355 11.7976 7.69232 11.8623 7.54043 11.8718C7.38853 11.8814 7.23838 11.8352 7.11812 11.7419L7.06 11.69L3.9325 8.5675C3.81789 8.45559 3.75062 8.30394 3.74459 8.14386C3.73856 7.98378 3.79422 7.8275 3.90009 7.70728C4.00595 7.58705 4.15394 7.51207 4.31349 7.49781C4.47305 7.48354 4.63199 7.53109 4.7575 7.63062L4.81625 7.6825L6.875 9.73813L6.875 1.875C6.87502 1.72192 6.93122 1.57416 7.03295 1.45977C7.13467 1.34537 7.27484 1.27229 7.42688 1.25437L7.5 1.25C7.65308 1.25002 7.80084 1.30622 7.91523 1.40795C8.02963 1.50967 8.10271 1.64984 8.12063 1.80187L8.125 1.875V9.74L10.1831 7.68313C10.2907 7.57551 10.4339 7.51087 10.5858 7.50132C10.7377 7.49177 10.8879 7.53797 11.0081 7.63125L11.0669 7.68313L11.0081 7.63125V7.63125Z" fill="white"/>
</svg>
