<svg width="16" height="16" viewBox="0 0 16 16" fill="none" xmlns="http://www.w3.org/2000/svg">
<path d="M7.55098 3.7841C6.89914 3.78197 6.27305 4.03845 5.81004 4.49728C5.34703 4.95611 5.08488 5.57984 5.0811 6.23167L6.33109 6.23734C6.33411 5.57048 6.87907 5.03107 7.54531 5.03409C8.21155 5.03711 8.75159 5.58144 8.74856 6.24831C8.74687 6.62206 8.44502 6.89194 7.98396 7.2611C7.83336 7.37798 7.68866 7.50227 7.55039 7.63352C6.92382 8.2538 6.90269 8.91559 6.90236 8.98934L6.90047 9.40621L8.15046 9.41188L8.15162 9.01626C8.1523 9.00626 8.17334 8.7751 8.4295 8.52189C8.52367 8.42856 8.64222 8.33535 8.76517 8.23716C9.25383 7.84499 9.99339 7.25272 9.99793 6.25398C10.0004 5.60214 9.7441 4.97596 9.28534 4.5129C8.82657 4.04983 8.20281 3.78772 7.55098 3.7841ZM6.89763 10.0312L8.14762 10.0369L8.14195 11.2869L6.89196 11.2812L6.89763 10.0312Z" fill="#FAFAFA" fill-opacity="0.8"/>
<path d="M7.56231 1.28421C4.1161 1.26858 1.29966 4.05958 1.28403 7.50579C1.26839 10.952 4.05939 13.7684 7.50561 13.7841C10.9518 13.7997 13.7683 11.0087 13.7839 7.5625C13.7995 4.11629 11.0085 1.29985 7.56231 1.28421ZM7.51128 12.5341C4.75443 12.5216 2.52151 10.2683 2.53401 7.51147C2.54652 4.75462 4.7998 2.52169 7.55664 2.5342C10.3135 2.54671 12.5464 4.79998 12.5339 7.55683C12.5214 10.3137 10.2681 12.5466 7.51128 12.5341Z" fill="#FAFAFA" fill-opacity="0.8"/>
</svg>
