<svg width="12" height="12" viewBox="0 0 12 12" fill="none" xmlns="http://www.w3.org/2000/svg">
<g clip-path="url(#clip0_5194_11082)">
<path d="M11.6265 1.46013L10.5391 0.372633C10.0422 -0.124218 9.23386 -0.124194 8.73701 0.372633C8.26922 0.840468 1.12415 7.98606 0.646662 8.46357C0.595803 8.51443 0.561725 8.58203 0.549584 8.64814L0.00588082 11.5844C-0.0151895 11.6982 0.0210918 11.8152 0.102959 11.897C0.18492 11.979 0.301873 12.0152 0.415568 11.9941L3.35156 11.4503C3.41941 11.4377 3.48612 11.4033 3.53613 11.3532L11.6265 3.26231C12.1245 2.76431 12.1245 1.9582 11.6265 1.46013ZM0.790334 11.2096L1.11923 9.43339L2.5664 10.8807L0.790334 11.2096ZM3.28755 10.6074L1.39242 8.7122L8.3114 1.79269L10.2065 3.68796L3.28755 10.6074ZM11.1293 2.76513L10.7037 3.19078L8.80856 1.29551L9.23416 0.869859C9.45684 0.647156 9.81916 0.647133 10.0419 0.869859L11.1293 1.95736C11.3525 2.1806 11.3525 2.54186 11.1293 2.76513Z" fill="#FAFAFA" fill-opacity="0.8"/>
</g>
<defs>
<clipPath id="clip0_5194_11082">
<rect width="12" height="12" fill="white"/>
</clipPath>
</defs>
</svg>
