<svg width="16" height="16" viewBox="0 0 16 16" fill="none" xmlns="http://www.w3.org/2000/svg">
<path fill-rule="evenodd" clip-rule="evenodd" d="M5.803 10.1719C5.70924 10.0782 5.58208 10.0255 5.4495 10.0255C5.31692 10.0255 5.18976 10.0782 5.096 10.1719L1 14.2679V11.4999C1 11.3673 0.947322 11.2401 0.853553 11.1463C0.759785 11.0526 0.632608 10.9999 0.5 10.9999C0.367392 10.9999 0.240215 11.0526 0.146447 11.1463C0.0526784 11.2401 0 11.3673 0 11.4999V15.4749C0 15.6075 0.0526784 15.7347 0.146447 15.8285C0.240215 15.9222 0.367392 15.9749 0.5 15.9749H4.475C4.60761 15.9749 4.73478 15.9222 4.82855 15.8285C4.92232 15.7347 4.975 15.6075 4.975 15.4749C4.975 15.3423 4.92232 15.2151 4.82855 15.1214C4.73478 15.0276 4.60761 14.9749 4.475 14.9749H1.707L5.803 10.8789C5.89674 10.7851 5.94939 10.658 5.94939 10.5254C5.94939 10.3928 5.89674 10.2657 5.803 10.1719ZM10.147 5.8279C10.2408 5.92164 10.3679 5.9743 10.5005 5.9743C10.6331 5.9743 10.7602 5.92164 10.854 5.8279L14.95 1.7319V4.4999C14.95 4.63251 15.0027 4.75969 15.0964 4.85346C15.1902 4.94722 15.3174 4.9999 15.45 4.9999C15.5826 4.9999 15.7098 4.94722 15.8036 4.85346C15.8973 4.75969 15.95 4.63251 15.95 4.4999V0.524902C15.95 0.392294 15.8973 0.265117 15.8036 0.171349C15.7098 0.0775808 15.5826 0.0249023 15.45 0.0249023H11.475C11.3424 0.0249023 11.2152 0.0775808 11.1214 0.171349C11.0277 0.265117 10.975 0.392294 10.975 0.524902C10.975 0.657511 11.0277 0.784688 11.1214 0.878456C11.2152 0.972224 11.3424 1.0249 11.475 1.0249H14.243L10.147 5.1209C10.0533 5.21467 10.0006 5.34182 10.0006 5.4744C10.0006 5.60699 10.0533 5.73414 10.147 5.8279Z" fill="#F8F8F8"/>
</svg>
