<svg width="20" height="20" viewBox="0 0 20 20" fill="none" xmlns="http://www.w3.org/2000/svg">
<g clip-path="url(#clip0_5955_12525)">
<path d="M0.504368 5.56218C0.277168 5.56218 0.0795682 5.40138 0.0183682 5.16138C-0.0456318 4.91058 0.0587682 4.65178 0.271968 4.53178L8.08997 0.133777C8.24437 0.0469766 8.41837 0.000976562 8.59237 0.000976562C9.19237 0.000976562 9.68077 0.528576 9.68077 1.17738V3.87138C9.68077 4.49338 9.23077 5.00938 8.65637 5.04578L0.535168 5.56138C0.524768 5.56178 0.514768 5.56218 0.504368 5.56218ZM8.59237 0.639776C8.51277 0.639776 8.43317 0.660576 8.36277 0.700576L0.900368 4.89858L8.62157 4.40818C8.88437 4.39138 9.08997 4.15578 9.08997 3.87138V1.17738C9.08997 0.880976 8.86677 0.639776 8.59237 0.639776Z" fill="#FAFAFA" fill-opacity="0.4"/>
<path d="M19.4952 5.56218C19.4852 5.56218 19.4748 5.56178 19.4644 5.56138L11.3432 5.04578C10.7688 5.00938 10.3188 4.49338 10.3188 3.87138V1.17738C10.3188 0.528576 10.8072 0.000976562 11.4072 0.000976562C11.5816 0.000976562 11.7552 0.0469766 11.9096 0.133777L19.7272 4.53178C19.9404 4.65178 20.0448 4.91058 19.9808 5.16138C19.9196 5.40138 19.7224 5.56218 19.4952 5.56218ZM11.4072 0.639776C11.1328 0.639776 10.9096 0.880976 10.9096 1.17738V3.87138C10.9096 4.15578 11.1152 4.39138 11.378 4.40818L19.0992 4.89858L11.6368 0.700176C11.5664 0.660576 11.4868 0.639776 11.4072 0.639776Z" fill="#FAFAFA" fill-opacity="0.4"/>
<path d="M18.5356 20.0004H1.46364C0.658843 20.0004 0.00404358 19.2928 0.00404358 18.4228C0.00404358 17.5528 0.658843 16.8452 1.46364 16.8452H18.5356C19.3404 16.8452 19.9952 17.5528 19.9952 18.4228C19.9952 19.2928 19.3404 20.0004 18.5356 20.0004ZM1.46364 17.4748C0.980043 17.4748 0.586444 17.9 0.586444 18.4228C0.586444 18.9456 0.980043 19.3708 1.46364 19.3708H18.5356C19.0192 19.3708 19.4128 18.9456 19.4128 18.4228C19.4128 17.9 19.0192 17.4748 18.5356 17.4748H1.46364Z" fill="#FAFAFA" fill-opacity="0.4"/>
<path d="M10.0005 16.0851C9.30365 16.0851 8.73645 15.4723 8.73645 14.7187V7.15546C8.73645 6.40226 9.30365 5.78906 10.0005 5.78906C10.6977 5.78906 11.2645 6.40186 11.2645 7.15546V14.7191C11.2645 15.4723 10.6977 16.0851 10.0005 16.0851ZM10.0005 6.41826C9.62445 6.41826 9.31885 6.74906 9.31885 7.15506V14.7187C9.31885 15.1251 9.62485 15.4555 10.0005 15.4555C10.3765 15.4555 10.6825 15.1247 10.6825 14.7187V7.15546C10.6825 6.74906 10.3765 6.41826 10.0005 6.41826Z" fill="#FAFAFA" fill-opacity="0.4"/>
<path d="M16.5627 16.0851C15.8655 16.0851 15.2987 15.4723 15.2987 14.7187V7.15546C15.2987 6.40226 15.8659 5.78906 16.5627 5.78906C17.2599 5.78906 17.8267 6.40186 17.8267 7.15546V14.7191C17.8271 15.4723 17.2599 16.0851 16.5627 16.0851ZM16.5627 6.41826C16.1867 6.41826 15.8811 6.74906 15.8811 7.15506V14.7187C15.8811 15.1251 16.1871 15.4555 16.5627 15.4555C16.9387 15.4555 17.2447 15.1247 17.2447 14.7187V7.15546C17.2447 6.74906 16.9387 6.41826 16.5627 6.41826Z" fill="#FAFAFA" fill-opacity="0.4"/>
<path d="M3.43833 16.0851C2.74113 16.0851 2.17433 15.4723 2.17433 14.7187V7.15546C2.17433 6.40226 2.74153 5.78906 3.43833 5.78906C4.13513 5.78906 4.70233 6.40186 4.70233 7.15546V14.7191C4.70233 15.4723 4.13513 16.0851 3.43833 16.0851ZM3.43833 6.41826C3.06233 6.41826 2.75633 6.74906 2.75633 7.15506V14.7187C2.75633 15.1251 3.06233 15.4555 3.43833 15.4555C3.81433 15.4555 4.11993 15.1247 4.11993 14.7187V7.15546C4.11993 6.74906 3.81393 6.41826 3.43833 6.41826Z" fill="#FAFAFA" fill-opacity="0.4"/>
</g>
<defs>
<clipPath id="clip0_5955_12525">
<rect width="20" height="20" fill="white"/>
</clipPath>
</defs>
</svg>
