<svg width="8" height="10" viewBox="0 0 8 10" fill="none" xmlns="http://www.w3.org/2000/svg">
<path d="M4 0C2.6215 0 1.5 1.1215 1.5 2.5V3.5H1C0.4485 3.5 0 3.9485 0 4.5V9C0 9.5515 0.4485 10 1 10H7C7.5515 10 8 9.5515 8 9V4.5C8 3.9485 7.5515 3.5 7 3.5H6.5V2.5C6.5 1.1215 5.3785 0 4 0ZM2.5 2.5C2.5 1.673 3.173 1 4 1C4.827 1 5.5 1.673 5.5 2.5V3.5H2.5V2.5ZM7.001 9H4.5V7.861C4.7975 7.6875 5 7.3685 5 7C5 6.4485 4.5515 6 4 6C3.4485 6 3 6.4485 3 7C3 7.368 3.2025 7.6875 3.5 7.861V9H1V4.5H7L7.001 9Z" fill="#FAFAFA" fill-opacity="0.8"/>
</svg>
