<svg width="17" height="17" viewBox="0 0 17 17" fill="none" xmlns="http://www.w3.org/2000/svg">
<g clip-path="url(#clip0_4609_15160)">
<path d="M13.0434 9.91061C12.8461 9.91061 12.6603 9.95973 12.4994 10.0459C12.3559 9.54623 11.8751 9.17796 11.3059 9.17796C11.0823 9.17796 10.8738 9.24108 10.6991 9.34958C10.5203 8.98892 10.1368 8.73892 9.69187 8.73892C9.51227 8.73892 9.34749 8.77965 9.1936 8.85192V7.24304C9.1936 6.61177 8.67479 6.09796 8.04006 6.09766C7.41757 6.09766 6.88522 6.61692 6.88522 7.24304V10.9014C6.50049 10.5053 5.86118 10.4465 5.41674 10.7708C4.93333 11.1235 4.82133 11.7879 5.15493 12.2833L7.19296 15.3023V15.6643C7.19296 15.8272 7.2369 15.9801 7.31385 16.1126C7.23902 16.1946 7.19296 16.3034 7.19296 16.4232V17.5386C7.19296 17.7934 7.39968 18.0001 7.65464 18.0001H13.3102C13.5651 18.0001 13.7719 17.7934 13.7719 17.5386V16.4232C13.7719 16.2988 13.7224 16.1861 13.6424 16.1031C13.7207 15.9692 13.7657 15.8157 13.7657 15.654H13.7719V15.1651L14.2031 14.2682C14.2231 14.2266 14.2335 14.181 14.2335 14.1349V11.0448C14.2335 10.4194 13.6993 9.91061 13.0434 9.91061ZM5.66343 11.9397C5.51539 11.7198 5.56659 11.4248 5.78162 11.2679C6.015 11.0976 6.35498 11.1625 6.50641 11.4095L6.93242 12.1049C7.00448 12.2224 7.14476 12.2776 7.27745 12.2403C7.41007 12.2029 7.50071 12.0819 7.50071 11.9441V7.243C7.50071 6.95804 7.75671 6.713 8.03964 6.713C8.33515 6.71316 8.57796 6.95092 8.57796 7.243V11.5502C8.57796 11.7201 8.71577 11.8579 8.88574 11.8579C9.05571 11.8579 9.19352 11.7201 9.19352 11.5502V9.80369C9.19352 9.55588 9.41809 9.35423 9.69367 9.35423C9.96926 9.35423 10.1938 9.55584 10.1938 9.80369V11.7525C10.1938 11.9224 10.3316 12.0601 10.5016 12.0601C10.6716 12.0601 10.8094 11.9224 10.8094 11.7525V10.243C10.8094 9.99504 11.0309 9.79331 11.3066 9.79331C11.6492 9.79331 11.9251 10.046 11.9251 10.3567V12.1489C11.9251 12.3188 12.0629 12.4566 12.2329 12.4566C12.4029 12.4566 12.5407 12.3188 12.5407 12.1489V10.9757C12.5407 10.7277 12.7667 10.526 13.0424 10.526C13.3588 10.526 13.6179 10.7587 13.6179 11.0448V14.0648L13.1867 14.9618C13.1666 15.0034 13.1562 15.0489 13.1562 15.0951V15.654H13.1501C13.1501 15.8463 12.9984 15.9616 12.812 15.9616H8.13667C7.95023 15.9616 7.80853 15.8286 7.80853 15.6644V15.2085C7.80853 15.1472 7.7853 15.0875 7.75109 15.0366L5.66343 11.9397ZM13.1563 17.3847H7.80853V16.577H13.1563V17.3847Z" fill="#FAFAFA"/>
<path d="M14.2247 5.8308C13.7089 5.8308 13.2736 6.18007 13.1433 6.65384H11.0769V4.9178C11.0769 4.83796 11.0756 4.76042 11.0578 4.68592L12.5973 3.16411C12.7581 3.25307 12.943 3.30396 13.1396 3.30396C13.7579 3.30396 14.261 2.80215 14.261 2.18538C14.261 1.56861 13.7579 1.06681 13.1396 1.06681C12.5212 1.06681 12.0181 1.56861 12.0181 2.18538C12.0181 2.38234 12.0696 2.56746 12.1596 2.72834L10.7396 4.14926C10.635 4.06184 10.5 3.99546 10.3846 3.95623V2.42242C10.3846 1.08669 9.3093 0 7.99999 0C6.69069 0 5.61538 1.08669 5.61538 2.42242V3.95623C5.49999 3.9955 5.36149 4.06196 5.25676 4.14946L3.82969 2.73438C3.92176 2.57207 3.97461 2.3848 3.97461 2.18538C3.97461 1.56861 3.47153 1.06681 2.85319 1.06681C2.2348 1.06681 1.73172 1.56861 1.73172 2.18538C1.73172 2.80215 2.2348 3.30396 2.85319 3.30396C3.05061 3.30396 3.23615 3.25265 3.39745 3.16292L4.91949 4.68626C4.9018 4.76065 4.88461 4.83807 4.88461 4.9178V6.65384H2.85672C2.72642 6.18003 2.29111 5.8308 1.7753 5.8308C1.15692 5.8308 0.653839 6.33257 0.653839 6.94941C0.653839 7.56618 1.15692 8.06799 1.77526 8.06799C2.28222 8.06799 2.71149 7.73064 2.8498 7.26922H4.88461V8.98095C4.88461 9.53345 5.34249 9.98295 5.89599 9.98295C6.06592 9.98295 6.20745 9.84518 6.20745 9.67526C6.20745 9.50533 6.06403 9.36757 5.89411 9.36757C5.67992 9.36757 5.49995 9.19414 5.49995 8.98095V4.9178C5.49995 4.70465 5.6893 4.53846 5.90349 4.53846H10.0897C10.3039 4.53846 10.4615 4.70465 10.4615 4.9178V8.02257C10.4615 8.19249 10.5993 8.33026 10.7692 8.33026C10.9391 8.33026 11.0769 8.19249 11.0769 8.02257V7.26922H13.1501C13.2885 7.73061 13.7177 8.06799 14.2247 8.06799C14.843 8.06799 15.3461 7.56618 15.3461 6.94941C15.3461 6.33257 14.8431 5.8308 14.2247 5.8308ZM13.1396 1.68219C13.4186 1.68219 13.6456 1.90792 13.6456 2.18538C13.6456 2.46284 13.4186 2.68857 13.1396 2.68857C12.8605 2.68857 12.6335 2.46284 12.6335 2.18538C12.6335 1.90792 12.8605 1.68219 13.1396 1.68219ZM2.34711 2.18538C2.34711 1.90792 2.57411 1.68219 2.85319 1.68219C3.13222 1.68219 3.35922 1.90792 3.35922 2.18538C3.35922 2.46284 3.13222 2.68857 2.85319 2.68857C2.57415 2.68857 2.34711 2.46284 2.34711 2.18538ZM1.77526 7.45261C1.49622 7.45261 1.26922 7.22688 1.26922 6.94941C1.26922 6.67192 1.49622 6.44618 1.77526 6.44618C2.05434 6.44618 2.28134 6.67192 2.28134 6.94941C2.28134 7.22684 2.05434 7.45261 1.77526 7.45261ZM9.76922 3.92307H6.23076V2.42242C6.23076 1.426 7.02999 0.615384 7.99999 0.615384C8.97003 0.615384 9.76922 1.426 9.76922 2.42242V3.92307ZM14.2247 7.45261C13.9456 7.45261 13.7186 7.22688 13.7186 6.94941C13.7186 6.67192 13.9456 6.44618 14.2247 6.44618C14.5038 6.44618 14.7308 6.67192 14.7308 6.94941C14.7308 7.22684 14.5038 7.45261 14.2247 7.45261Z" fill="#FAFAFA"/>
</g>
<defs>
<clipPath id="clip0_4609_15160">
<rect width="18" height="18" fill="white" transform="translate(-1)"/>
</clipPath>
</defs>
</svg>
