<svg width="16" height="16" viewBox="0 0 16 16" fill="none" xmlns="http://www.w3.org/2000/svg">
<path d="M1.33331 12.0003H5.99998V13.3337H1.33331V12.0003ZM1.33331 7.33367H7.33331V8.667H1.33331V7.33367ZM1.33331 2.66699H14.6667V4.00033H1.33331V2.66699ZM13.7826 8.68367L14.5533 8.423L15.22 9.57767L14.6093 10.1143C14.6862 10.4788 14.6862 10.8552 14.6093 11.2197L15.22 11.7563L14.5533 12.911L13.7826 12.6503C13.5093 12.897 13.184 13.087 12.826 13.2037L12.6666 14.0003H11.3333L11.1733 13.203C10.8195 13.0874 10.4938 12.8989 10.2173 12.6497L9.44665 12.911L8.77998 11.7563L9.39065 11.2197C9.31378 10.8552 9.31378 10.4788 9.39065 10.1143L8.77998 9.57767L9.44665 8.423L10.2173 8.68367C10.4906 8.437 10.816 8.247 11.174 8.13033L11.3333 7.33367H12.6666L12.8266 8.131C13.184 8.247 13.5093 8.43767 13.7826 8.68433V8.68367ZM12 12.0003C12.3536 12.0003 12.6927 11.8599 12.9428 11.6098C13.1929 11.3597 13.3333 11.0206 13.3333 10.667C13.3333 10.3134 13.1929 9.97427 12.9428 9.7242C12.6927 9.47413 12.3536 9.33367 12 9.33367C11.6464 9.33367 11.3072 9.47413 11.0572 9.7242C10.8071 9.97427 10.6666 10.3134 10.6666 10.667C10.6666 11.0206 10.8071 11.3597 11.0572 11.6098C11.3072 11.8599 11.6464 12.0003 12 12.0003Z" fill="#FAFAFA"/>
</svg>
