<svg width="16" height="16" viewBox="0 0 16 16" fill="none" xmlns="http://www.w3.org/2000/svg">
<g clip-path="url(#clip0_5789_11604)">
<path d="M0 15.6606C0 15.8545 0.135977 16 0.31728 16C0.498584 16 0.634561 15.8545 0.634561 15.6606C0.634561 14.4969 1.26912 13.5272 2.22096 13.0424C2.53824 13.2848 2.94618 13.4303 3.35411 13.4303C3.76204 13.4303 4.16997 13.2848 4.48725 13.0424C4.75921 13.1879 5.03116 13.3818 5.25779 13.6242C5.75637 14.1576 6.07365 14.8848 6.07365 15.6606C6.07365 15.8545 6.20963 16 6.39093 16C6.57224 16 6.70822 15.8545 6.70822 15.6606C6.70822 14.6909 6.34561 13.8182 5.75637 13.1394C5.52975 12.8969 5.30312 12.703 5.03116 12.5576C5.34844 12.1697 5.52975 11.6848 5.52975 11.103C5.52975 9.8424 4.5779 8.82422 3.39943 8.82422C2.22096 8.82422 1.26912 9.8424 1.26912 11.103C1.26912 11.6363 1.45043 12.1212 1.76771 12.5576C0.634561 13.1879 0 14.3515 0 15.6606ZM3.30878 9.50301C4.12465 9.50301 4.80453 10.2303 4.80453 11.103C4.80453 11.9757 4.12465 12.703 3.30878 12.703C2.49292 12.703 1.81303 12.0242 1.81303 11.1515C1.81303 10.2303 2.49292 9.50301 3.30878 9.50301Z" fill="#FAFAFA"/>
<path d="M9.3371 15.6606C9.3371 15.8545 9.47307 16 9.65438 16C9.83568 16 9.97166 15.8545 9.97166 15.6606C9.97166 14.4969 10.6062 13.5272 11.5581 13.0424C11.8753 13.2848 12.2833 13.4303 12.6912 13.4303C13.0991 13.4303 13.5071 13.2848 13.8243 13.0424C14.0963 13.1879 14.3683 13.3818 14.5949 13.6242C15.0935 14.1576 15.4108 14.8848 15.4108 15.6606C15.4108 15.8545 15.5467 16 15.728 16C15.9093 16 16.0453 15.8545 16.0453 15.6606C16.0453 14.6909 15.6827 13.8182 15.0935 13.1394C14.8668 12.8969 14.6402 12.703 14.3683 12.5576C14.6855 12.1697 14.8668 11.6848 14.8668 11.103C14.8668 9.8424 13.915 8.82422 12.7365 8.82422C11.5581 8.82422 10.6062 9.8424 10.6062 11.103C10.6062 11.6363 10.7875 12.1212 11.1048 12.5576C9.97166 13.1879 9.3371 14.3515 9.3371 15.6606ZM12.6459 9.50301C13.4617 9.50301 14.1416 10.2303 14.1416 11.103C14.1416 11.9757 13.4617 12.703 12.6459 12.703C11.83 12.703 11.1501 11.9757 11.1501 11.103C11.1501 10.2303 11.83 9.50301 12.6459 9.50301Z" fill="#FAFAFA"/>
<path d="M4.66855 6.78802C4.66855 6.98196 4.80453 7.12742 4.98583 7.12742C5.16713 7.12742 5.30311 6.98196 5.30311 6.78802C5.30311 5.62439 5.93767 4.65469 6.88951 4.16984C7.20679 4.41227 7.61472 4.55772 8.02266 4.55772C8.43059 4.55772 8.83852 4.41227 9.1558 4.16984C9.42776 4.3153 9.69971 4.50924 9.92634 4.75166C10.4249 5.28499 10.7422 6.01227 10.7422 6.78802C10.7422 6.98196 10.8782 7.12742 11.0595 7.12742C11.2408 7.12742 11.3768 6.98196 11.3768 6.78802C11.3768 5.81833 11.0142 4.9456 10.4249 4.26681C10.1983 4.02439 9.97166 3.83045 9.69971 3.68499C10.017 3.29711 10.1983 2.81227 10.1983 2.23045C10.1983 0.969842 9.24645 -0.0483398 8.06798 -0.0483398C6.84419 0.000145007 5.89234 1.01833 5.89234 2.27893C5.89234 2.81227 6.07365 3.29711 6.39093 3.73348C5.30311 4.3153 4.66855 5.47893 4.66855 6.78802ZM7.97733 0.630448C8.79319 0.630448 9.47308 1.35772 9.47308 2.23045C9.51841 3.15166 8.83852 3.87893 7.97733 3.87893C7.11614 3.87893 6.48158 3.15166 6.48158 2.27893C6.48158 1.35772 7.16147 0.630448 7.97733 0.630448Z" fill="#FAFAFA"/>
<path d="M8.88385 8.53366H8.29461V7.90336C8.29461 7.70942 8.15863 7.56396 7.97733 7.56396C7.79603 7.56396 7.70537 7.7579 7.70537 7.95184V8.58215H7.11614C6.93484 8.58215 6.79886 8.7276 6.79886 8.92154C6.79886 9.11548 6.93484 9.26093 7.11614 9.26093H7.70537V9.89124C7.70537 10.0852 7.84135 10.2306 8.02266 10.2306C8.20396 10.2306 8.33994 10.0852 8.33994 9.89124V9.21245H8.92917C9.11047 9.21245 9.24645 9.06699 9.24645 8.87305C9.24645 8.67911 9.06515 8.53366 8.88385 8.53366Z" fill="#FAFAFA"/>
</g>
<defs>
<clipPath id="clip0_5789_11604">
<rect width="16" height="16" fill="white"/>
</clipPath>
</defs>
</svg>
