<svg width="18" height="12" viewBox="0 0 18 12" fill="none" xmlns="http://www.w3.org/2000/svg">
<path d="M9.00007 9.125C4.87506 9.125 4.87506 2.875 9.00007 2.875C13.0782 2.875 13.2545 9.125 9.00007 9.125ZM9.00007 4.125C6.50006 4.125 6.50006 7.875 9.00007 7.875C11.5001 7.875 11.5001 4.125 9.00007 4.125Z" fill="#FAFAFA"/>
<path d="M9.00003 11.625C5.90691 11.625 2.94503 9.98187 0.875033 7.11625C0.639712 6.79163 0.513 6.40094 0.513 6C0.513 5.59906 0.639712 5.20837 0.875033 4.88375C2.94503 2.01812 5.90691 0.375 9.00003 0.375C12.0932 0.375 15.055 2.01812 17.125 4.88375C17.3604 5.20837 17.4871 5.59906 17.4871 6C17.4871 6.40094 17.3604 6.79163 17.125 7.11625C15.055 9.98187 12.0932 11.625 9.00003 11.625ZM1.88566 6.38375C3.74691 8.9575 6.27316 10.375 9.00003 10.375C11.7269 10.375 14.2532 8.9575 16.1144 6.38375C16.1954 6.27206 16.239 6.13764 16.239 5.99969C16.239 5.86174 16.1954 5.72732 16.1144 5.61563C14.2532 3.0425 11.7269 1.625 9.00003 1.625C6.27316 1.625 3.74691 3.0425 1.88566 5.61625C1.80469 5.72794 1.7611 5.86236 1.7611 6.00031C1.7611 6.13826 1.80469 6.27268 1.88566 6.38437V6.38375Z" fill="#FAFAFA"/>
</svg>
