<svg width="12" height="12" viewBox="0 0 12 12" fill="none" xmlns="http://www.w3.org/2000/svg">
<path d="M6.01101 9.75502e-06C7.61429 0.00288878 9.06997 0.634679 10.1447 1.66174L11.0088 0.79767C11.3746 0.431888 12 0.690953 12 1.20826V4.45162C12 4.7723 11.74 5.03226 11.4194 5.03226H8.17599C7.65869 5.03226 7.39962 4.40684 7.7654 4.04103L8.77548 3.03095C8.02877 2.33178 7.06256 1.94449 6.03605 1.93564C3.80061 1.91633 1.9163 3.7254 1.93563 6.03504C1.95397 8.22603 3.73026 10.0645 6 10.0645C6.99501 10.0645 7.93541 9.7094 8.67651 9.05913C8.79126 8.95846 8.96456 8.96458 9.07251 9.07251L10.0321 10.0321C10.1499 10.1499 10.1441 10.3421 10.0204 10.4538C8.9565 11.4148 7.5466 12 6 12C2.68631 12 2.41937e-05 9.31372 1.62521e-10 6.00005C-2.41934e-05 2.69016 2.70111 -0.00591766 6.01101 9.75502e-06Z" fill="#FAFAFA" fill-opacity="0.7"/>
</svg>
