<svg width="14" height="13" viewBox="0 0 14 13" fill="none" xmlns="http://www.w3.org/2000/svg">
<g opacity="0.4" clip-path="url(#clip0_4621_15011)">
<path d="M13.0931 12.1372L9.86095 8.96463C10.6644 8.0163 11.1484 6.79854 11.1484 5.47168C11.1484 2.45458 8.6478 0 5.57422 0C2.50058 0 0 2.45458 0 5.47168C0 8.48857 2.50058 10.943 5.57422 10.943C6.92592 10.943 8.1666 10.4679 9.13272 9.67931L12.365 12.8519C12.4655 12.9507 12.5973 13 12.729 13C12.8608 13 12.9926 12.9507 13.0932 12.8519C13.2943 12.6546 13.2943 12.3346 13.0931 12.1372ZM1.02984 5.47168C1.02984 3.01197 3.06843 1.01087 5.57422 1.01087C8.07995 1.01087 10.1185 3.01197 10.1185 5.47168C10.1185 7.93118 8.07995 9.93209 5.57422 9.93209C3.06843 9.93209 1.02984 7.93118 1.02984 5.47168Z" fill="white"/>
</g>
<defs>
<clipPath id="clip0_4621_15011">
<rect width="13.244" height="13" fill="white"/>
</clipPath>
</defs>
</svg>
