<svg width="20" height="20" viewBox="0 0 20 20" fill="none" xmlns="http://www.w3.org/2000/svg">
<g clip-path="url(#clip0_5024_14369)">
<path d="M6.7688 20.0201H1.8548C0.832 20.0201 0 19.1201 0 18.0137C0 17.6925 0.0724 17.3721 0.2096 17.0873L8.232 0.411698C8.3896 0.0844984 8.716 -0.0695014 9.0448 0.0288985C9.3736 0.126898 9.5808 0.440498 9.5608 0.808497L8.62 18.1313C8.5628 19.1905 7.7492 20.0201 6.7688 20.0201ZM8.8508 0.630098C8.8168 0.630098 8.7764 0.644898 8.7488 0.702498L0.726 17.3781C0.632 17.5737 0.5824 17.7933 0.5824 18.0137C0.5824 18.7725 1.1532 19.3901 1.8548 19.3901H6.7688C7.4416 19.3901 7.9996 18.8209 8.0388 18.0945L8.9796 0.771297C8.9848 0.678498 8.9256 0.646498 8.89 0.636098C8.8792 0.632898 8.8656 0.630098 8.8508 0.630098Z" fill="white"/>
<path d="M18.0291 20.0199H13.1151C12.1343 20.0199 11.3211 19.1903 11.2635 18.1311L10.3231 0.807856C10.3031 0.439456 10.5103 0.126256 10.8391 0.0282562C11.1679 -0.0697438 11.4943 0.0838562 11.6519 0.411056L19.6747 17.0867C19.8119 17.3715 19.8843 17.6919 19.8843 18.0131C19.8839 19.1199 19.0519 20.0199 18.0291 20.0199ZM11.0331 0.629856C11.0183 0.629856 11.0051 0.632656 10.9943 0.635856C10.9587 0.646656 10.8995 0.678256 10.9047 0.771056L11.8455 18.0939C11.8851 18.8203 12.4427 19.3895 13.1155 19.3895H18.0295C18.7311 19.3895 19.3019 18.7719 19.3019 18.0131C19.3019 17.7927 19.2523 17.5731 19.1583 17.3775L11.1351 0.702256C11.1075 0.644656 11.0671 0.629856 11.0331 0.629856Z" fill="white"/>
</g>
<defs>
<clipPath id="clip0_5024_14369">
<rect width="20" height="20" fill="white"/>
</clipPath>
</defs>
</svg>
