<svg width="16" height="16" viewBox="0 0 16 16" fill="none" xmlns="http://www.w3.org/2000/svg">
<path d="M9.36504 15.5H6.63504C6.46398 15.5 6.29806 15.4416 6.16479 15.3344C6.03151 15.2271 5.93889 15.0776 5.90229 14.9105L5.59704 13.4975C5.18983 13.3191 4.80371 13.096 4.44579 12.8323L3.06804 13.271C2.90496 13.323 2.729 13.3177 2.56938 13.2559C2.40975 13.1941 2.27607 13.0795 2.19054 12.9313L0.822535 10.568C0.737894 10.4196 0.706122 10.2469 0.732417 10.0781C0.758712 9.90926 0.841517 9.75437 0.967285 9.63875L2.03604 8.66375C1.98743 8.22208 1.98743 7.77642 2.03604 7.33475L0.967285 6.362C0.841339 6.24633 0.758421 6.09131 0.732122 5.92234C0.705823 5.75337 0.737702 5.58048 0.822535 5.432L2.18754 3.06725C2.27307 2.91899 2.40675 2.80444 2.56638 2.74264C2.726 2.68084 2.90196 2.6755 3.06504 2.7275L4.44279 3.16625C4.62579 3.03125 4.81629 2.90525 5.01279 2.79125C5.20254 2.68475 5.39754 2.588 5.59704 2.50175L5.90304 1.09025C5.93947 0.923148 6.03191 0.773516 6.16505 0.666162C6.29818 0.558807 6.46401 0.50018 6.63504 0.5H9.36504C9.53606 0.50018 9.70189 0.558807 9.83503 0.666162C9.96816 0.773516 10.0606 0.923148 10.097 1.09025L10.406 2.5025C10.813 2.68092 11.1989 2.90404 11.5565 3.16775L12.935 2.729C13.098 2.67719 13.2738 2.68263 13.4333 2.74442C13.5927 2.80621 13.7263 2.92065 13.8118 3.06875L15.1768 5.4335C15.3508 5.73875 15.2908 6.125 15.032 6.36275L13.9633 7.33775C14.0119 7.77942 14.0119 8.22508 13.9633 8.66675L15.032 9.64175C15.2908 9.88025 15.3508 10.2657 15.1768 10.571L13.8118 12.9357C13.7262 13.084 13.5926 13.1986 13.4329 13.2604C13.2733 13.3222 13.0974 13.3275 12.9343 13.2755L11.5565 12.8368C11.1989 13.1003 10.813 13.3231 10.406 13.5012L10.097 14.9105C10.0605 15.0775 9.96795 15.2269 9.83483 15.3341C9.70171 15.4413 9.53596 15.4999 9.36504 15.5ZM4.71504 11.1718L5.33004 11.6217C5.46879 11.7238 5.61279 11.8175 5.76279 11.903C5.90379 11.9848 6.04779 12.0583 6.19704 12.125L6.89679 12.4318L7.23954 14H8.76204L9.10479 12.431L9.80454 12.1243C10.1098 11.9893 10.4 11.822 10.6693 11.6248L11.2843 11.1747L12.8158 11.6622L13.577 10.3438L12.3898 9.2615L12.4738 8.5025C12.5113 8.17025 12.5113 7.835 12.4738 7.5035L12.3898 6.7445L13.5778 5.66L12.8158 4.34075L11.285 4.82825L10.6693 4.37825C10.3999 4.18002 10.11 4.0113 9.80454 3.875L9.10479 3.56825L8.76204 2H7.23954L6.89454 3.569L6.19704 3.875C5.89117 4.00896 5.60114 4.17648 5.33229 4.3745L4.71654 4.8245L3.18654 4.337L2.42379 5.66L3.61104 6.74075L3.52704 7.5005C3.48954 7.83275 3.48954 8.168 3.52704 8.4995L3.61104 9.2585L2.42379 10.3407L3.18504 11.6593L4.71504 11.1718ZM7.99704 11C7.20139 11 6.43832 10.6839 5.87572 10.1213C5.31311 9.55871 4.99704 8.79565 4.99704 8C4.99704 7.20435 5.31311 6.44129 5.87572 5.87868C6.43832 5.31607 7.20139 5 7.99704 5C8.79269 5 9.55575 5.31607 10.1184 5.87868C10.681 6.44129 10.997 7.20435 10.997 8C10.997 8.79565 10.681 9.55871 10.1184 10.1213C9.55575 10.6839 8.79269 11 7.99704 11ZM7.99704 6.5C7.7033 6.5003 7.41612 6.58683 7.17112 6.74886C6.92612 6.91089 6.73408 7.14128 6.61884 7.41146C6.50359 7.68164 6.4702 7.97971 6.52282 8.26869C6.57543 8.55768 6.71174 8.82485 6.91482 9.03707C7.1179 9.24929 7.37882 9.39721 7.66521 9.46249C7.95159 9.52777 8.25084 9.50752 8.52583 9.40427C8.80082 9.30102 9.03944 9.1193 9.21209 8.88167C9.38474 8.64403 9.48382 8.36094 9.49704 8.0675V8.3675V8C9.49704 7.60218 9.339 7.22064 9.0577 6.93934C8.77639 6.65804 8.39486 6.5 7.99704 6.5Z" fill="#FAFAFA"/>
</svg>
