<svg width="20" height="20" viewBox="0 0 20 20" fill="none" xmlns="http://www.w3.org/2000/svg">
<path d="M5.4814 3.77962C5.4814 4.15562 5.8122 4.46122 6.2182 4.46122H13.7818C14.1882 4.46122 14.5186 4.15522 14.5186 3.77962C14.5186 3.40362 14.1878 3.09762 13.7818 3.09762H6.2186C5.8122 3.09762 5.4814 3.40362 5.4814 3.77962ZM15.1482 3.77962C15.1482 4.47682 14.5354 5.04362 13.7818 5.04362H6.2186C5.4654 5.04362 4.8522 4.47642 4.8522 3.77962C4.8522 3.08282 5.465 2.51562 6.2186 2.51562H13.7822C14.5354 2.51562 15.1482 3.08242 15.1482 3.77962Z" fill="#FAFAFA" fill-opacity="0.4"/>
<path d="M5.4814 6.89046C5.4814 7.26646 5.8122 7.57206 6.2182 7.57206H13.7818C14.1882 7.57206 14.5186 7.26606 14.5186 6.89046C14.5186 6.51446 14.1878 6.20846 13.7818 6.20846H6.2186C5.8122 6.20886 5.4814 6.51446 5.4814 6.89046ZM15.1482 6.89046C15.1482 7.58766 14.5354 8.15446 13.7818 8.15446H6.2186C5.4654 8.15446 4.8522 7.58726 4.8522 6.89046C4.8522 6.19366 5.465 5.62646 6.2186 5.62646H13.7822C14.5354 5.62646 15.1482 6.19366 15.1482 6.89046Z" fill="#FAFAFA" fill-opacity="0.4"/>
<path d="M5.4814 10.0013C5.4814 10.3773 5.8122 10.6833 6.2182 10.6833H13.7818C14.1882 10.6833 14.5186 10.3773 14.5186 10.0013C14.5186 9.6253 14.1878 9.3193 13.7818 9.3193H6.2186C5.8122 9.3193 5.4814 9.6253 5.4814 10.0013ZM15.1482 10.0013C15.1482 10.6985 14.5354 11.2653 13.7818 11.2653H6.2186C5.4654 11.2653 4.8522 10.6981 4.8522 10.0013C4.8522 9.3045 5.465 8.7373 6.2186 8.7373H13.7822C14.5354 8.7373 15.1482 9.3041 15.1482 10.0013Z" fill="#FAFAFA" fill-opacity="0.4"/>
<path d="M5.4814 13.1112C5.4814 13.4872 5.8122 13.7932 6.2182 13.7932H13.7818C14.1882 13.7932 14.5186 13.4872 14.5186 13.1112C14.5186 12.7352 14.1878 12.4296 13.7818 12.4296H6.2186C5.8122 12.4292 5.4814 12.7352 5.4814 13.1112ZM15.1482 13.1112C15.1482 13.8084 14.5354 14.3752 13.7818 14.3752H6.2186C5.4654 14.3752 4.8522 13.808 4.8522 13.1112C4.8522 12.4144 5.465 11.8472 6.2186 11.8472H13.7822C14.5354 11.8468 15.1482 12.414 15.1482 13.1112Z" fill="#FAFAFA" fill-opacity="0.4"/>
<path d="M5.4814 16.2215C5.4814 16.5975 5.8122 16.9035 6.2182 16.9035H13.7818C14.1882 16.9035 14.5186 16.5975 14.5186 16.2215C14.5186 15.8455 14.1878 15.5399 13.7818 15.5399H6.2186C5.8122 15.5399 5.4814 15.8455 5.4814 16.2215ZM15.1482 16.2215C15.1482 16.9187 14.5354 17.4855 13.7818 17.4855H6.2186C5.4654 17.4855 4.8522 16.9183 4.8522 16.2215C4.8522 15.5243 5.465 14.9575 6.2186 14.9575H13.7822C14.5354 14.9575 15.1482 15.5243 15.1482 16.2215Z" fill="#FAFAFA" fill-opacity="0.4"/>
<path d="M17.7729 19.9999H2.22813C1.00053 19.9999 0.00132751 19.0007 0.00132751 17.7731V2.22826C0.00132751 1.00066 1.00053 0.00146484 2.22813 0.00146484H17.7725C19.0005 0.00146484 19.9993 1.00066 19.9993 2.22826V17.7727C19.9997 19.0007 19.0005 19.9999 17.7729 19.9999ZM2.22813 0.583865C1.32133 0.583865 0.583727 1.32146 0.583727 2.22826V17.7727C0.583727 18.6795 1.32133 19.4171 2.22813 19.4171H17.7725C18.6793 19.4171 19.4169 18.6795 19.4169 17.7727V2.22826C19.4169 1.32146 18.6793 0.583865 17.7725 0.583865H2.22813Z" fill="#FAFAFA" fill-opacity="0.4"/>
</svg>
