<svg width="16" height="15" viewBox="0 0 16 15" fill="none" xmlns="http://www.w3.org/2000/svg">
<path d="M3.242 14.3593C3.13432 14.4529 3.00215 14.5139 2.86103 14.535C2.7199 14.5562 2.57567 14.5366 2.44527 14.4787C2.31486 14.4207 2.2037 14.3267 2.12483 14.2078C2.04596 14.0889 2.00266 13.9499 2 13.8073V12.125C1.60218 12.125 1.22064 11.967 0.93934 11.6857C0.658035 11.4044 0.5 11.0228 0.5 10.625V5.375C0.5 4.97718 0.658035 4.59564 0.93934 4.31434C1.22064 4.03304 1.60218 3.875 2 3.875H10.25C10.6478 3.875 11.0294 4.03304 11.3107 4.31434C11.592 4.59564 11.75 4.97718 11.75 5.375V10.625C11.75 11.0228 11.592 11.4044 11.3107 11.6857C11.0294 11.967 10.6478 12.125 10.25 12.125H6.50225L3.242 14.3593ZM3.875 12.0395C3.94334 12.0391 4.01046 12.0213 4.07 11.9877L5.83625 10.7592C5.96195 10.6718 6.11139 10.625 6.2645 10.625H9.5C9.69891 10.625 9.88968 10.546 10.0303 10.4053C10.171 10.2647 10.25 10.0739 10.25 9.875V6.125C10.25 5.92609 10.171 5.73532 10.0303 5.59467C9.88968 5.45402 9.69891 5.375 9.5 5.375H2.75C2.55109 5.375 2.36032 5.45402 2.21967 5.59467C2.07902 5.73532 2 5.92609 2 6.125V9.875C2 10.28 2.32175 10.6115 2.75 10.625C3.0575 10.637 3.28025 10.6873 3.383 10.7945C3.479 10.895 3.48425 11.0645 3.5 11.387C3.50225 11.4343 3.50225 11.5197 3.5 11.6645C3.5 11.764 3.53951 11.8593 3.60983 11.9297C3.68016 12 3.77554 12.0395 3.875 12.0395ZM12.5 8.387C12.4976 8.47948 12.4976 8.57202 12.5 8.6645V8.387C12.515 8.0645 12.521 7.895 12.617 7.7945C12.7197 7.68725 12.9425 7.637 13.25 7.625C13.6782 7.6115 14 7.28 14 6.875V3.125C14 2.92609 13.921 2.73532 13.7803 2.59467C13.6397 2.45402 13.4489 2.375 13.25 2.375H6.5C6.30109 2.375 6.11032 2.45402 5.96967 2.59467C5.82902 2.73532 5.75 2.92609 5.75 3.125H4.25V2.375C4.25 1.97718 4.40803 1.59564 4.68934 1.31434C4.97064 1.03304 5.35217 0.875 5.75 0.875H14C14.3978 0.875 14.7794 1.03304 15.0607 1.31434C15.342 1.59564 15.5 1.97718 15.5 2.375V7.625C15.5 8.02282 15.342 8.40436 15.0607 8.68566C14.7794 8.96696 14.3978 9.125 14 9.125V10.8073C13.9973 10.9499 13.954 11.0889 13.8752 11.2078C13.7963 11.3267 13.6851 11.4207 13.5547 11.4787C13.4243 11.5366 13.2801 11.5562 13.139 11.535C12.9978 11.5139 12.8657 11.4529 12.758 11.3593L12.5 11.1823V8.38775V8.387Z" fill="#FAFAFA"/>
</svg>
