<svg width="20" height="20" viewBox="0 0 20 20" fill="none" xmlns="http://www.w3.org/2000/svg">
<g clip-path="url(#clip0_5868_12213)">
<path d="M6.808 19.9983H1.8656C0.8368 19.9983 0 19.0991 0 17.9939C0 17.6731 0.0728 17.3531 0.2108 17.0683L8.28 0.410659C8.4384 0.0838594 8.7672 -0.0697406 9.0972 0.0282594C9.4276 0.126259 9.6364 0.439459 9.6164 0.807059L8.67 18.1111C8.6124 19.1695 7.7944 19.9983 6.808 19.9983ZM8.9024 0.629059C8.8684 0.629059 8.8276 0.643859 8.7996 0.701459L0.7304 17.3591C0.636 17.5543 0.586 17.7739 0.586 17.9939C0.586 18.7519 1.16 19.3687 1.8656 19.3687H6.808C7.4848 19.3687 8.0456 18.8003 8.0856 18.0743L9.032 0.769859C9.0372 0.677059 8.9776 0.645459 8.942 0.634659C8.9308 0.631859 8.9172 0.629059 8.9024 0.629059Z" fill="#FAFAFA"/>
<path d="M11.1001 20.0008C11.0353 20.0008 10.9689 19.9911 10.9025 19.9715C10.5721 19.8736 10.3633 19.5604 10.3833 19.1928L11.3293 1.88875C11.3873 0.830753 12.2053 0.00195326 13.1917 0.00195326H18.1345C19.1633 0.00155326 20.0001 0.900753 20.0001 2.00595C20.0001 2.32675 19.9273 2.64675 19.7893 2.93155L11.7201 19.5892C11.5933 19.85 11.3581 20.0008 11.1001 20.0008ZM13.1921 0.631153C12.5153 0.631153 11.9545 1.19955 11.9145 1.92555L10.9685 19.2296C10.9633 19.3224 11.0229 19.3544 11.0585 19.3648C11.0941 19.3756 11.1605 19.3808 11.2005 19.2984L19.2697 2.64075C19.3641 2.44555 19.4141 2.22595 19.4141 2.00595C19.4141 1.24795 18.8401 0.631153 18.1345 0.631153H13.1921Z" fill="#FAFAFA"/>
</g>
<defs>
<clipPath id="clip0_5868_12213">
<rect width="20" height="20" fill="white"/>
</clipPath>
</defs>
</svg>
