<svg width="42" height="25" viewBox="0 0 42 25" fill="none" xmlns="http://www.w3.org/2000/svg">
<path d="M29.1667 0.5H12.5C5.88241 0.5 0.500019 5.88239 0.500019 12.5C0.500019 19.1176 5.88241 24.5 12.5 24.5H29.1659C32.3374 24.4948 35.3784 23.2364 37.6262 20.9991C39.8737 18.7621 41.1462 15.7276 41.1667 12.5567V12.4722C41.13 5.86298 35.7562 0.5 29.1667 0.5ZM19.25 12.5C19.25 16.1657 16.1657 19.25 12.5 19.25C8.83429 19.25 5.75002 16.1657 5.75002 12.5C5.75002 8.83427 8.83429 5.75 12.5 5.75C16.1657 5.75 19.25 8.83427 19.25 12.5Z" stroke="#2E9B9B"/>
<path d="M5.00003 12.5C5.00003 8.35786 8.35789 5 12.5 5C16.6422 5 20 8.35786 20 12.5C20 16.6421 16.6422 20 12.5 20C8.35789 20 5.00003 16.6421 5.00003 12.5Z" fill="#FAFAFA" fill-opacity="0.87"/>
</svg>
