<svg width="42" height="25" viewBox="0 0 42 25" fill="none" xmlns="http://www.w3.org/2000/svg">
<path d="M29.1667 0H12.5C5.63333 0 0.0375 5.5875 0 12.4708V12.5583C0.0208826 15.8617 1.3464 19.023 3.68775 21.3534C6.0291 23.6839 9.19655 24.9946 12.5 25H29.1667C36.0604 25 41.6667 19.3937 41.6667 12.5C41.6667 5.60625 36.0604 0 29.1667 0ZM29.1667 18.75C25.7771 18.75 22.9167 15.8896 22.9167 12.5C22.9167 9.11042 25.7771 6.25 29.1667 6.25C32.5563 6.25 35.4167 9.11042 35.4167 12.5C35.4167 15.8896 32.5563 18.75 29.1667 18.75Z" fill="#2E9B9B"/>
</svg>
