<svg width="37" height="22" viewBox="0 0 37 22" fill="none" xmlns="http://www.w3.org/2000/svg">
<path d="M25.6667 0H11C4.95733 0 0.033 4.917 0 10.9743V11.0513C0.0183767 13.9583 1.18483 16.7402 3.24522 18.791C5.30561 20.8418 8.09296 21.9952 11 22H25.6667C31.7332 22 36.6667 17.0665 36.6667 11C36.6667 4.9335 31.7332 0 25.6667 0ZM25.6667 16.5C22.6838 16.5 20.1667 13.9828 20.1667 11C20.1667 8.01717 22.6838 5.5 25.6667 5.5C28.6495 5.5 31.1667 8.01717 31.1667 11C31.1667 13.9828 28.6495 16.5 25.6667 16.5Z" fill="#2E9B9B"/>
<path d="M31.68 10.56C31.68 7.15793 28.9221 4.4 25.52 4.4C22.1179 4.4 19.36 7.15793 19.36 10.56C19.36 13.9621 22.1179 16.72 25.52 16.72C28.9221 16.72 31.68 13.9621 31.68 10.56Z" fill="#FAFAFA"/>
</svg>
