<svg width="42" height="25" viewBox="0 0 42 25" fill="none" xmlns="http://www.w3.org/2000/svg">
<path d="M29.1666 0.5H12.5C5.88235 0.5 0.499958 5.88239 0.499958 12.5C0.499958 19.1176 5.88235 24.5 12.5 24.5H29.1658C32.3373 24.4948 35.3783 23.2364 37.6262 20.9991C39.8736 18.7621 41.1462 15.7276 41.1666 12.5567V12.4722C41.1299 5.86298 35.7562 0.5 29.1666 0.5ZM19.25 12.5C19.25 16.1657 16.1657 19.25 12.5 19.25C8.83423 19.25 5.74996 16.1657 5.74996 12.5C5.74996 8.83427 8.83423 5.75 12.5 5.75C16.1657 5.75 19.25 8.83427 19.25 12.5Z" stroke="#2E9B9B"/>
<path d="M5 12.5C5 8.35786 8.35786 5 12.5 5C16.6421 5 20 8.35786 20 12.5C20 16.6421 16.6421 20 12.5 20C8.35786 20 5 16.6421 5 12.5Z" fill="#FAFAFA" fill-opacity="0.87"/>
</svg>
