<svg width="14" height="18" viewBox="0 0 14 18" fill="none" xmlns="http://www.w3.org/2000/svg">
<path d="M7.37695 10.2188L7.38281 10.1914C7.49609 9.72461 7.63867 9.14258 7.52734 8.61523C7.45312 8.19922 7.14648 8.03711 6.88477 8.02539C6.57617 8.01172 6.30078 8.1875 6.23242 8.44336C6.10352 8.91211 6.21875 9.55273 6.42969 10.3691C6.16406 11.002 5.74023 11.9219 5.42969 12.4688C4.85156 12.7676 4.07617 13.2285 3.96094 13.8105C3.9375 13.918 3.96484 14.0547 4.0293 14.1777C4.10156 14.3145 4.2168 14.4199 4.35156 14.4707C4.41016 14.4922 4.48047 14.5098 4.5625 14.5098C4.90625 14.5098 5.46289 14.2324 6.20508 12.959C6.31836 12.9219 6.43555 12.8828 6.54883 12.8438C7.08008 12.6641 7.63086 12.4766 8.12891 12.3926C8.67969 12.6875 9.30664 12.877 9.73242 12.877C10.1543 12.877 10.3203 12.627 10.3828 12.4766C10.4922 12.2129 10.4395 11.8809 10.2617 11.7031C10.0039 11.4492 9.37695 11.3828 8.40039 11.5039C7.91992 11.2109 7.60547 10.8125 7.37695 10.2188ZM5.23438 13.1855C4.96289 13.5801 4.75781 13.7773 4.64648 13.8633C4.77734 13.623 5.0332 13.3691 5.23438 13.1855ZM6.94531 8.58594C7.04688 8.75977 7.0332 9.28516 6.95508 9.55078C6.85938 9.16211 6.8457 8.61133 6.90234 8.54688C6.91797 8.54883 6.93164 8.56055 6.94531 8.58594ZM6.91406 10.9395C7.12305 11.3008 7.38672 11.6113 7.67773 11.8418C7.25586 11.9375 6.87109 12.0957 6.52734 12.2363C6.44531 12.2695 6.36523 12.3027 6.28711 12.334C6.54688 11.8633 6.76367 11.3301 6.91406 10.9395ZM9.95312 12.2188C9.95508 12.2227 9.95703 12.2285 9.94531 12.2363H9.94141L9.9375 12.2422C9.92188 12.252 9.76172 12.3457 9.07227 12.0742C9.86523 12.0371 9.95117 12.2168 9.95312 12.2188ZM13.6914 4.63672L9.48828 0.433594C9.37109 0.316406 9.21289 0.25 9.04688 0.25H0.75C0.404297 0.25 0.125 0.529297 0.125 0.875V17.125C0.125 17.4707 0.404297 17.75 0.75 17.75H13.25C13.5957 17.75 13.875 17.4707 13.875 17.125V5.08008C13.875 4.91406 13.8086 4.75391 13.6914 4.63672ZM12.4336 5.36719H8.75781V1.69141L12.4336 5.36719ZM12.4688 16.3438H1.53125V1.65625H7.42969V5.875C7.42969 6.09256 7.51611 6.30121 7.66995 6.45505C7.82379 6.60889 8.03244 6.69531 8.25 6.69531H12.4688V16.3438Z" fill="#FAFAFA" fill-opacity="0.8"/>
</svg>
