<svg width="18" height="18" viewBox="0 0 18 18" fill="none" xmlns="http://www.w3.org/2000/svg">
<path d="M13.0838 2.07422H12.8208V4.04438C12.8208 4.13762 12.8578 4.22704 12.9238 4.29297C12.9897 4.3589 13.0791 4.39594 13.1724 4.39594H15.0525V4.10766L14.6503 3.69281H13.5239V2.52844L13.0838 2.07422Z" fill="#FAFAFA" fill-opacity="0.8"/>
<path d="M12.8823 13.0078V8.36572C12.8823 8.27248 12.8453 8.18306 12.7794 8.11713C12.7134 8.0512 12.624 8.01416 12.5308 8.01416H2.24475C2.15151 8.01416 2.06209 8.0512 1.99616 8.11713C1.93023 8.18306 1.89319 8.27248 1.89319 8.36572V13.0078C1.89319 13.101 1.93023 13.1904 1.99616 13.2563C2.06209 13.3223 2.15151 13.3593 2.24475 13.3593H12.5308C12.624 13.3593 12.7134 13.3223 12.7794 13.2563C12.8453 13.1904 12.8823 13.101 12.8823 13.0078ZM12.1792 12.6562H2.59631V8.71729H12.1792V12.6562Z" fill="#FAFAFA" fill-opacity="0.8"/>
<path d="M16.0083 3.57891L13.6346 1.12641C13.6018 1.09243 13.5625 1.06544 13.519 1.04707C13.4755 1.0287 13.4287 1.01934 13.3815 1.01953H4.27319C4.17995 1.01953 4.09053 1.05657 4.0246 1.1225C3.95867 1.18844 3.92163 1.27786 3.92163 1.3711V7.66266H4.62476V1.72266H13.2328L15.4041 3.96563V16.2774H4.62476V13.7109H3.92163V16.6289C3.92163 16.7222 3.95867 16.8116 4.0246 16.8775C4.09053 16.9434 4.17995 16.9805 4.27319 16.9805H15.7552C15.8485 16.9805 15.9379 16.9434 16.0038 16.8775C16.0697 16.8116 16.1068 16.7222 16.1068 16.6289V3.8236C16.1068 3.73238 16.0715 3.64469 16.0083 3.57891Z" fill="#FAFAFA" fill-opacity="0.8"/>
<path d="M3.50419 11.9466C3.62707 11.9915 3.75686 12.0144 3.88768 12.0145C4.21491 12.0145 4.76391 11.8879 4.76391 11.0404V9.56958C4.76391 9.51364 4.74169 9.45998 4.70213 9.42042C4.66257 9.38087 4.60892 9.35864 4.55297 9.35864H4.26919C4.21325 9.35864 4.1596 9.38087 4.12004 9.42042C4.08048 9.45998 4.05825 9.51364 4.05825 9.56958V11.018C4.05825 11.3519 3.97711 11.3519 3.86461 11.3519C3.80956 11.3521 3.75489 11.3426 3.70318 11.3237C3.67421 11.3125 3.6431 11.3077 3.61209 11.3099C3.58107 11.312 3.55091 11.321 3.52377 11.3361C3.49663 11.3513 3.47317 11.3722 3.45508 11.3975C3.43698 11.4228 3.4247 11.4518 3.41911 11.4824L3.37693 11.7138C3.36831 11.7613 3.37624 11.8103 3.3994 11.8527C3.42256 11.8951 3.45955 11.9282 3.50419 11.9466Z" fill="#FAFAFA" fill-opacity="0.8"/>
<path d="M9.54119 11.9968H9.80837C9.86432 11.9968 9.91797 11.9745 9.95753 11.935C9.99709 11.8954 10.0193 11.8418 10.0193 11.7858V10.8465C10.0193 10.8202 10.0193 10.7943 10.0193 10.7688C10.0221 10.7732 10.0249 10.7777 10.0277 10.7822L10.7257 11.8978C10.7447 11.928 10.7711 11.9528 10.8023 11.97C10.8336 11.9873 10.8687 11.9963 10.9044 11.9962H11.1914C11.2474 11.9962 11.301 11.974 11.3406 11.9344C11.3801 11.8949 11.4024 11.8412 11.4024 11.7853V9.58758C11.4024 9.53164 11.3801 9.47798 11.3406 9.43842C11.301 9.39887 11.2474 9.37664 11.1914 9.37664H10.9242C10.8683 9.37664 10.8146 9.39887 10.7751 9.43842C10.7355 9.47798 10.7133 9.53164 10.7133 9.58758V10.5544L10.0294 9.47466C10.0104 9.44453 9.98413 9.4197 9.95295 9.40249C9.92177 9.38528 9.88674 9.37624 9.85112 9.37622H9.54175C9.4858 9.37622 9.43215 9.39844 9.39259 9.438C9.35303 9.47756 9.33081 9.53121 9.33081 9.58716V11.7858C9.33081 11.8417 9.35296 11.8952 9.39239 11.9348C9.43183 11.9743 9.48534 11.9966 9.54119 11.9968Z" fill="#FAFAFA" fill-opacity="0.8"/>
<path d="M7.9734 12.0327C8.58653 12.0327 9.20528 11.6094 9.20528 10.664C9.20528 9.8849 8.7121 9.34082 8.00617 9.34082C7.28096 9.34082 6.77429 9.90234 6.77429 10.7064C6.77485 11.4872 7.26803 12.0327 7.9734 12.0327ZM7.99309 9.9936C8.38093 9.9936 8.48331 10.4402 8.48331 10.6763C8.48331 11.0259 8.33073 11.3786 7.98971 11.3786C7.65221 11.3786 7.4995 11.0271 7.4995 10.6991C7.4995 10.3712 7.62943 9.99416 7.99365 9.99416L7.99309 9.9936Z" fill="#FAFAFA" fill-opacity="0.8"/>
<path d="M5.01705 11.8547C5.22334 11.973 5.45752 12.0339 5.69529 12.0311C6.37282 12.0311 6.67615 11.6074 6.67615 11.1873C6.67615 10.6788 6.30405 10.4701 5.98019 10.3447C5.67813 10.2278 5.67813 10.1719 5.67813 10.1176C5.67813 10.0435 5.75407 9.99904 5.88133 9.99904C5.99168 9.9987 6.10038 10.0257 6.19774 10.0776C6.22476 10.0924 6.25469 10.1011 6.28542 10.103C6.31614 10.105 6.34693 10.1002 6.37561 10.089C6.40429 10.0778 6.43017 10.0604 6.45143 10.0382C6.47269 10.0159 6.48882 9.98925 6.49868 9.96008L6.57701 9.72861C6.5927 9.68216 6.59173 9.6317 6.57425 9.58589C6.55678 9.54008 6.52389 9.50179 6.48124 9.4776C6.29887 9.38358 6.09572 9.3371 5.89061 9.34246C5.35624 9.34246 4.96853 9.68221 4.96853 10.1502C4.96853 10.5258 5.21111 10.8024 5.68446 10.9702C5.96332 11.0775 5.96332 11.1449 5.96332 11.2102C5.96332 11.3459 5.8279 11.3744 5.71427 11.3744C5.57389 11.3728 5.43645 11.334 5.31602 11.2619C5.2885 11.2449 5.25746 11.2345 5.22528 11.2315C5.19311 11.2284 5.16066 11.2328 5.13045 11.2443C5.10024 11.2558 5.07308 11.274 5.05105 11.2977C5.02902 11.3213 5.01272 11.3497 5.00341 11.3807L4.93169 11.6186C4.91874 11.6619 4.92005 11.7082 4.93542 11.7508C4.95079 11.7933 4.9794 11.8297 5.01705 11.8547Z" fill="#FAFAFA" fill-opacity="0.8"/>
</svg>
