<svg width="14" height="16" viewBox="0 0 14 16" fill="none" xmlns="http://www.w3.org/2000/svg">
<path d="M7 7.25C6.20435 7.25 5.44129 6.93393 4.87868 6.37132C4.31607 5.80871 4 5.04565 4 4.25C4 3.45435 4.31607 2.69129 4.87868 2.12868C5.44129 1.56607 6.20435 1.25 7 1.25C7.79565 1.25 8.55871 1.56607 9.12132 2.12868C9.68393 2.69129 10 3.45435 10 4.25C10 5.04565 9.68393 5.80871 9.12132 6.37132C8.55871 6.93393 7.79565 7.25 7 7.25Z" stroke="#FAFAFA" stroke-width="2" stroke-linecap="round"/>
<path d="M1 14.75V14C1 12.8065 1.47411 11.6619 2.31802 10.818C3.16193 9.97411 4.30653 9.5 5.5 9.5H8.5C9.69347 9.5 10.8381 9.97411 11.682 10.818C12.5259 11.6619 13 12.8065 13 14V14.75" stroke="#FAFAFA" stroke-width="2" stroke-linecap="round"/>
</svg>
