<svg width="18" height="19" viewBox="0 0 18 19" fill="none" xmlns="http://www.w3.org/2000/svg">
<path d="M16.9198 13.058L11.1673 3.51802C10.9347 3.15413 10.6142 2.85467 10.2354 2.64723C9.85664 2.43979 9.43171 2.33105 8.99983 2.33105C8.56795 2.33105 8.14302 2.43979 7.76422 2.64723C7.38542 2.85467 7.06494 3.15413 6.83233 3.51802L1.07983 13.058C0.876621 13.3968 0.766173 13.783 0.75959 14.178C0.753007 14.573 0.850522 14.9627 1.04233 15.308C1.26409 15.6967 1.58508 16.0196 1.97248 16.2436C2.35989 16.4676 2.79982 16.5847 3.24733 16.583H14.7523C15.1969 16.5878 15.6348 16.4752 16.022 16.2566C16.4091 16.038 16.7318 15.7211 16.9573 15.338C17.1548 14.9891 17.2554 14.5938 17.2488 14.1929C17.2422 13.7921 17.1286 13.4003 16.9198 13.058ZM15.6448 14.5955C15.5547 14.7505 15.4239 14.8778 15.2666 14.9637C15.1092 15.0497 14.9314 15.0909 14.7523 15.083H3.24733C3.06825 15.0909 2.89042 15.0497 2.7331 14.9637C2.57578 14.8778 2.44497 14.7505 2.35483 14.5955C2.289 14.4815 2.25435 14.3522 2.25435 14.2205C2.25435 14.0889 2.289 13.9595 2.35483 13.8455L8.11483 4.29802C8.21833 4.1613 8.35211 4.05042 8.50565 3.97408C8.6592 3.89773 8.82835 3.858 8.99983 3.858C9.17131 3.858 9.34046 3.89773 9.49401 3.97408C9.64755 4.05042 9.78133 4.1613 9.88483 4.29802L15.6373 13.838C15.7057 13.9523 15.7424 14.0826 15.7437 14.2158C15.7451 14.3489 15.7109 14.48 15.6448 14.5955Z" fill="#D7B112"/>
<path d="M9 13.583C9.41421 13.583 9.75 13.2472 9.75 12.833C9.75 12.4188 9.41421 12.083 9 12.083C8.58579 12.083 8.25 12.4188 8.25 12.833C8.25 13.2472 8.58579 13.583 9 13.583Z" fill="#D7B112"/>
<path d="M9 6.83301C8.80109 6.83301 8.61032 6.91203 8.46967 7.05268C8.32902 7.19333 8.25 7.3841 8.25 7.58301V10.583C8.25 10.7819 8.32902 10.9727 8.46967 11.1133C8.61032 11.254 8.80109 11.333 9 11.333C9.19891 11.333 9.38968 11.254 9.53033 11.1133C9.67098 10.9727 9.75 10.7819 9.75 10.583V7.58301C9.75 7.3841 9.67098 7.19333 9.53033 7.05268C9.38968 6.91203 9.19891 6.83301 9 6.83301Z" fill="#D7B112"/>
</svg>
