<svg width="18" height="15" viewBox="0 0 18 15" fill="none" xmlns="http://www.w3.org/2000/svg">
<path d="M16.92 11.058L11.1675 1.51802C10.9349 1.15413 10.6144 0.854665 10.2356 0.647226C9.85681 0.439787 9.43188 0.331055 9 0.331055C8.56812 0.331055 8.14319 0.439787 7.76439 0.647226C7.38558 0.854665 7.06511 1.15413 6.8325 1.51802L1.08 11.058C0.876789 11.3968 0.76634 11.783 0.759758 12.178C0.753175 12.573 0.85069 12.9627 1.0425 13.308C1.26426 13.6967 1.58524 14.0196 1.97265 14.2436C2.36006 14.4676 2.79999 14.5847 3.2475 14.583H14.7525C15.1971 14.5878 15.635 14.4752 16.0222 14.2566C16.4093 14.038 16.7319 13.7211 16.9575 13.338C17.1549 12.9891 17.2556 12.5938 17.249 12.1929C17.2424 11.7921 17.1288 11.4003 16.92 11.058ZM15.645 12.5955C15.5549 12.7505 15.424 12.8778 15.2667 12.9637C15.1094 13.0497 14.9316 13.0909 14.7525 13.083H3.2475C3.06842 13.0909 2.89059 13.0497 2.73327 12.9637C2.57595 12.8778 2.44514 12.7505 2.355 12.5955C2.28917 12.4815 2.25452 12.3522 2.25452 12.2205C2.25452 12.0889 2.28917 11.9595 2.355 11.8455L8.115 2.29802C8.2185 2.1613 8.35227 2.05042 8.50582 1.97408C8.65937 1.89773 8.82852 1.858 9 1.858C9.17148 1.858 9.34063 1.89773 9.49417 1.97408C9.64772 2.05042 9.78149 2.1613 9.885 2.29802L15.6375 11.838C15.7059 11.9523 15.7426 12.0826 15.7439 12.2158C15.7452 12.3489 15.7111 12.48 15.645 12.5955Z" fill="#D7B112"/>
<path d="M9 11.583C9.41421 11.583 9.75 11.2472 9.75 10.833C9.75 10.4188 9.41421 10.083 9 10.083C8.58579 10.083 8.25 10.4188 8.25 10.833C8.25 11.2472 8.58579 11.583 9 11.583Z" fill="#D7B112"/>
<path d="M9 4.83301C8.80109 4.83301 8.61032 4.91203 8.46967 5.05268C8.32902 5.19333 8.25 5.3841 8.25 5.58301V8.58301C8.25 8.78192 8.32902 8.97269 8.46967 9.11334C8.61032 9.25399 8.80109 9.33301 9 9.33301C9.19891 9.33301 9.38968 9.25399 9.53033 9.11334C9.67098 8.97269 9.75 8.78192 9.75 8.58301V5.58301C9.75 5.3841 9.67098 5.19333 9.53033 5.05268C9.38968 4.91203 9.19891 4.83301 9 4.83301Z" fill="#D7B112"/>
</svg>
