<svg width="136" height="130" viewBox="0 0 136 130" fill="none" xmlns="http://www.w3.org/2000/svg">
<path d="M85.2838 31.0911L80.0117 28.2231C87.112 32.0856 96.1264 34.8553 106.486 33.3993L111.758 36.2672C101.398 37.7232 92.3841 34.9536 85.2838 31.0911Z" fill="#0BD8D2"/>
<path d="M60.5518 110.734L55.2798 107.866C37.1932 98.0268 24.8939 77.8302 19.2898 45.6538L24.5619 48.5218C30.166 80.6982 42.4653 100.895 60.5518 110.734Z" fill="#126662"/>
<path d="M24.5619 48.5219L19.2898 45.6539C44.638 42.0914 62.0206 15.4837 62.9354 14.0833L68.2075 16.9512C67.2926 18.3516 49.9101 44.9594 24.5619 48.5219Z" fill="#0BD8D2"/>
<path d="M68.2074 16.9512C69.1175 18.0951 86.4103 39.8296 111.758 36.2671C105.275 74.5006 90.261 99.7821 68.027 114.097C45.8345 106.026 30.9068 84.9523 24.5618 48.5218C49.91 44.9593 67.2925 18.3516 68.2074 16.9512Z" fill="#2E9B9B"/>
<path d="M67.7987 112.036C57.3528 108.033 48.6384 100.93 41.8862 90.9098C34.9238 80.5784 29.8234 66.8364 26.7156 50.0442C48.0775 46.0665 63.5685 26.6929 68.3673 19.9836C73.0856 25.2114 86.976 38.5113 106.152 38.5113C107.266 38.5113 108.388 38.4659 109.509 38.376C106.32 55.9026 101.171 70.9844 94.1915 83.2354C87.3033 95.3255 78.4277 105.01 67.7987 112.036Z" fill="#2E9B9B"/>
<g opacity="0.5">
<g opacity="0.5">
<path opacity="0.5" d="M67.7987 112.036C57.3528 108.033 48.6384 100.93 41.8862 90.9098C34.9238 80.5784 29.8234 66.8364 26.7156 50.0442C48.0775 46.0665 63.5685 26.6929 68.3673 19.9836C73.0856 25.2114 86.976 38.5113 106.152 38.5113C107.266 38.5113 108.388 38.4659 109.509 38.376C106.32 55.9026 101.171 70.9844 94.1915 83.2354C87.3033 95.3255 78.4277 105.01 67.7987 112.036Z" fill="#1F4F4B"/>
</g>
</g>
<path d="M83.8456 45.8067C83.8178 45.7905 83.7901 45.7766 83.76 45.7627C83.3576 45.5453 82.9459 45.3441 82.5249 45.1613C82.4139 45.1128 82.3029 45.0642 82.1895 45.0203C82.171 45.011 82.1502 45.0018 82.1317 44.9971C82.0022 44.9416 81.8726 44.8907 81.7408 44.8422C81.7408 44.8422 81.7408 44.8422 81.7385 44.8422C81.602 44.789 81.4632 44.7381 81.3222 44.6895C81.1811 44.6386 81.04 44.5923 80.8966 44.5461C80.737 44.4952 80.5751 44.4443 80.4108 44.3981C80.3669 44.3842 80.3206 44.3726 80.2744 44.361C80.1633 44.3287 80.05 44.2986 79.9367 44.2708C79.8789 44.2523 79.8187 44.2385 79.7586 44.2246C79.6707 44.2015 79.5805 44.1806 79.4902 44.1598C79.3792 44.1344 79.2705 44.1089 79.1595 44.0881C79.1479 44.0835 79.1364 44.0812 79.1248 44.0812C78.9906 44.0511 78.8542 44.0257 78.7177 44.0002C78.3615 43.9355 78.0007 43.88 77.6352 43.8383C77.4756 43.8175 77.3137 43.799 77.1518 43.7851C77.1518 43.7851 77.1495 43.7851 77.1472 43.7851C76.976 43.7689 76.8072 43.755 76.6337 43.7458C76.6082 43.7435 76.5828 43.7412 76.5551 43.7389C76.4093 43.7296 76.2636 43.7227 76.1179 43.7204C75.0192 43.6787 73.8905 43.7365 72.7386 43.8984C61.2569 45.5106 51.9263 56.8674 51.9055 69.2627C51.9055 69.4246 51.9055 69.5842 51.9101 69.7461C51.9101 69.8294 51.9124 69.9103 51.9147 69.9936C51.9194 70.137 51.924 70.2804 51.9309 70.4238C51.9379 70.5765 51.9471 70.7314 51.9563 70.8841V70.9026C51.9679 71.0529 51.9795 71.2033 51.9911 71.3513C51.9934 71.3791 51.9957 71.4045 51.998 71.43C52.0096 71.5618 52.0234 71.6937 52.0373 71.8232C52.0419 71.8741 52.0466 71.925 52.0535 71.9758C52.0882 72.295 52.1298 72.6119 52.1808 72.9241C52.1808 72.9265 52.1808 72.9265 52.1808 72.9265C52.2062 73.093 52.234 73.2572 52.264 73.4215C52.2918 73.5857 52.3218 73.7499 52.3565 73.9118C52.4213 74.2379 52.493 74.5595 52.5739 74.8763C52.6133 75.0359 52.6526 75.1932 52.6965 75.3505C52.7382 75.4985 52.7798 75.6442 52.8237 75.7899C52.8283 75.8038 52.833 75.8177 52.8353 75.8339C52.9255 76.1392 53.025 76.4376 53.129 76.7337C53.1799 76.884 53.2355 77.0344 53.291 77.1824C53.2979 77.1962 53.3025 77.2125 53.3071 77.2263C53.358 77.3605 53.409 77.4923 53.4644 77.6242C53.5801 77.9179 53.705 78.2047 53.8368 78.4892C53.9016 78.6303 53.9687 78.7714 54.038 78.9125C54.2416 79.3311 54.459 79.7406 54.6926 80.1384C54.6996 80.1499 54.7065 80.1638 54.7135 80.1754C54.7829 80.2957 54.8546 80.4136 54.9286 80.5316C55.0049 80.6611 55.0881 80.7906 55.1714 80.9178C55.2431 81.0335 55.3194 81.1468 55.3958 81.2579C55.4074 81.2717 55.4143 81.2856 55.4236 81.2972C55.5068 81.4221 55.5947 81.547 55.6849 81.6696C55.9486 82.0374 56.2239 82.3935 56.5153 82.7382C56.6101 82.8538 56.7072 82.9671 56.8067 83.0782C56.9039 83.1892 57.0033 83.3002 57.1051 83.4089C57.193 83.5061 57.2855 83.6009 57.3757 83.6958C57.6995 84.0288 58.0326 84.3457 58.3773 84.651C58.5993 84.8476 58.826 85.0373 59.0573 85.22C59.1729 85.3125 59.2886 85.4028 59.4065 85.4906C59.5083 85.5716 59.6124 85.6479 59.7188 85.7219C59.7373 85.7358 59.7558 85.7497 59.7743 85.7613C60.1282 86.0157 60.4936 86.2562 60.866 86.4806C60.9932 86.5592 61.1204 86.6332 61.2477 86.705C61.3471 86.7628 61.4466 86.8183 61.5484 86.8738L56.2771 84.0057C50.4668 80.8438 46.618 74.379 46.6319 66.3946C46.655 54.0016 55.9833 42.6425 67.465 41.0304C71.5521 40.4544 75.3616 41.1923 78.572 42.9386L83.8456 45.8067Z" fill="black"/>
<path d="M93.4906 63.4177C93.4675 75.813 84.1393 87.1674 72.6553 88.7819C68.5682 89.3555 64.7587 88.62 61.5483 86.8736C61.4466 86.8182 61.3471 86.7626 61.2476 86.7048C61.1204 86.6331 60.9932 86.5568 60.866 86.4805C60.4936 86.2561 60.1305 86.0155 59.7742 85.7611C59.7558 85.7496 59.7373 85.7357 59.7187 85.7218C59.6147 85.6455 59.5083 85.5692 59.4065 85.4905C59.2886 85.4026 59.1706 85.3124 59.0572 85.2199C58.8259 85.0372 58.5993 84.8475 58.3772 84.6509C58.0326 84.3456 57.6995 84.0287 57.3757 83.6956C57.2855 83.6008 57.1953 83.506 57.1051 83.4088C57.0056 83.3001 56.9039 83.1891 56.8067 83.0781C56.7072 82.9647 56.6101 82.8514 56.5153 82.738C56.2262 82.3934 55.9486 82.0372 55.6849 81.6694C55.597 81.5469 55.5091 81.422 55.4235 81.297C55.4143 81.2855 55.4074 81.2716 55.3958 81.2577C55.3217 81.1467 55.2455 81.0334 55.1714 80.9177C55.0881 80.7905 55.0072 80.661 54.9285 80.5315C54.8546 80.4135 54.7852 80.2955 54.7135 80.1753C54.7065 80.1637 54.6996 80.1498 54.6926 80.1382C54.4613 79.7404 54.2439 79.331 54.038 78.9124C53.9687 78.7736 53.9039 78.6325 53.8368 78.4891C53.7073 78.2069 53.5824 77.9178 53.4644 77.624C53.4112 77.4922 53.3603 77.3604 53.3071 77.2262C53.3025 77.2123 53.2979 77.1961 53.2909 77.1823C53.2355 77.0342 53.1822 76.8839 53.129 76.7335C53.025 76.4375 52.9278 76.1368 52.8353 75.8338C52.833 75.8176 52.8283 75.8037 52.8237 75.7898C52.7798 75.6441 52.7382 75.4961 52.6965 75.3504C52.6549 75.1931 52.6133 75.0358 52.5739 74.8762C52.4953 74.5593 52.4213 74.2378 52.3565 73.9117C52.3241 73.7498 52.2918 73.5856 52.264 73.4213C52.234 73.2571 52.2062 73.0929 52.1808 72.9264C52.1808 72.9264 52.1808 72.9264 52.1808 72.924C52.1322 72.6118 52.0882 72.2949 52.0535 71.9757C52.0466 71.9249 52.0419 71.874 52.0373 71.8231C52.0234 71.6936 52.0096 71.5617 51.998 71.4299C51.9957 71.4044 51.9934 71.379 51.9911 71.3512C51.9795 71.2032 51.9679 71.0528 51.9563 70.9025V70.884C51.9471 70.7313 51.9379 70.5787 51.9309 70.4237C51.924 70.2803 51.9194 70.1369 51.9147 69.9935C51.9124 69.9102 51.9101 69.8293 51.9101 69.746C51.9055 69.5841 51.9055 69.4245 51.9055 69.2626C51.9263 56.8673 61.2569 45.5106 72.7385 43.8984C73.8904 43.7365 75.0192 43.6787 76.1178 43.7203C76.2635 43.7226 76.4116 43.7296 76.555 43.7388C76.5827 43.7411 76.6081 43.7434 76.6336 43.7458C76.8048 43.755 76.9759 43.7689 77.1471 43.7851C77.1494 43.7851 77.1517 43.7851 77.1517 43.7851C77.3136 43.7989 77.4755 43.8175 77.6351 43.8383C78.0006 43.8799 78.3614 43.9354 78.7176 44.0002C78.8541 44.0256 78.9882 44.0511 79.1247 44.0811C79.1363 44.0811 79.1478 44.0834 79.1594 44.0881C79.2704 44.1112 79.3814 44.1343 79.4901 44.1598C79.5804 44.1806 79.6682 44.2014 79.7585 44.2245C79.8186 44.2384 79.8788 44.2523 79.9366 44.2708C80.0499 44.2963 80.1632 44.3286 80.2743 44.361C80.3205 44.3726 80.3668 44.3841 80.4107 44.398C80.575 44.4443 80.7369 44.4952 80.8965 44.546C81.0399 44.5923 81.1809 44.6386 81.3221 44.6895C81.4608 44.738 81.6019 44.7889 81.7384 44.8421C81.7407 44.8421 81.7407 44.8421 81.7407 44.8421C81.8725 44.8907 82.0021 44.9416 82.1316 44.9971C82.1501 45.0017 82.1709 45.011 82.1894 45.0202C82.3005 45.0641 82.4138 45.1127 82.5248 45.1613C82.9458 45.344 83.3575 45.5453 83.7599 45.7627C89.6187 48.906 93.5045 55.3962 93.4906 63.4177Z" fill="#1F1F1F"/>
<path d="M77.9931 70.8054L76.4115 69.945C76.0376 69.7417 75.7899 69.3261 75.7908 68.8126C75.7956 66.2353 74.5481 64.1437 72.6687 63.1213L74.2503 63.9817C76.1297 65.0041 77.3772 67.0957 77.3724 69.673C77.3715 70.1865 77.6193 70.6021 77.9931 70.8054Z" fill="white"/>
<path d="M75.648 61.3192C75.4699 61.2244 75.2894 61.1342 75.1044 61.0555C75.0489 61.0278 74.9911 61.0047 74.9333 60.9815C74.7251 60.896 74.5146 60.8196 74.2972 60.7525C74.2393 60.734 74.1792 60.7155 74.1214 60.6994C73.9942 60.6623 73.8646 60.6276 73.7328 60.5976C73.6773 60.586 73.6195 60.5721 73.564 60.5606C73.2934 60.5027 73.0204 60.4611 72.7405 60.4334C72.6735 60.4264 72.6041 60.4195 72.537 60.4149C72.4075 60.4033 72.2779 60.3963 72.1484 60.394C72.0628 60.3917 71.9773 60.3894 71.8917 60.3894C71.4915 60.3894 71.0844 60.4172 70.6704 60.475C65.4893 61.2036 61.2658 66.3454 61.2542 71.9382C61.2542 71.9844 61.2565 72.0284 61.2611 72.0723C61.2635 72.1116 61.2681 72.151 61.275 72.188C61.275 72.1972 61.2773 72.2065 61.2797 72.2157C61.2866 72.2527 61.2958 72.2898 61.3051 72.3244C61.3097 72.3499 61.3167 72.3707 61.3259 72.3938C61.3421 72.447 61.3629 72.4979 61.386 72.5465C61.4346 72.6482 61.4948 72.7408 61.5665 72.8217C61.578 72.8379 61.5919 72.8518 61.6081 72.8657C61.6312 72.8911 61.6543 72.9143 61.6798 72.9351C61.7052 72.9582 61.7307 72.979 61.7584 72.9975C61.7908 73.0207 61.8209 73.0415 61.8556 73.06L60.2943 72.2111C59.9196 72.0076 59.6721 71.5912 59.6721 71.0777C59.6837 65.6353 63.6828 60.6207 68.672 59.684C68.9704 59.7927 69.2849 59.8644 69.611 59.8991C69.9534 59.9361 70.3073 59.9291 70.6727 59.8782C71.0012 59.832 71.3227 59.751 71.6349 59.6377C71.6349 59.6377 71.6349 59.6377 71.6372 59.6377C72.5185 59.7811 73.3488 60.0679 74.1029 60.4773L75.648 61.3192Z" fill="white"/>
<path d="M80.0495 69.2967C80.0471 70.0947 79.4481 70.8256 78.7102 70.9274C78.4373 70.9667 78.1852 70.9135 77.9747 70.7933C77.9423 70.7748 77.9099 70.7539 77.8799 70.7331C77.8498 70.7123 77.8244 70.6915 77.7966 70.6684C77.7943 70.666 77.792 70.6637 77.7897 70.6614C77.7619 70.6383 77.7365 70.6129 77.711 70.5851C77.7018 70.5758 77.6949 70.5689 77.6856 70.5573C77.644 70.5111 77.6046 70.4579 77.5722 70.4024C77.5468 70.3654 77.526 70.326 77.5052 70.2844C77.4728 70.2173 77.4474 70.1456 77.4266 70.0716C77.4242 70.0693 77.4242 70.067 77.4242 70.0647C77.415 70.03 77.4057 69.993 77.3988 69.956C77.3988 69.9513 77.3965 69.9444 77.3965 69.9374C77.3895 69.8981 77.3826 69.8565 77.3803 69.8126C77.3757 69.7686 77.3733 69.7247 77.3733 69.6807V69.6738C77.3733 69.5836 77.371 69.4934 77.3687 69.4055C77.3687 69.3569 77.3664 69.3106 77.3618 69.2621C77.3595 69.1695 77.3525 69.0747 77.3433 68.9822C77.3363 68.892 77.3271 68.8018 77.3155 68.7139C77.3109 68.6722 77.3039 68.6306 77.2993 68.589C77.2878 68.5057 77.2739 68.4247 77.26 68.3438C77.2577 68.3369 77.2577 68.3299 77.2554 68.3253C77.2392 68.2305 77.2207 68.1403 77.1999 68.0477C77.1953 68.0223 77.1883 67.9969 77.1814 67.9691C77.1652 67.8951 77.1467 67.8211 77.1258 67.747C77.1212 67.7239 77.1143 67.6985 77.1074 67.6754C77.0888 67.6083 77.068 67.5389 77.0449 67.4718C77.0333 67.4279 77.0194 67.3862 77.0033 67.3423C76.9824 67.2775 76.9593 67.2127 76.9362 67.148C76.927 67.1249 76.92 67.104 76.9107 67.0809C76.8853 67.0115 76.8576 66.9444 76.8275 66.8774C76.8182 66.8542 76.809 66.8311 76.7974 66.8057C76.7627 66.7247 76.7257 66.6437 76.6864 66.5628C76.5962 66.3777 76.4967 66.1996 76.3903 66.0262C76.3418 65.9475 76.2909 65.8689 76.2377 65.7926C76.2353 65.7902 76.2353 65.7856 76.2307 65.7833C76.1289 65.633 76.0203 65.4872 75.9046 65.3485C75.6571 65.0478 75.3818 64.7771 75.0812 64.5366C75.0557 64.5158 75.0303 64.495 75.0048 64.4765C74.947 64.4302 74.8892 64.3863 74.829 64.3446C74.7527 64.2891 74.6741 64.2359 74.5955 64.185H74.5931C74.5145 64.1341 74.4359 64.0856 74.3549 64.0416C74.3526 64.0393 74.348 64.037 74.3433 64.0347C74.0542 63.8681 73.7466 63.7294 73.4274 63.6206C72.5855 63.3246 71.651 63.2251 70.6657 63.3639C66.9603 63.8843 63.9372 67.562 63.9303 71.5612C63.928 72.3592 63.3289 73.0901 62.5887 73.1941C62.3181 73.2335 62.066 73.1803 61.8555 73.06C61.8208 73.0415 61.7908 73.0207 61.7584 72.9975C61.7306 72.9791 61.7052 72.9582 61.6797 72.9351C61.6543 72.9143 61.6312 72.8912 61.608 72.8657C61.5918 72.8518 61.578 72.838 61.5664 72.8218C61.4947 72.7408 61.4346 72.6483 61.386 72.5465C61.3629 72.4979 61.342 72.4471 61.3258 72.3938C61.3166 72.3707 61.3097 72.3499 61.305 72.3245C61.2958 72.2898 61.2865 72.2528 61.2796 72.2158C61.2773 72.2065 61.275 72.1973 61.275 72.188C61.268 72.151 61.2634 72.1117 61.2611 72.0724C61.2565 72.0284 61.2542 71.9845 61.2542 71.9382C61.2657 66.3454 65.4892 61.2036 70.6703 60.475C71.0843 60.4171 71.4914 60.3894 71.8916 60.3894C71.9772 60.3894 72.0627 60.3917 72.1483 60.394C72.2778 60.3963 72.4074 60.4033 72.5369 60.4148C72.604 60.4195 72.6734 60.4264 72.7404 60.4333C73.0203 60.4611 73.2933 60.5027 73.5639 60.5606C73.6194 60.5721 73.6772 60.586 73.7327 60.5975C73.8645 60.6276 73.9941 60.6623 74.1213 60.6993C74.1791 60.7155 74.2392 60.734 74.2971 60.7525C74.5145 60.8196 74.725 60.8959 74.9331 60.9815C74.991 61.0046 75.0488 61.0301 75.1043 61.0555C75.2893 61.1342 75.4698 61.2244 75.6479 61.3192C78.2962 62.7394 80.0564 65.6769 80.0495 69.2967Z" fill="#C6C6C6"/>
<path d="M72.782 54.4287C72.7797 55.6777 71.836 56.8272 70.6772 56.9915C70.2655 57.0493 69.8815 56.973 69.5577 56.7972L67.9756 55.9368C68.2994 56.1125 68.6834 56.1889 69.0951 56.131C70.2539 55.9668 71.1976 54.8172 71.1999 53.5682C71.1999 52.7633 70.8113 52.1087 70.2238 51.7896L71.8059 52.65C72.3934 52.9692 72.782 53.6214 72.782 54.4287Z" fill="#6D6D6D"/>
<path d="M73.1997 49.9873C73.1622 49.9652 73.1225 49.9454 73.0828 49.9277C73.0982 49.9344 73.1137 49.941 73.1269 49.9476C73.1511 49.9608 73.1754 49.9741 73.1997 49.9873Z" fill="white"/>
<path d="M73.1291 49.9485C73.1152 49.9415 73.0991 49.9346 73.0829 49.9277C73.069 49.9207 73.0528 49.9115 73.0366 49.9068C73.0273 49.8999 73.0158 49.893 73.0019 49.8907C72.9926 49.886 72.9834 49.8814 72.9741 49.8791C72.9626 49.8745 72.9533 49.8675 72.9418 49.8629C72.9025 49.8444 72.8631 49.8282 72.8238 49.812C72.8168 49.8097 72.8099 49.8074 72.803 49.8051C72.7984 49.8005 72.796 49.8005 72.7914 49.8005C72.7822 49.7958 72.7706 49.7935 72.7613 49.7889C72.6966 49.7635 72.6295 49.738 72.5624 49.7172C72.4838 49.6918 72.4028 49.6686 72.3219 49.6478C72.2455 49.6293 72.1669 49.6108 72.0883 49.5969C72.0813 49.5946 72.0744 49.5923 72.0674 49.5923C72.0073 49.5807 71.9449 49.5715 71.8824 49.5645C71.8731 49.5622 71.8616 49.5599 71.85 49.5599C71.8246 49.5553 71.7968 49.5507 71.7714 49.5507C71.7459 49.546 71.7182 49.5437 71.6927 49.5414C71.6835 49.5414 71.6765 49.5391 71.6673 49.5391C71.6604 49.5391 71.6557 49.5368 71.6488 49.5368C71.6395 49.5368 71.628 49.5345 71.6187 49.5345C71.5956 49.5322 71.5725 49.5322 71.5493 49.5298C71.4707 49.5252 71.392 49.5229 71.3111 49.5229C71.1076 49.5229 70.9017 49.5368 70.6912 49.5668C68.0567 49.9369 65.9102 52.5529 65.9056 55.3933V55.4071C65.9056 55.4927 65.9079 55.5783 65.9125 55.6639C65.9148 55.7379 65.9195 55.8119 65.9264 55.8836C65.9264 55.8952 65.9287 55.9068 65.9287 55.9183C65.9334 55.9715 65.9403 56.0224 65.9472 56.0756C65.9496 56.0987 65.9519 56.1195 65.9565 56.1404C65.9634 56.2098 65.975 56.2791 65.9889 56.3485C66.0004 56.4179 66.0143 56.485 66.0282 56.5521C66.0305 56.559 66.0328 56.566 66.0328 56.5706C66.049 56.6446 66.0675 56.7186 66.0883 56.7903C66.1068 56.862 66.13 56.9337 66.1508 57.0054C66.1739 57.0748 66.1993 57.1419 66.2225 57.2066C66.2502 57.276 66.278 57.3454 66.3057 57.4102C66.3173 57.4403 66.3312 57.4726 66.3451 57.5027C66.3636 57.5374 66.3798 57.5744 66.396 57.6091C66.426 57.6739 66.4607 57.7363 66.4954 57.7988C66.5278 57.8612 66.5625 57.9214 66.6018 57.9815C66.6388 58.044 66.6804 58.1064 66.7221 58.1666C66.7591 58.2197 66.7984 58.2729 66.8354 58.3261C66.8377 58.3284 66.8401 58.3284 66.8401 58.3308C66.8817 58.384 66.9233 58.4372 66.9673 58.4881C66.9973 58.5251 67.0274 58.5621 67.0621 58.5968C67.0667 58.6037 67.0714 58.6106 67.0783 58.6176C67.0922 58.6338 67.1084 58.6476 67.1222 58.6638C67.1616 58.7055 67.2032 58.7494 67.2448 58.7887C67.2934 58.8373 67.3443 58.8836 67.3952 58.9275C67.4391 58.9668 67.4831 59.0061 67.5293 59.0409C67.5455 59.0547 67.564 59.0686 67.5802 59.0825C67.6149 59.1079 67.6496 59.1357 67.6843 59.1611C67.8023 59.2467 67.9272 59.3277 68.0544 59.3994L66.5417 58.5783C65.2071 57.852 64.3212 56.367 64.3235 54.5328C64.3281 51.6925 66.4746 49.0765 69.1091 48.7064C70.0459 48.5746 70.9202 48.7457 71.6557 49.1459L73.1291 49.9485Z" fill="white"/>
<path d="M73.2054 49.9902C73.1799 49.9763 73.1545 49.9624 73.1291 49.9485C73.1152 49.9416 73.099 49.9347 73.0828 49.9277C73.0689 49.9208 73.0527 49.9115 73.0365 49.9069C73.0273 49.9 73.0157 49.893 73.0019 49.8907C72.9926 49.8861 72.9833 49.8815 72.9741 49.8792C72.9625 49.8745 72.9533 49.8676 72.9417 49.863C72.9024 49.8445 72.863 49.8283 72.8237 49.8121C72.8168 49.8098 72.8099 49.8075 72.8029 49.8051C72.7983 49.8005 72.796 49.8005 72.7914 49.8005C72.7821 49.7959 72.7705 49.7936 72.7613 49.7889C72.6965 49.7635 72.6294 49.7381 72.5624 49.7172C72.4838 49.6918 72.4028 49.6687 72.3218 49.6479C72.2455 49.6294 72.1668 49.6108 72.0882 49.597C72.0813 49.5946 72.0743 49.5924 72.0674 49.5924C72.0073 49.5808 71.9448 49.5715 71.8824 49.5646C71.8731 49.5623 71.8615 49.56 71.8499 49.56C71.8245 49.5553 71.7968 49.553 71.7713 49.5507C71.7459 49.5461 71.7181 49.5438 71.6927 49.5415C71.6834 49.5415 71.6765 49.5391 71.6672 49.5391C71.6603 49.5391 71.6557 49.5368 71.6487 49.5368C71.6395 49.5368 71.6279 49.5345 71.6187 49.5345C71.5955 49.5322 71.5724 49.5322 71.5493 49.5299C71.4706 49.5253 71.392 49.5229 71.311 49.5229C71.1075 49.5229 70.9016 49.5368 70.6911 49.5669C68.0566 49.937 65.9101 52.553 65.9055 55.3933V55.4072C65.9055 55.4928 65.9078 55.5784 65.9124 55.6639C65.9148 55.738 65.9194 55.812 65.9263 55.8837C65.9263 55.8952 65.9286 55.9068 65.9286 55.9184C65.9333 55.9716 65.9402 56.0225 65.9472 56.0756C65.9495 56.0988 65.9518 56.1196 65.9564 56.1404C65.9656 56.2121 65.9772 56.2815 65.9888 56.3486C66.0003 56.418 66.0142 56.485 66.0281 56.5521C66.0304 56.5591 66.0327 56.566 66.0327 56.5706C66.0489 56.6446 66.0674 56.7187 66.0882 56.7904C66.1067 56.8621 66.1299 56.9338 66.1507 57.0055C66.1738 57.0749 66.1993 57.1419 66.2224 57.2067C66.2502 57.2761 66.2779 57.3455 66.3057 57.4103C66.3172 57.4426 66.3311 57.4727 66.345 57.5028C66.3635 57.5375 66.3797 57.5745 66.3959 57.6092C66.4283 57.6739 66.4606 57.7364 66.4953 57.7988C66.53 57.8613 66.5647 57.9214 66.6017 57.9815C66.6387 58.044 66.6804 58.1065 66.722 58.1666C66.759 58.2198 66.7983 58.273 66.8353 58.3262C66.8377 58.3285 66.84 58.3285 66.84 58.3308C66.8816 58.384 66.9232 58.4372 66.9672 58.4881C66.9973 58.5251 67.0296 58.5621 67.062 58.5968C67.0666 58.6038 67.0713 58.6107 67.0782 58.6176C67.0921 58.6338 67.1083 58.6477 67.1222 58.6639C67.1615 58.7055 67.2031 58.7495 67.2448 58.7888C67.2933 58.8374 67.3442 58.8836 67.3951 58.9276C67.4391 58.9669 67.483 59.0039 67.5293 59.0409C67.5454 59.0548 67.5639 59.0687 67.5801 59.0825C67.6148 59.108 67.6495 59.1357 67.6842 59.1612C67.8022 59.2468 67.9271 59.3277 68.0543 59.3994C68.2509 59.5127 68.4568 59.6076 68.6719 59.6839C68.9703 59.7926 69.2848 59.8643 69.611 59.899C69.9533 59.936 70.3072 59.9291 70.6726 59.8782C71.0011 59.8319 71.3226 59.751 71.6349 59.6377C71.6349 59.6377 71.6349 59.6377 71.6372 59.6377C73.8091 58.8489 75.4536 56.5382 75.4583 54.0518C75.4606 52.206 74.5608 50.7095 73.2054 49.9902ZM70.6773 56.9916C70.5847 57.0055 70.4945 57.0101 70.4066 57.0101C70.3673 57.0101 70.3303 57.0078 70.2933 57.0055C70.254 57.0032 70.217 57.0008 70.18 56.9962C70.143 56.9916 70.106 56.9847 70.069 56.9777C70.0204 56.9685 69.9718 56.9592 69.9232 56.943C69.914 56.943 69.9024 56.9407 69.8932 56.9361C69.8469 56.9222 69.7983 56.906 69.7544 56.8875C69.7197 56.876 69.6873 56.8621 69.6549 56.8459C69.611 56.825 69.567 56.8042 69.5254 56.7788C69.264 56.6308 69.0443 56.4133 68.8824 56.1474C68.6904 55.8328 68.5817 55.4465 68.5817 55.0186C68.584 53.7696 69.5277 52.62 70.6865 52.4581C70.7582 52.4466 70.8276 52.442 70.897 52.442C71.2278 52.4281 71.5377 52.5044 71.806 52.6501C71.8685 52.6848 71.9309 52.7218 71.9887 52.7658C72.0119 52.782 72.035 52.8005 72.0581 52.819C72.0836 52.8375 72.1044 52.856 72.1275 52.8768C72.1507 52.8953 72.1715 52.9161 72.1923 52.9369L72.2339 52.9785C72.2894 53.0364 72.3426 53.0988 72.3889 53.1636C72.4143 53.196 72.4375 53.2307 72.4583 53.2654C72.4814 53.3001 72.5022 53.3348 72.5231 53.3718C72.5416 53.4065 72.5577 53.4389 72.5739 53.4735C72.5948 53.5128 72.611 53.5545 72.6272 53.5961C72.6433 53.6378 72.6595 53.6794 72.6734 53.7233C72.6826 53.7511 72.6919 53.7812 72.6988 53.8112C72.7058 53.832 72.7127 53.8552 72.7174 53.876C72.7243 53.9038 72.7312 53.9315 72.7358 53.9593V53.9616C72.7405 53.9801 72.7428 53.9963 72.7451 54.0148C72.752 54.0541 72.759 54.0911 72.7636 54.1327C72.7705 54.1767 72.7752 54.2206 72.7775 54.2669C72.7798 54.3201 72.7821 54.3733 72.7821 54.4288C72.7798 55.6778 71.8361 56.8274 70.6773 56.9916Z" fill="#C6C6C6"/>
<path d="M88.7648 69.087C88.7279 69.0662 88.6886 69.0477 88.6469 69.0315C88.6377 69.0268 88.6284 69.0245 88.6191 69.0199C88.596 69.0106 88.5729 69.0037 88.5474 68.9968C88.5405 68.9944 88.5359 68.9944 88.5289 68.9921C88.5081 68.9852 88.4873 68.9806 88.4642 68.976C88.4387 68.9713 88.411 68.9667 88.3856 68.9621C88.3624 68.9575 88.3393 68.9528 88.3161 68.9551C88.3046 68.9528 88.2954 68.9528 88.2883 68.9528C88.2375 68.9482 88.1889 68.9482 88.138 68.9528C88.108 68.9551 88.0779 68.9575 88.0479 68.9621C87.8605 68.9875 87.6731 69.0569 87.4927 69.1702L73.7559 77.837L73.7582 75.9773L85.9106 68.3098C86.091 68.1965 86.2807 68.1271 86.4657 68.1016C86.7202 68.0646 86.9699 68.1086 87.1828 68.2265L88.7648 69.087Z" fill="white"/>
<path d="M73.143 71.3673C73.113 71.3511 73.0829 71.335 73.0482 71.3234C73.0297 71.3141 73.0089 71.3072 72.9881 71.3003C72.9649 71.291 72.9418 71.2841 72.9164 71.2771C72.8956 71.2702 72.8747 71.2656 72.8516 71.2609C72.8401 71.2563 72.8262 71.254 72.81 71.254C72.7845 71.2471 72.7568 71.2424 72.729 71.2424C72.6342 71.2286 72.5324 71.2309 72.4284 71.2447C71.6905 71.3488 71.0891 72.0797 71.0868 72.8777L71.0729 80.4552C71.0729 80.9478 71.3042 81.3711 71.6859 81.5839L70.1038 80.7235C69.7222 80.5107 69.4909 80.0874 69.4932 79.5947L69.507 72.0173C69.507 71.2193 70.1084 70.4884 70.8462 70.3843C71.1099 70.3473 71.3551 70.3959 71.561 70.5069L73.143 71.3673Z" fill="white"/>
<path d="M88.5961 71.6429L72.9627 81.5032C72.7869 81.6165 72.5973 81.6859 72.4099 81.7113C72.1578 81.7484 71.9057 81.7044 71.686 81.5841C71.3043 81.3713 71.073 80.9481 71.073 80.4554L71.0869 72.8781C71.0892 72.0801 71.6906 71.3492 72.4284 71.2451C72.5325 71.2312 72.6343 71.2289 72.7291 71.2428C72.7569 71.2428 72.7846 71.2474 72.81 71.2544C72.8262 71.2544 72.8401 71.2567 72.8517 71.2613C72.8748 71.2659 72.8957 71.2705 72.9164 71.2775C72.9419 71.2844 72.965 71.2914 72.9882 71.3006C73.009 71.3075 73.0298 71.3145 73.0483 71.3237C73.083 71.3353 73.1131 71.3515 73.1431 71.3677C73.5178 71.5712 73.7676 71.9876 73.7653 72.501L73.7584 75.9775L73.7561 77.8371L87.4928 69.1703C87.6732 69.057 87.8606 68.9876 88.048 68.9622C88.078 68.9576 88.1081 68.9552 88.1381 68.9529C88.189 68.9483 88.2376 68.9483 88.2884 68.9529C88.2955 68.9529 88.3047 68.9529 88.3162 68.9552C88.3394 68.9552 88.3625 68.9576 88.3857 68.9622C88.4111 68.9668 88.4389 68.9714 88.4643 68.9761C88.4874 68.9807 88.5082 68.9853 88.529 68.9923C88.536 68.9946 88.5406 68.9946 88.5475 68.9969C88.573 69.0038 88.5961 69.0107 88.6193 69.02C88.6285 69.0246 88.6378 69.027 88.647 69.0316C88.6887 69.0478 88.728 69.0663 88.7649 69.0871C88.9755 69.2027 89.1512 69.3878 89.2623 69.6376C89.5699 70.3199 89.2692 71.2197 88.5961 71.6429Z" fill="#C6C6C6"/>
</svg>
