<svg width="115" height="121" viewBox="0 0 115 121" fill="none" xmlns="http://www.w3.org/2000/svg">
<path d="M73.2532 32.1572L68.2273 29.4226C74.9976 33.1055 83.5918 35.7453 93.4694 34.3581L98.4953 37.0927C88.6177 38.4821 80.0235 35.8401 73.2532 32.1572Z" fill="#F2335C"/>
<path d="M49.674 108.093L44.6481 105.358C27.4024 95.9768 15.6767 76.72 10.3333 46.0417L15.3592 48.7764C20.7027 79.4568 32.4284 98.7114 49.674 108.093Z" fill="#990B30"/>
<path d="M15.3592 48.7764L10.3333 46.0418C34.5014 42.6456 51.0743 17.2756 51.9477 15.9414L56.9736 18.676C56.1003 20.0124 39.5273 45.3802 15.3592 48.7764Z" fill="#F2335C"/>
<g opacity="0.74">
<path opacity="0.74" d="M56.9713 18.6758C57.838 19.7674 74.3272 40.4886 98.4953 37.0924C92.3138 73.5463 77.9991 97.6505 56.7993 111.299C35.6393 103.605 21.4061 83.5122 15.3569 48.7762C39.5273 45.38 56.1002 20.0122 56.9713 18.6758Z" fill="#CC1736"/>
</g>
<g opacity="0.74">
<g opacity="0.74">
<g opacity="0.74">
<path opacity="0.74" d="M56.5833 109.334C46.624 105.517 38.3144 98.7445 31.8771 89.1911C25.239 79.3399 20.3763 66.2381 17.4124 50.2275C37.7807 46.4343 52.5497 27.9626 57.1258 21.5671C61.6246 26.5512 74.8676 39.2318 93.1519 39.2318C94.2127 39.2318 95.2844 39.1876 96.354 39.1038C93.3129 55.8136 88.4038 70.1945 81.7482 81.876C75.1785 93.4033 66.7167 102.637 56.5833 109.334Z" fill="#CC1736"/>
</g>
</g>
<g opacity="0.5">
<g opacity="0.5">
<path opacity="0.5" d="M56.5833 109.334C46.624 105.517 38.3144 98.7445 31.8771 89.1911C25.239 79.3399 20.3763 66.2381 17.4124 50.2275C37.7807 46.4343 52.5497 27.9626 57.1258 21.5671C61.6246 26.5512 74.8676 39.2318 93.1519 39.2318C94.2127 39.2318 95.2844 39.1876 96.354 39.1038C93.3129 55.8136 88.4038 70.1945 81.7482 81.876C75.1785 93.4033 66.7167 102.637 56.5833 109.334Z" fill="#1F4F4B"/>
</g>
</g>
</g>
<path d="M71.8816 46.1896C71.8552 46.1742 71.8287 46.161 71.8 46.1477C71.4163 45.9404 71.0238 45.7486 70.6224 45.5743C70.5165 45.5281 70.4107 45.4817 70.3026 45.4398C70.285 45.431 70.2651 45.4222 70.2475 45.4178C70.124 45.3648 70.0005 45.3163 69.8748 45.27C69.8748 45.27 69.8748 45.27 69.8726 45.27C69.7425 45.2193 69.6101 45.1708 69.4756 45.1245C69.3411 45.0759 69.2066 45.0318 69.0698 44.9877C68.9177 44.9392 68.7633 44.8907 68.6067 44.8466C68.5648 44.8334 68.5207 44.8223 68.4766 44.8113C68.3707 44.7804 68.2627 44.7518 68.1546 44.7253C68.0995 44.7077 68.0421 44.6944 67.9848 44.6812C67.901 44.6591 67.815 44.6393 67.729 44.6194C67.6232 44.5952 67.5195 44.5709 67.4137 44.5511C67.4026 44.5467 67.3916 44.5445 67.3806 44.5445C67.2527 44.5158 67.1226 44.4915 66.9924 44.4673C66.6528 44.4055 66.3088 44.3526 65.9603 44.3129C65.8082 44.2931 65.6538 44.2754 65.4994 44.2622C65.4994 44.2622 65.4972 44.2622 65.495 44.2622C65.3318 44.2467 65.1708 44.2335 65.0054 44.2247C64.9812 44.2225 64.9569 44.2203 64.9305 44.2181C64.7915 44.2092 64.6526 44.2026 64.5137 44.2004C63.4661 44.1607 62.3899 44.2159 61.2917 44.3702C50.3445 45.9073 41.4482 56.7355 41.4283 68.5538C41.4283 68.7081 41.4283 68.8603 41.4328 69.0147C41.4328 69.0941 41.435 69.1713 41.4372 69.2507C41.4416 69.3874 41.446 69.5241 41.4526 69.6608C41.4592 69.8064 41.468 69.9541 41.4769 70.0997V70.1173C41.4879 70.2607 41.4989 70.404 41.5099 70.5452C41.5121 70.5716 41.5143 70.5959 41.5165 70.6201C41.5276 70.7458 41.5408 70.8716 41.554 70.9951C41.5585 71.0436 41.5629 71.0921 41.5695 71.1406C41.6026 71.4449 41.6423 71.7471 41.6908 72.0448C41.6908 72.047 41.6908 72.047 41.6908 72.047C41.715 72.2058 41.7415 72.3623 41.7702 72.5189C41.7966 72.6755 41.8253 72.8321 41.8584 72.9865C41.9201 73.2974 41.9885 73.604 42.0657 73.9061C42.1032 74.0582 42.1407 74.2082 42.1826 74.3582C42.2222 74.4993 42.262 74.6382 42.3039 74.7772C42.3083 74.7904 42.3127 74.8037 42.3149 74.8191C42.4009 75.1102 42.4957 75.3947 42.595 75.677C42.6435 75.8203 42.6964 75.9636 42.7493 76.1048C42.7559 76.118 42.7603 76.1335 42.7648 76.1467C42.8133 76.2746 42.8618 76.4003 42.9147 76.526C43.025 76.8061 43.1441 77.0796 43.2698 77.3508C43.3315 77.4853 43.3955 77.6198 43.4616 77.7544C43.6557 78.1536 43.863 78.5439 44.0857 78.9232C44.0924 78.9342 44.099 78.9475 44.1056 78.9585C44.1717 79.0731 44.2401 79.1856 44.3107 79.2981C44.3834 79.4216 44.4629 79.5451 44.5422 79.6664C44.6106 79.7767 44.6834 79.8847 44.7561 79.9906C44.7672 80.0038 44.7738 80.017 44.7826 80.0281C44.862 80.1471 44.9458 80.2662 45.0318 80.3831C45.2832 80.7338 45.5456 81.0734 45.8235 81.402C45.9139 81.5122 46.0066 81.6203 46.1014 81.7262C46.194 81.832 46.2888 81.9379 46.3859 82.0415C46.4697 82.1341 46.5579 82.2246 46.6439 82.315C46.9527 82.6325 47.2702 82.9347 47.5988 83.2258C47.8105 83.4132 48.0266 83.5941 48.2472 83.7683C48.3575 83.8565 48.4677 83.9425 48.5802 84.0263C48.6772 84.1035 48.7765 84.1763 48.8779 84.2468C48.8955 84.2601 48.9132 84.2733 48.9308 84.2843C49.2682 84.5269 49.6167 84.7563 49.9717 84.9702C50.093 85.0452 50.2143 85.1158 50.3356 85.1841C50.4305 85.2392 50.5253 85.2922 50.6223 85.3451L45.5964 82.6105C40.0566 79.5958 36.387 73.432 36.4002 65.8192C36.4222 54.0031 45.3163 43.1727 56.2635 41.6356C60.1603 41.0865 63.7925 41.79 66.8535 43.455L71.8816 46.1896Z" fill="black"/>
<path d="M81.0779 62.9809C81.0558 74.7992 72.1618 85.6252 61.2124 87.1645C57.3155 87.7114 53.6834 87.0101 50.6224 85.3451C50.5254 85.2922 50.4305 85.2392 50.3357 85.1841C50.2144 85.1157 50.0931 85.0429 49.9718 84.9702C49.6168 84.7563 49.2706 84.5269 48.9309 84.2843C48.9133 84.2733 48.8956 84.2601 48.878 84.2468C48.7788 84.174 48.6773 84.1013 48.5803 84.0263C48.4678 83.9425 48.3554 83.8565 48.2473 83.7683C48.0268 83.594 47.8106 83.4132 47.5989 83.2258C47.2703 82.9347 46.9528 82.6325 46.644 82.3149C46.558 82.2245 46.472 82.1341 46.386 82.0415C46.2912 81.9379 46.1941 81.832 46.1015 81.7261C46.0067 81.6181 45.914 81.51 45.8236 81.4019C45.548 81.0734 45.2833 80.7338 45.0319 80.3831C44.9481 80.2662 44.8643 80.1471 44.7827 80.028C44.7739 80.017 44.7673 80.0038 44.7563 79.9905C44.6857 79.8847 44.6129 79.7766 44.5423 79.6664C44.463 79.5451 44.3858 79.4216 44.3108 79.2981C44.2402 79.1856 44.1741 79.0731 44.1057 78.9585C44.0991 78.9474 44.0925 78.9342 44.0858 78.9232C43.8653 78.5439 43.658 78.1535 43.4617 77.7544C43.3956 77.622 43.3338 77.4875 43.2699 77.3508C43.1464 77.0817 43.0273 76.8061 42.9148 76.526C42.8641 76.4003 42.8156 76.2746 42.7649 76.1467C42.7605 76.1335 42.756 76.118 42.7494 76.1048C42.6965 75.9636 42.6458 75.8203 42.5951 75.677C42.4958 75.3947 42.4032 75.108 42.315 74.8191C42.3128 74.8036 42.3084 74.7904 42.304 74.7772C42.2621 74.6382 42.2224 74.4971 42.1827 74.3581C42.143 74.2082 42.1033 74.0582 42.0658 73.9061C41.9908 73.6039 41.9202 73.2974 41.8585 72.9865C41.8276 72.8321 41.7967 72.6755 41.7703 72.5189C41.7416 72.3623 41.7151 72.2058 41.6909 72.047C41.6909 72.047 41.6909 72.047 41.6909 72.0448C41.6446 71.7471 41.6027 71.4449 41.5696 71.1406C41.563 71.0921 41.5586 71.0436 41.5542 70.995C41.5409 70.8715 41.5277 70.7458 41.5167 70.6201C41.5145 70.5959 41.5123 70.5716 41.51 70.5452C41.499 70.404 41.488 70.2607 41.477 70.1173V70.0997C41.4682 69.9541 41.4593 69.8086 41.4527 69.6608C41.4461 69.5241 41.4417 69.3874 41.4373 69.2506C41.4351 69.1713 41.4329 69.0941 41.4329 69.0147C41.4285 68.8603 41.4285 68.7081 41.4285 68.5538C41.4483 56.7354 50.3446 45.9073 61.2918 44.3702C62.39 44.2159 63.4662 44.1607 64.5138 44.2004C64.6527 44.2026 64.7938 44.2092 64.9305 44.2181C64.957 44.2203 64.9813 44.2225 65.0055 44.2247C65.1687 44.2335 65.3319 44.2467 65.4951 44.2622C65.4973 44.2622 65.4995 44.2622 65.4995 44.2622C65.6539 44.2754 65.8083 44.293 65.9604 44.3129C66.3089 44.3526 66.6529 44.4055 66.9925 44.4673C67.1226 44.4915 67.2505 44.5158 67.3807 44.5444C67.3917 44.5444 67.4027 44.5466 67.4137 44.5511C67.5196 44.5731 67.6254 44.5952 67.7291 44.6194C67.8151 44.6393 67.8989 44.6591 67.9849 44.6812C68.0423 44.6944 68.0996 44.7076 68.1547 44.7253C68.2628 44.7495 68.3708 44.7804 68.4767 44.8113C68.5208 44.8223 68.5649 44.8334 68.6068 44.8466C68.7634 44.8907 68.9177 44.9392 69.0699 44.9877C69.2067 45.0318 69.3412 45.0759 69.4757 45.1245C69.608 45.1708 69.7426 45.2193 69.8727 45.27C69.8749 45.27 69.8749 45.27 69.8749 45.27C70.0006 45.3163 70.1241 45.3648 70.2476 45.4178C70.2652 45.4222 70.2851 45.431 70.3027 45.4398C70.4086 45.4817 70.5166 45.528 70.6225 45.5743C71.0238 45.7486 71.4164 45.9404 71.8001 46.1477C77.3862 49.1447 81.0911 55.3329 81.0779 62.9809Z" fill="#1F1F1F"/>
<path d="M70.0709 74.7749L68.4103 73.8707C68.3221 73.8244 68.2405 73.7649 68.1633 73.6943L69.8261 74.5985C69.8526 74.625 69.8813 74.6492 69.9121 74.6691C69.9232 74.6779 69.9342 74.6867 69.9452 74.6956C69.9717 74.7154 69.9982 74.733 70.0268 74.7485C70.0423 74.7595 70.0555 74.7661 70.0709 74.7749Z" fill="white"/>
<path d="M71.5463 55.0881C71.5419 55.0859 71.5353 55.0837 71.5286 55.0815C71.4868 55.0617 71.4449 55.0462 71.4007 55.033C71.3985 55.0308 71.3963 55.0308 71.3919 55.0308C71.3699 55.022 71.3456 55.0154 71.3235 55.011C71.2728 54.9977 71.2221 54.9889 71.1714 54.9823C71.0589 54.969 70.942 54.969 70.8274 54.9867L69.1646 54.0825C69.438 54.045 69.7093 54.0869 69.9474 54.217L71.5463 55.0881Z" fill="#6D6D6D"/>
<path d="M71.8992 74.2966C71.6147 74.6472 71.2398 74.8545 70.8649 74.9096C70.5694 74.9515 70.2761 74.8986 70.0269 74.7486C69.9982 74.7332 69.9718 74.7133 69.9453 74.6957C69.9343 74.6869 69.9232 74.6781 69.9122 74.6693C69.8813 74.6472 69.8527 74.6252 69.8262 74.5987L63.0779 68.3157L62.7802 68.6818L56.3627 76.5526C56.0782 76.9032 55.7033 77.1127 55.3284 77.1679C55.0506 77.2054 54.7793 77.1657 54.5389 77.0356C54.5191 77.0223 54.497 77.0113 54.4772 76.9981C54.4772 76.9981 54.4772 76.9981 54.475 76.9981C54.4441 76.9782 54.4132 76.9562 54.3823 76.9319C54.3493 76.9077 54.3206 76.8812 54.2897 76.8547C53.7163 76.321 53.7141 75.3198 54.2853 74.6185L61.0005 66.3794L54.2522 60.0965C53.6788 59.5606 53.6766 58.5616 54.2478 57.8603C54.5345 57.5074 54.9116 57.2979 55.2887 57.245C55.5401 57.2075 55.7893 57.2428 56.0121 57.3486C56.0187 57.353 56.0253 57.3553 56.0319 57.3575C56.0385 57.3619 56.0429 57.3641 56.0496 57.3685L56.054 57.3707C56.0606 57.3729 56.065 57.3773 56.0716 57.3795C56.1598 57.4258 56.2436 57.4854 56.3208 57.5582L61.7062 62.5731L61.4085 62.9391L63.0691 63.8411L69.7843 55.602C70.071 55.2492 70.4503 55.0397 70.8274 54.9867C70.9421 54.9691 71.059 54.9691 71.1715 54.9823C71.2222 54.989 71.2751 55 71.3236 55.011C71.3457 55.0154 71.3699 55.022 71.392 55.0309C71.3964 55.0309 71.3986 55.0309 71.4008 55.0331C71.4449 55.0463 71.4868 55.0617 71.5287 55.0816C71.5353 55.0838 71.542 55.086 71.5464 55.0882C71.5552 55.0926 71.5618 55.097 71.5684 55.0992C71.5794 55.1058 71.5882 55.1102 71.5993 55.1169C71.6919 55.1654 71.7779 55.2249 71.8573 55.2999C72.4329 55.8358 72.4329 56.837 71.8617 57.5383L65.1487 65.7774L71.8948 72.0604C72.4704 72.594 72.4726 73.5953 71.8992 74.2966Z" fill="#C6C6C6"/>
<path d="M69.8263 74.5986L68.1635 73.6945L62.7803 68.6818L63.078 68.3157L69.8263 74.5986Z" fill="#6D6D6D"/>
<path d="M70.8273 54.9867C70.4502 55.0396 70.0708 55.2491 69.7842 55.602L68.1213 54.6978C68.4102 54.345 68.7873 54.1355 69.1645 54.0825L70.8273 54.9867Z" fill="white"/>
<path d="M69.7842 55.6019L63.069 63.841L61.4084 62.9391L61.7062 62.573L68.1214 54.6978L69.7842 55.6019Z" fill="white"/>
<path d="M54.4771 76.9979C54.4969 77.0112 54.519 77.0222 54.5388 77.0354L52.8782 76.1312C52.79 76.0827 52.7062 76.0232 52.629 75.9504C52.0534 75.4167 52.0534 74.4155 52.6246 73.7142L59.3376 65.4751L61.0004 66.3793L54.2852 74.6184C53.714 75.3197 53.7162 76.3209 54.2896 76.8546C54.3205 76.881 54.3492 76.9075 54.3823 76.9318C54.4131 76.956 54.4418 76.9781 54.4749 76.9979C54.4771 76.9979 54.4771 76.9979 54.4771 76.9979Z" fill="white"/>
<path d="M61.0004 66.3793L59.3376 65.4751L52.5916 59.1921L54.2522 60.0963L61.0004 66.3793Z" fill="#6D6D6D"/>
<path d="M63.069 63.8411L61.4084 62.9391L61.7062 62.573L63.069 63.8411Z" fill="#C6C6C6"/>
<path d="M54.4087 56.4753L56.012 57.3486C55.7892 57.2427 55.54 57.2074 55.2886 57.2449C54.9115 57.2978 54.5344 57.5073 54.2477 57.8602C53.6765 58.5615 53.6788 59.5605 54.2521 60.0964L52.5915 59.1922C52.0159 58.6585 52.0137 57.6573 52.5871 56.956C52.8738 56.6032 53.2509 56.3937 53.628 56.3407C53.8993 56.301 54.1727 56.3451 54.4087 56.4753Z" fill="white"/>
</svg>
