<svg width="140" height="128" viewBox="0 0 140 128" fill="none" xmlns="http://www.w3.org/2000/svg">
<path d="M88.3256 29.7811L83.1724 26.9773C90.1141 30.7534 98.9259 33.4601 109.054 32.0378L114.207 34.8416C104.079 36.2662 95.2673 33.5573 88.3256 29.7811Z" fill="#0BD8D2"/>
<path d="M64.147 107.64L58.9938 104.836C41.3115 95.2172 29.2889 75.4727 23.8101 44.0176L28.9633 46.8214C34.4421 78.2765 46.467 98.021 64.147 107.64Z" fill="#126662"/>
<path d="M28.9633 46.8213L23.8101 44.0175C48.5902 40.5353 65.5829 14.5228 66.4783 13.1548L71.6315 15.9586C70.7383 17.3266 53.7434 43.3391 28.9633 46.8213Z" fill="#0BD8D2"/>
<path d="M71.6316 15.9587C72.5202 17.078 89.427 38.3239 114.207 34.8417C107.869 72.2188 93.1918 96.9334 71.4552 110.928C49.7593 103.039 35.1658 82.4371 28.9634 46.8214C53.7435 43.3392 70.7384 17.3267 71.6316 15.9587Z" fill="#2E9B9B"/>
<path d="M71.2312 108.913C61.0198 104.999 52.4997 98.0549 45.8994 88.2595C39.0932 78.1589 34.1074 64.7253 31.0684 48.3092C51.9525 44.42 67.0955 25.4805 71.7875 18.9231C76.4002 24.0333 89.9786 37.035 108.726 37.035C109.813 37.035 110.912 36.9898 112.009 36.9039C108.891 54.0367 103.858 68.7818 97.0334 80.7592C90.2996 92.5761 81.6235 102.046 71.2312 108.913Z" fill="#2E9B9B"/>
<g opacity="0.5">
<g opacity="0.5">
<path opacity="0.5" d="M71.2312 108.913C61.0198 104.999 52.4997 98.0549 45.8994 88.2595C39.0932 78.1589 34.1074 64.7253 31.0684 48.3092C51.9525 44.42 67.0955 25.4805 71.7875 18.9231C76.4002 24.0333 89.9786 37.035 108.726 37.035C109.813 37.035 110.912 36.9898 112.009 36.9039C108.891 54.0367 103.858 68.7818 97.0334 80.7592C90.2996 92.5761 81.6235 102.046 71.2312 108.913Z" fill="#1F4F4B"/>
</g>
</g>
<path d="M86.9192 44.1668C86.8921 44.1509 86.865 44.1374 86.8356 44.1238C86.4421 43.9112 86.0397 43.7145 85.6281 43.5359C85.5196 43.4884 85.4111 43.4409 85.3002 43.398C85.2822 43.3889 85.2618 43.3799 85.2437 43.3754C85.1171 43.3211 84.9905 43.2713 84.8616 43.2239C84.8616 43.2239 84.8616 43.2239 84.8593 43.2239C84.7259 43.1719 84.5902 43.1221 84.4523 43.0746C84.3144 43.0249 84.1764 42.9797 84.0363 42.9344C83.8802 42.8847 83.7219 42.8349 83.5614 42.7897C83.5184 42.7762 83.4732 42.7648 83.428 42.7535C83.3194 42.7219 83.2086 42.6925 83.0979 42.6654C83.0413 42.6473 82.9825 42.6337 82.9238 42.6201C82.8378 42.5975 82.7496 42.5772 82.6615 42.5568C82.5529 42.532 82.4467 42.5071 82.3381 42.4867C82.3268 42.4822 82.3155 42.4799 82.3042 42.4799C82.1731 42.4505 82.0397 42.4257 81.9062 42.4008C81.558 42.3375 81.2053 42.2832 80.848 42.2425C80.692 42.2222 80.5337 42.2041 80.3754 42.1905C80.3754 42.1905 80.3732 42.1905 80.3709 42.1905C80.2036 42.1747 80.0385 42.1611 79.8689 42.1521C79.844 42.1498 79.8192 42.1475 79.792 42.1453C79.6496 42.1362 79.5072 42.1295 79.3647 42.1272C78.2906 42.0865 77.1872 42.143 76.0611 42.3013C64.8367 43.8773 55.7151 54.9797 55.6948 67.0973C55.6948 67.2556 55.6948 67.4116 55.6993 67.5698C55.6993 67.6512 55.7016 67.7304 55.7038 67.8118C55.7084 67.952 55.7129 68.0922 55.7197 68.2324C55.7265 68.3816 55.7355 68.5331 55.7445 68.6823V68.7004C55.7559 68.8474 55.7672 68.9944 55.7785 69.1391C55.7807 69.1662 55.783 69.1911 55.7852 69.216C55.7965 69.3449 55.8101 69.4737 55.8237 69.6004C55.8282 69.6501 55.8327 69.6999 55.8395 69.7496C55.8734 70.0617 55.9141 70.3714 55.9639 70.6767C55.9639 70.679 55.9639 70.679 55.9639 70.679C55.9887 70.8418 56.0159 71.0023 56.0453 71.1629C56.0724 71.3234 56.1018 71.4839 56.1357 71.6422C56.199 71.961 56.2691 72.2753 56.3483 72.5851C56.3867 72.7412 56.4251 72.8949 56.4681 73.0487C56.5088 73.1934 56.5495 73.3358 56.5925 73.4783C56.597 73.4918 56.6015 73.5054 56.6038 73.5212C56.692 73.8197 56.7892 74.1114 56.891 74.4008C56.9407 74.5478 56.995 74.6948 57.0492 74.8395C57.056 74.8531 57.0605 74.8689 57.0651 74.8825C57.1148 75.0136 57.1646 75.1425 57.2188 75.2714C57.3319 75.5585 57.454 75.8389 57.5829 76.1171C57.6462 76.255 57.7118 76.3929 57.7796 76.5309C57.9786 76.9401 58.1911 77.3403 58.4195 77.7293C58.4263 77.7406 58.4331 77.7541 58.4399 77.7654C58.5077 77.883 58.5778 77.9984 58.6501 78.1137C58.7248 78.2403 58.8062 78.3669 58.8876 78.4913C58.9577 78.6043 59.0323 78.7151 59.1069 78.8237C59.1182 78.8372 59.125 78.8508 59.134 78.8621C59.2154 78.9842 59.3014 79.1063 59.3895 79.2262C59.6473 79.5857 59.9164 79.9339 60.2013 80.2708C60.294 80.3839 60.389 80.4947 60.4862 80.6032C60.5812 80.7117 60.6784 80.8203 60.7779 80.9265C60.8638 81.0215 60.9543 81.1143 61.0425 81.2069C61.359 81.5326 61.6846 81.8423 62.0215 82.1408C62.2386 82.333 62.4602 82.5184 62.6863 82.6971C62.7994 82.7875 62.9125 82.8757 63.0278 82.9616C63.1273 83.0407 63.229 83.1154 63.333 83.1877C63.3511 83.2013 63.3692 83.2149 63.3873 83.2262C63.7333 83.4749 64.0905 83.7101 64.4546 83.9294C64.5789 84.0063 64.7033 84.0786 64.8277 84.1487C64.9249 84.2053 65.0221 84.2595 65.1216 84.3138L59.9684 81.5099C54.2884 78.4189 50.5258 72.099 50.5393 64.2934C50.5619 52.1781 59.6812 41.0735 70.9057 39.4975C74.9011 38.9344 78.6253 39.6557 81.7638 41.3629L86.9192 44.1668Z" fill="black"/>
<path d="M96.3483 61.3833C96.3257 73.5009 87.2065 84.601 75.9798 86.1793C71.9843 86.7401 68.2601 86.021 65.1216 84.3138C65.0221 84.2596 64.9249 84.2053 64.8277 84.1488C64.7033 84.0787 64.579 84.004 64.4546 83.9294C64.0906 83.7101 63.7355 83.4749 63.3873 83.2262C63.3692 83.2149 63.3511 83.2014 63.3331 83.1878C63.2313 83.1131 63.1273 83.0385 63.0278 82.9616C62.9125 82.8757 62.7972 82.7875 62.6864 82.6971C62.4602 82.5184 62.2387 82.333 62.0216 82.1408C61.6847 81.8424 61.3591 81.5326 61.0425 81.207C60.9543 81.1143 60.8661 81.0216 60.7779 80.9266C60.6807 80.8203 60.5812 80.7118 60.4862 80.6033C60.389 80.4925 60.294 80.3817 60.2013 80.2709C59.9187 79.934 59.6474 79.5857 59.3896 79.2262C59.3037 79.1063 59.2177 78.9843 59.1341 78.8622C59.125 78.8508 59.1182 78.8373 59.1069 78.8237C59.0346 78.7152 58.96 78.6044 58.8876 78.4913C58.8062 78.3669 58.7271 78.2403 58.6502 78.1137C58.5778 77.9984 58.51 77.8831 58.4399 77.7655C58.4331 77.7542 58.4263 77.7406 58.4195 77.7293C58.1934 77.3404 57.9809 76.9401 57.7796 76.5309C57.7118 76.3952 57.6485 76.2573 57.5829 76.1171C57.4563 75.8412 57.3342 75.5586 57.2189 75.2714C57.1669 75.1425 57.1171 75.0136 57.0651 74.8825C57.0606 74.8689 57.0561 74.8531 57.0493 74.8395C56.995 74.6948 56.943 74.5479 56.891 74.4009C56.7892 74.1114 56.6943 73.8175 56.6038 73.5213C56.6016 73.5055 56.597 73.4919 56.5925 73.4783C56.5496 73.3359 56.5089 73.1911 56.4682 73.0487C56.4274 72.8949 56.3868 72.7412 56.3483 72.5852C56.2714 72.2754 56.1991 71.9611 56.1358 71.6423C56.1041 71.484 56.0725 71.3234 56.0453 71.1629C56.0159 71.0023 55.9888 70.8418 55.9639 70.679C55.9639 70.679 55.9639 70.679 55.9639 70.6767C55.9164 70.3715 55.8735 70.0617 55.8395 69.7497C55.8328 69.6999 55.8282 69.6501 55.8237 69.6004C55.8101 69.4738 55.7966 69.3449 55.7853 69.216C55.783 69.1911 55.7808 69.1663 55.7785 69.1391C55.7672 68.9944 55.7559 68.8474 55.7446 68.7005V68.6824C55.7355 68.5331 55.7265 68.3839 55.7197 68.2324C55.7129 68.0922 55.7084 67.952 55.7039 67.8118C55.7016 67.7304 55.6994 67.6513 55.6994 67.5699C55.6948 67.4116 55.6948 67.2556 55.6948 67.0973C55.7152 54.9797 64.8367 43.8774 76.0611 42.3013C77.1872 42.1431 78.2907 42.0865 79.3647 42.1272C79.5072 42.1295 79.6519 42.1363 79.7921 42.1453C79.8192 42.1476 79.8441 42.1498 79.869 42.1521C80.0363 42.1612 80.2036 42.1747 80.371 42.1905C80.3732 42.1905 80.3754 42.1905 80.3754 42.1905C80.5337 42.2041 80.692 42.2222 80.848 42.2425C81.2053 42.2833 81.5581 42.3375 81.9063 42.4008C82.0397 42.4257 82.1708 42.4506 82.3042 42.48C82.3155 42.48 82.3268 42.4822 82.3381 42.4868C82.4467 42.5094 82.5552 42.532 82.6615 42.5569C82.7497 42.5772 82.8356 42.5976 82.9238 42.6202C82.9826 42.6337 83.0414 42.6473 83.0979 42.6654C83.2087 42.6903 83.3195 42.7219 83.428 42.7536C83.4732 42.7649 83.5185 42.7762 83.5614 42.7898C83.722 42.835 83.8803 42.8847 84.0363 42.9345C84.1765 42.9797 84.3144 43.0249 84.4523 43.0747C84.588 43.1221 84.726 43.1719 84.8593 43.2239C84.8616 43.2239 84.8616 43.2239 84.8616 43.2239C84.9905 43.2714 85.1171 43.3211 85.2437 43.3754C85.2618 43.3799 85.2822 43.389 85.3003 43.398C85.4088 43.441 85.5196 43.4885 85.6282 43.5359C86.0397 43.7146 86.4422 43.9113 86.8356 44.1238C92.5631 47.1968 96.3619 53.5416 96.3483 61.3833Z" fill="#1F1F1F"/>
<path d="M83.7039 64.5512C83.6813 64.5512 83.6587 64.5286 83.6587 64.5286C83.6587 64.5286 83.6813 64.5286 83.7039 64.5512Z" fill="white"/>
<path d="M83.6812 64.5286C83.6812 64.5286 83.6586 64.5286 83.6586 64.506C83.6586 64.506 83.636 64.506 83.636 64.4834C83.6134 64.4834 83.6134 64.4608 83.5908 64.4608C83.5682 64.4608 83.5229 64.4382 83.5004 64.4382C83.4777 64.4382 83.4777 64.4382 83.4551 64.4382C83.4325 64.4382 83.3873 64.4156 83.3647 64.4156C83.3194 64.4156 83.2742 64.4156 83.229 64.4156C83.1612 64.4156 83.1159 64.4156 83.0481 64.4156C82.7089 64.4608 82.3697 64.6417 82.121 64.9582L78.5032 69.3449V66.6089L80.5382 64.1216C80.7869 63.805 81.1261 63.6241 81.4653 63.5789C81.714 63.5563 81.9628 63.5789 82.1662 63.692L83.6812 64.5286Z" fill="#6D6D6D"/>
<path d="M78.5032 66.6089V69.3449L76.9656 68.5083L78.5032 66.6089Z" fill="white"/>
<path d="M76.4907 74.229L74.9531 73.3924C74.8626 73.3472 74.7948 73.3019 74.727 73.2341L68.9158 67.7847L70.4534 68.6213L76.2646 74.0707C76.2872 74.0933 76.3324 74.1386 76.355 74.1611C76.355 74.1611 76.3776 74.1611 76.3776 74.1838C76.4002 74.2064 76.4228 74.2064 76.4455 74.229C76.4681 74.2064 76.4681 74.2064 76.4907 74.229Z" fill="#6D6D6D"/>
<path d="M72.1041 66.1791C72.1041 66.1791 72.0815 66.1791 72.0589 66.1565C72.0363 66.1339 71.9911 66.1339 71.9685 66.1113C71.9232 66.0886 71.9006 66.0886 71.8554 66.066C71.8328 66.066 71.8328 66.066 71.8102 66.066C71.7876 66.066 71.7423 66.066 71.7197 66.0434C71.6745 66.0434 71.6293 66.0434 71.5841 66.0434C71.5162 66.0434 71.471 66.0434 71.4032 66.0434C71.064 66.0886 70.7248 66.2695 70.4761 66.5861C69.956 67.1966 69.956 68.1011 70.4761 68.5759L68.9385 67.7393C68.4184 67.2644 68.441 66.36 68.9385 65.7495C69.1872 65.4329 69.5264 65.252 69.8656 65.2068C70.1143 65.1616 70.363 65.2068 70.5665 65.3198L72.1041 66.1791Z" fill="white"/>
<path d="M77.938 53.2001C77.938 53.2001 77.9154 53.2001 77.9154 53.1775C77.8927 53.1549 77.8701 53.1549 77.8475 53.1549C77.8249 53.1549 77.8249 53.1322 77.8023 53.1322C77.7797 53.1322 77.7571 53.1096 77.7344 53.1096C77.7119 53.1096 77.6892 53.087 77.6666 53.087C77.6666 53.087 77.6666 53.087 77.644 53.087C77.6214 53.087 77.5762 53.0644 77.5536 53.0644C77.4631 53.0418 77.3501 53.0644 77.2596 53.0644C76.536 53.1549 75.9481 53.8784 75.9481 54.6698L75.9255 69.7066L74.3879 68.2595L74.4105 53.8332C74.4105 53.0418 74.9985 52.3408 75.722 52.2278C75.9708 52.1826 76.2195 52.2278 76.423 52.3408L77.938 53.2001Z" fill="white"/>
<path d="M75.903 69.7067L74.3428 68.87V68.2595L75.903 69.7067Z" fill="white"/>
<path d="M83.9525 66.7218L78.1187 73.7992C77.87 74.1158 77.5308 74.2967 77.1917 74.3419C76.9429 74.3871 76.6942 74.3419 76.4681 74.2062C76.4455 74.1836 76.4228 74.1836 76.4002 74.161C76.4002 74.161 76.3776 74.161 76.3776 74.1384C76.3324 74.1158 76.3098 74.0932 76.2872 74.048L70.476 68.5985C69.9559 68.1237 69.9559 67.2192 70.476 66.6087C70.7247 66.2922 71.0639 66.1113 71.4031 66.066C71.4709 66.066 71.5161 66.066 71.5839 66.066C71.6292 66.066 71.6744 66.066 71.7196 66.066C71.7422 66.066 71.7875 66.066 71.8101 66.0887C71.8327 66.0887 71.8327 66.0887 71.8553 66.0887C71.9005 66.0887 71.9231 66.1113 71.9684 66.1339C71.991 66.1565 72.0362 66.1565 72.0588 66.1791C72.1492 66.2243 72.2397 66.2922 72.3301 66.36L74.3652 68.2594L75.9028 69.7065L75.9254 54.6698C75.9254 53.8784 76.5133 53.1774 77.2369 53.0643C77.3499 53.0417 77.4404 53.0417 77.5308 53.0643C77.5534 53.0643 77.5986 53.0643 77.6213 53.0869H77.6439C77.6665 53.0869 77.6891 53.0869 77.7117 53.1096C77.7343 53.1096 77.7569 53.1096 77.7795 53.1322C77.8021 53.1322 77.8021 53.1322 77.8248 53.1548C77.8474 53.1548 77.87 53.1774 77.8926 53.1774C77.8926 53.1774 77.9152 53.1774 77.9152 53.2C78.277 53.4035 78.5257 53.8105 78.5257 54.308L78.5031 66.6087V69.3447L82.0984 64.9807C82.3471 64.6641 82.6863 64.4832 83.0254 64.438C83.0933 64.438 83.1385 64.438 83.2063 64.438C83.2516 64.438 83.2968 64.438 83.342 64.438C83.3646 64.438 83.4098 64.438 83.4324 64.4606C83.4551 64.4606 83.4551 64.4606 83.4777 64.4606C83.5003 64.4606 83.5455 64.4832 83.5681 64.4832C83.5907 64.4832 83.5907 64.4832 83.6134 64.5059C83.6134 64.5059 83.636 64.5059 83.636 64.5285C83.636 64.5285 83.6586 64.5285 83.6586 64.5511H83.6812C83.7716 64.5963 83.8395 64.6415 83.9299 64.732C84.45 65.2068 84.45 66.0887 83.9525 66.7218Z" fill="#C6C6C6"/>
</svg>
