<svg width="136" height="118" viewBox="0 0 136 118" fill="none" xmlns="http://www.w3.org/2000/svg">
<path d="M84.0018 28.3192L78.8406 25.511C85.7932 29.293 94.6187 32.0039 104.762 30.5794L109.924 33.3876C99.78 34.8121 90.9545 32.099 84.0018 28.3192Z" fill="#0BD8D2"/>
<path d="M59.7877 106.298L54.6264 103.489C36.9165 93.8553 24.8751 74.0799 19.3877 42.5757L24.5489 45.3839C30.0363 76.8904 42.0777 96.6658 59.7877 106.298Z" fill="#126662"/>
<path d="M24.5489 45.3861L19.3877 42.5779C44.2065 39.0902 61.2258 13.0371 62.1226 11.667L67.2838 14.4752C66.387 15.8454 49.3678 41.8962 24.5489 45.3861Z" fill="#0BD8D2"/>
<path d="M67.2815 14.4729C68.1715 15.5939 85.1047 36.873 109.923 33.3854C103.576 70.8209 88.8754 95.574 67.1049 109.59C45.3751 101.689 30.7587 81.0551 24.5466 45.3838C49.3677 41.8961 66.3869 15.8453 67.2815 14.4729Z" fill="#2E9B9B"/>
<path d="M66.8831 107.575C56.6557 103.655 48.1223 96.6997 41.5116 86.8891C34.6949 76.7727 29.7012 63.3181 26.6575 46.8764C47.5742 42.9811 62.7409 24.012 67.4402 17.4443C72.0602 22.5626 85.6597 35.5846 104.436 35.5846C105.526 35.5846 106.626 35.5393 107.725 35.4532C104.602 52.6129 99.5604 67.381 92.7255 79.3771C85.979 91.2124 77.2894 100.695 66.8831 107.575Z" fill="#2E9B9B"/>
<g opacity="0.5">
<g opacity="0.5">
<path opacity="0.5" d="M66.8831 107.575C56.6557 103.655 48.1223 96.6997 41.5116 86.8891C34.6949 76.7727 29.7012 63.3181 26.6575 46.8764C47.5742 42.9811 62.7409 24.012 67.4402 17.4443C72.0602 22.5626 85.6597 35.5846 104.436 35.5846C105.526 35.5846 106.626 35.5393 107.725 35.4532C104.602 52.6129 99.5604 67.381 92.7255 79.3771C85.979 91.2124 77.2894 100.695 66.8831 107.575Z" fill="#1F4F4B"/>
</g>
</g>
<path d="M82.5933 42.7273C82.5661 42.7115 82.539 42.6979 82.5095 42.6843C82.1155 42.4714 81.7124 42.2744 81.3002 42.0955C81.1914 42.0479 81.0828 42.0004 80.9718 41.9574C80.9537 41.9483 80.9333 41.9392 80.9152 41.9347C80.7883 41.8804 80.6615 41.8305 80.5324 41.783C80.5324 41.783 80.5324 41.783 80.5302 41.783C80.3965 41.7309 80.2607 41.6811 80.1225 41.6335C79.9844 41.5837 79.8462 41.5384 79.7058 41.4931C79.5496 41.4433 79.391 41.3934 79.2302 41.3481C79.1872 41.3346 79.1419 41.3232 79.0966 41.3119C78.9879 41.2802 78.877 41.2508 78.766 41.2236C78.7093 41.2055 78.6505 41.1919 78.5916 41.1783C78.5055 41.1556 78.4172 41.1353 78.3289 41.1149C78.2202 41.09 78.1137 41.065 78.005 41.0447C77.9937 41.0401 77.9824 41.0379 77.9711 41.0379C77.8397 41.0084 77.7061 40.9835 77.5725 40.9586C77.2237 40.8952 76.8704 40.8408 76.5126 40.8001C76.3563 40.7797 76.1978 40.7616 76.0393 40.748C76.0393 40.748 76.037 40.748 76.0348 40.748C75.8672 40.7321 75.7018 40.7185 75.532 40.7095C75.5071 40.7072 75.4822 40.705 75.455 40.7027C75.3123 40.6936 75.1696 40.6868 75.027 40.6846C73.9512 40.6438 72.8461 40.7004 71.7182 40.859C60.4763 42.4374 51.3405 53.5571 51.3201 65.6937C51.3201 65.8522 51.3201 66.0085 51.3246 66.167C51.3246 66.2485 51.3269 66.3278 51.3291 66.4093C51.3337 66.5497 51.3382 66.6901 51.345 66.8305C51.3518 66.98 51.3608 67.1317 51.3699 67.2812V67.2993C51.3812 67.4465 51.3926 67.5937 51.4039 67.7387C51.4061 67.7658 51.4084 67.7908 51.4107 67.8157C51.422 67.9447 51.4356 68.0738 51.4492 68.2007C51.4537 68.2505 51.4582 68.3003 51.465 68.3501C51.499 68.6627 51.5398 68.9729 51.5896 69.2787C51.5896 69.2809 51.5896 69.2809 51.5896 69.2809C51.6145 69.444 51.6417 69.6048 51.6711 69.7656C51.6983 69.9264 51.7277 70.0872 51.7617 70.2457C51.8251 70.565 51.8953 70.8798 51.9746 71.1901C52.0131 71.3463 52.0516 71.5004 52.0946 71.6543C52.1354 71.7993 52.1761 71.942 52.2191 72.0846C52.2237 72.0982 52.2282 72.1118 52.2305 72.1276C52.3188 72.4266 52.4162 72.7187 52.5181 73.0086C52.5679 73.1558 52.6223 73.303 52.6766 73.448C52.6834 73.4616 52.6879 73.4774 52.6925 73.491C52.7423 73.6224 52.7921 73.7515 52.8465 73.8805C52.9597 74.1681 53.082 74.449 53.2111 74.7276C53.2745 74.8657 53.3402 75.0038 53.4081 75.142C53.6074 75.5519 53.8203 75.9527 54.049 76.3423C54.0558 76.3536 54.0626 76.3672 54.0694 76.3785C54.1373 76.4963 54.2076 76.6118 54.28 76.7273C54.3547 76.8541 54.4363 76.9809 54.5178 77.1055C54.588 77.2187 54.6628 77.3297 54.7375 77.4384C54.7488 77.452 54.7556 77.4656 54.7647 77.4769C54.8462 77.5992 54.9322 77.7215 55.0206 77.8415C55.2788 78.2016 55.5483 78.5503 55.8336 78.8878C55.9264 79.001 56.0216 79.112 56.1189 79.2207C56.2141 79.3294 56.3114 79.4381 56.4111 79.5446C56.4972 79.6397 56.5878 79.7325 56.6761 79.8254C56.9931 80.1515 57.3192 80.4618 57.6567 80.7607C57.8741 80.9532 58.096 81.1389 58.3225 81.3178C58.4357 81.4084 58.549 81.4967 58.6645 81.5828C58.7641 81.662 58.866 81.7368 58.9702 81.8092C58.9883 81.8228 59.0064 81.8364 59.0246 81.8478C59.3711 82.0969 59.7289 82.3324 60.0935 82.5521C60.2181 82.6291 60.3426 82.7015 60.4672 82.7717C60.5646 82.8284 60.6619 82.8827 60.7616 82.9371L55.6003 80.1288C49.9114 77.033 46.143 70.7032 46.1565 62.8854C46.1792 50.7512 55.3127 39.6292 66.5547 38.0507C70.5564 37.4868 74.2863 38.2093 77.4298 39.9191L82.5933 42.7273Z" fill="black"/>
<path d="M92.037 59.9708C92.0144 72.1073 82.8809 83.2247 71.6367 84.8055C67.6349 85.3672 63.905 84.647 60.7616 82.9371C60.6619 82.8828 60.5645 82.8284 60.4672 82.7718C60.3426 82.7016 60.218 82.6268 60.0935 82.5521C59.7289 82.3325 59.3733 82.0969 59.0246 81.8478C59.0064 81.8365 58.9883 81.8229 58.9702 81.8093C58.8683 81.7346 58.7641 81.6598 58.6645 81.5828C58.549 81.4968 58.4335 81.4085 58.3225 81.3179C58.096 81.139 57.8741 80.9532 57.6567 80.7608C57.3192 80.4618 56.9931 80.1515 56.676 79.8254C56.5877 79.7326 56.4994 79.6397 56.4111 79.5446C56.3137 79.4382 56.2141 79.3295 56.1189 79.2208C56.0215 79.1098 55.9264 78.9988 55.8336 78.8879C55.5505 78.5504 55.2787 78.2016 55.0205 77.8415C54.9345 77.7215 54.8484 77.5992 54.7646 77.477C54.7556 77.4656 54.7488 77.4521 54.7375 77.4384C54.665 77.3297 54.5903 77.2188 54.5178 77.1055C54.4363 76.981 54.357 76.8542 54.28 76.7273C54.2075 76.6118 54.1396 76.4963 54.0694 76.3786C54.0626 76.3672 54.0558 76.3536 54.049 76.3423C53.8225 75.9528 53.6097 75.552 53.4081 75.142C53.3402 75.0061 53.2767 74.868 53.2111 74.7276C53.0842 74.4513 52.962 74.1682 52.8465 73.8806C52.7944 73.7515 52.7445 73.6224 52.6925 73.4911C52.6879 73.4775 52.6834 73.4616 52.6766 73.448C52.6223 73.3031 52.5702 73.1559 52.5181 73.0087C52.4162 72.7188 52.321 72.4244 52.2304 72.1277C52.2282 72.1119 52.2237 72.0983 52.2191 72.0847C52.1761 71.942 52.1353 71.7971 52.0946 71.6544C52.0538 71.5004 52.013 71.3464 51.9746 71.1901C51.8976 70.8799 51.8251 70.5651 51.7617 70.2457C51.73 70.0872 51.6983 69.9264 51.6711 69.7656C51.6416 69.6049 51.6145 69.444 51.5896 69.281C51.5896 69.281 51.5896 69.281 51.5896 69.2787C51.542 68.973 51.499 68.6627 51.465 68.3502C51.4582 68.3004 51.4537 68.2506 51.4491 68.2007C51.4356 68.0739 51.422 67.9448 51.4106 67.8157C51.4084 67.7908 51.4061 67.7659 51.4038 67.7387C51.3925 67.5938 51.3812 67.4466 51.3699 67.2994V67.2813C51.3608 67.1318 51.3518 66.9823 51.345 66.8306C51.3382 66.6902 51.3337 66.5498 51.3291 66.4093C51.3269 66.3278 51.3246 66.2486 51.3246 66.167C51.3201 66.0085 51.3201 65.8522 51.3201 65.6937C51.3404 53.5572 60.4762 42.4375 71.7182 40.859C72.846 40.7005 73.9512 40.6439 75.0269 40.6846C75.1696 40.6869 75.3145 40.6937 75.4549 40.7028C75.4821 40.705 75.5071 40.7073 75.532 40.7095C75.6995 40.7186 75.8671 40.7322 76.0347 40.748C76.037 40.748 76.0392 40.748 76.0392 40.748C76.1978 40.7616 76.3563 40.7798 76.5126 40.8001C76.8704 40.8409 77.2237 40.8953 77.5725 40.9587C77.7061 40.9836 77.8374 41.0085 77.971 41.0379C77.9824 41.0379 77.9937 41.0402 78.005 41.0447C78.1137 41.0674 78.2224 41.09 78.3288 41.1149C78.4172 41.1353 78.5032 41.1557 78.5915 41.1783C78.6504 41.1919 78.7093 41.2055 78.7659 41.2236C78.8769 41.2485 78.9879 41.2803 79.0966 41.312C79.1419 41.3233 79.1872 41.3346 79.2302 41.3482C79.391 41.3935 79.5495 41.4433 79.7058 41.4931C79.8462 41.5384 79.9843 41.5837 80.1225 41.6335C80.2584 41.6811 80.3965 41.7309 80.5301 41.783C80.5324 41.783 80.5324 41.783 80.5324 41.783C80.6615 41.8306 80.7883 41.8804 80.9151 41.9348C80.9333 41.9393 80.9536 41.9483 80.9718 41.9574C81.0805 42.0004 81.1914 42.048 81.3001 42.0955C81.7123 42.2745 82.1154 42.4715 82.5095 42.6844C88.2459 45.7621 92.0506 52.1168 92.037 59.9708Z" fill="#1F1F1F"/>
<path d="M69.2562 72.2815L67.6121 71.387C68.8418 72.0551 70.298 72.3381 71.8584 72.1185C76.2474 71.5025 79.8256 67.1452 79.8347 62.4097C79.8392 60.1133 79.0148 58.0728 77.5156 56.6619C77.0559 56.2293 77.0581 55.4254 77.5179 54.866C77.7466 54.5852 78.0478 54.4199 78.349 54.3768C78.5687 54.3451 78.7861 54.3813 78.9786 54.4855L80.6228 55.3801C80.4303 55.2759 80.2128 55.2419 79.9932 55.2714C79.692 55.3144 79.3908 55.4797 79.1621 55.7606C78.7 56.3199 78.7 57.1239 79.1598 57.5565C80.659 58.9674 81.4833 61.0079 81.4788 63.3043C81.4698 68.0398 77.8916 72.397 73.5026 73.013C71.9399 73.2327 70.4837 72.9496 69.2562 72.2815Z" fill="white"/>
<path d="M69.5011 59.2958L67.8569 58.4013L69.4037 55.7153L71.0479 56.6099L69.5011 59.2958Z" fill="#6D6D6D"/>
<path d="M69.8359 61.0283L68.1917 60.1337C68.1827 60.1292 68.1759 60.1246 68.1691 60.1201C67.6301 59.803 67.4919 59.0331 67.8565 58.3989L69.5007 59.2935C69.1361 59.9276 69.2743 60.6976 69.8132 61.0147C69.82 61.0215 69.8291 61.026 69.8359 61.0283Z" fill="#6D6D6D"/>
<path d="M70.4091 54.2545L68.7649 53.36L66.7153 52.1506L68.3595 53.0452L70.4091 54.2545Z" fill="#6D6D6D"/>
<path d="M68.0062 49.843L69.6504 50.7376C69.4556 50.6311 69.2382 50.5994 69.0231 50.6288L67.3789 49.7343C67.594 49.7026 67.8115 49.7366 68.0062 49.843Z" fill="white"/>
<path d="M67.9949 74.6053L66.3507 73.7107C63.4655 72.1413 61.5518 68.9322 61.5586 64.9758C61.5677 60.0139 64.6001 55.3757 68.7649 53.3579L70.4091 54.2525C66.2443 56.2703 63.2118 60.9084 63.2028 65.8704C63.196 69.8268 65.1097 73.0359 67.9949 74.6053Z" fill="white"/>
<path d="M68.3595 53.0454L66.7153 52.1508C66.1786 51.8338 66.0382 51.0638 66.4028 50.4319C66.6316 50.0356 67.003 49.7865 67.3812 49.7344L69.0253 50.6289C68.6471 50.681 68.2757 50.9301 68.047 51.3265C67.6801 51.9583 67.8228 52.7283 68.3595 53.0454Z" fill="white"/>
<path d="M69.023 50.6288C69.2495 50.5971 69.4782 50.6356 69.6798 50.7534L74.1956 53.4121C74.2612 53.4506 74.3201 53.4959 74.3767 53.548C74.4356 53.6114 74.4832 53.6612 74.5217 53.7201C74.5692 53.7971 74.6032 53.8583 74.6281 53.9262C74.6576 54.0055 74.678 54.0779 74.6915 54.1527C74.7074 54.2365 74.7142 54.3112 74.7142 54.3927C74.7142 54.4765 74.7051 54.5535 74.6915 54.6305C74.6757 54.7256 74.6531 54.8072 74.6259 54.8819C74.5919 54.977 74.5534 55.0563 74.5104 55.1333L71.4508 60.4417C71.222 60.8381 70.8506 61.0849 70.4724 61.1393C70.2459 61.171 70.0149 61.1325 69.8134 61.0147C69.2744 60.6976 69.1362 59.9276 69.5008 59.2935L71.0476 56.6076C67.868 58.1838 65.5625 61.7371 65.5557 65.5373C65.5467 70.2728 69.1113 73.6268 73.5026 73.0085C77.8915 72.3926 81.4698 68.0353 81.4788 63.2998C81.4834 61.0034 80.659 58.9629 79.1598 57.552C78.7001 57.1194 78.7023 56.3154 79.162 55.7561C79.3908 55.4752 79.692 55.3099 79.9932 55.2669C80.2944 55.2239 80.5956 55.3054 80.8243 55.5228C82.7674 57.3504 83.8364 59.9978 83.8296 62.9691C83.8183 69.1065 79.1825 74.7524 73.4958 75.5495C67.8068 76.349 63.1891 72.0053 63.2005 65.8679C63.2095 60.906 66.2419 56.2679 70.4067 54.25L68.3549 53.0407C67.8182 52.7236 67.6778 51.9536 68.0424 51.3218C68.2757 50.93 68.6448 50.6809 69.023 50.6288Z" fill="#C6C6C6"/>
</svg>
