<svg width="128" height="125" viewBox="0 0 128 125" fill="none" xmlns="http://www.w3.org/2000/svg">
<path d="M81.6474 28.6681L76.4941 25.8643C83.4359 29.6404 92.2477 32.347 102.375 30.9247L107.529 33.7286C97.4009 35.1531 88.5891 32.4443 81.6474 28.6681Z" fill="#0BD8D2"/>
<path d="M57.4688 106.527L52.3156 103.723C34.6333 94.1039 22.6106 74.3594 17.1318 42.9043L22.285 45.7081C27.7638 77.1632 39.7887 96.9077 57.4688 106.527Z" fill="#126662"/>
<path d="M22.285 45.7083L17.1318 42.9044C41.912 39.4222 58.9046 13.4098 59.8001 12.0417L64.9533 14.8456C64.0601 16.2136 47.0652 42.2261 22.285 45.7083Z" fill="#0BD8D2"/>
<path d="M64.9534 14.8457C65.842 15.965 82.7487 37.2109 107.529 33.7287C101.191 71.1058 86.5136 95.8204 64.777 109.815C43.0811 101.925 28.4875 81.324 22.2852 45.7084C47.0653 42.2262 64.0602 16.2137 64.9534 14.8457Z" fill="#2E9B9B"/>
<path d="M64.553 107.8C54.3415 103.886 45.8215 96.9419 39.2211 87.1465C32.415 77.0458 27.4291 63.6123 24.3901 47.1962C45.2743 43.307 60.4173 24.3674 65.1092 17.8101C69.722 22.9203 83.3003 35.922 102.048 35.922C103.135 35.922 104.234 35.8768 105.331 35.7908C102.213 52.9237 97.1793 67.6688 90.3552 79.6462C83.6214 91.4631 74.9453 100.933 64.553 107.8Z" fill="#2E9B9B"/>
<g opacity="0.5">
<g opacity="0.5">
<path opacity="0.5" d="M64.553 107.8C54.3415 103.886 45.8215 96.9419 39.2211 87.1465C32.415 77.0458 27.4291 63.6123 24.3901 47.1962C45.2743 43.307 60.4173 24.3674 65.1092 17.8101C69.722 22.9203 83.3003 35.922 102.048 35.922C103.135 35.922 104.234 35.8768 105.331 35.7908C102.213 52.9237 97.1793 67.6688 90.3552 79.6462C83.6214 91.4631 74.9453 100.933 64.553 107.8Z" fill="#1F4F4B"/>
</g>
</g>
<path d="M80.241 43.0537C80.2139 43.0379 80.1868 43.0243 80.1574 43.0108C79.7639 42.7982 79.3614 42.6015 78.9499 42.4229C78.8414 42.3754 78.7328 42.3279 78.622 42.2849C78.6039 42.2759 78.5836 42.2668 78.5655 42.2623C78.4389 42.208 78.3123 42.1583 78.1834 42.1108C78.1834 42.1108 78.1834 42.1108 78.1811 42.1108C78.0477 42.0588 77.912 42.0091 77.7741 41.9616C77.6362 41.9118 77.4982 41.8666 77.358 41.8214C77.202 41.7716 77.0437 41.7219 76.8832 41.6767C76.8402 41.6631 76.795 41.6518 76.7498 41.6405C76.6412 41.6088 76.5304 41.5794 76.4197 41.5523C76.3631 41.5342 76.3043 41.5207 76.2455 41.5071C76.1596 41.4845 76.0714 41.4641 75.9833 41.4438C75.8747 41.4189 75.7684 41.394 75.6599 41.3737C75.6486 41.3692 75.6373 41.3669 75.626 41.3669C75.4948 41.3375 75.3614 41.3126 75.228 41.2877C74.8798 41.2245 74.5271 41.1702 74.1698 41.1295C74.0138 41.1091 73.8555 41.091 73.6972 41.0775C73.6972 41.0775 73.6949 41.0775 73.6927 41.0775C73.5254 41.0616 73.3603 41.0481 73.1907 41.039C73.1658 41.0368 73.141 41.0345 73.1138 41.0322C72.9714 41.0232 72.8289 41.0164 72.6865 41.0142C71.6124 40.9735 70.509 41.03 69.3829 41.1883C58.1585 42.7643 49.0369 53.8666 49.0166 65.9842C49.0166 66.1425 49.0166 66.2985 49.0211 66.4568C49.0211 66.5382 49.0233 66.6173 49.0256 66.6988C49.0301 66.839 49.0347 66.9791 49.0415 67.1193C49.0482 67.2686 49.0573 67.42 49.0663 67.5693V67.5874C49.0776 67.7344 49.0889 67.8813 49.1002 68.0261C49.1025 68.0532 49.1048 68.0781 49.107 68.1029C49.1183 68.2318 49.1319 68.3607 49.1455 68.4873C49.15 68.5371 49.1545 68.5868 49.1613 68.6366C49.1952 68.9486 49.2359 69.2584 49.2857 69.5636C49.2857 69.5659 49.2857 69.5659 49.2857 69.5659C49.3105 69.7287 49.3377 69.8893 49.3671 70.0498C49.3942 70.2104 49.4236 70.3709 49.4575 70.5292C49.5208 70.848 49.5909 71.1623 49.6701 71.4721C49.7085 71.6281 49.7469 71.7819 49.7899 71.9356C49.8306 72.0803 49.8713 72.2228 49.9143 72.3652C49.9188 72.3788 49.9233 72.3924 49.9256 72.4082C50.0138 72.7067 50.111 72.9984 50.2127 73.2878C50.2625 73.4348 50.3167 73.5818 50.371 73.7265C50.3778 73.74 50.3823 73.7559 50.3869 73.7694C50.4366 73.9006 50.4863 74.0295 50.5406 74.1583C50.6537 74.4455 50.7758 74.7259 50.9047 75.004C50.968 75.1419 51.0335 75.2799 51.1014 75.4178C51.3004 75.8271 51.5129 76.2273 51.7413 76.6162C51.7481 76.6275 51.7549 76.6411 51.7616 76.6524C51.8295 76.77 51.8996 76.8853 51.9719 77.0006C52.0465 77.1273 52.1279 77.2539 52.2093 77.3783C52.2794 77.4913 52.3541 77.6021 52.4287 77.7107C52.44 77.7242 52.4468 77.7378 52.4558 77.7491C52.5372 77.8712 52.6231 77.9933 52.7113 78.1131C52.9691 78.4726 53.2382 78.8209 53.5231 79.1578C53.6158 79.2708 53.7108 79.3816 53.808 79.4902C53.903 79.5987 54.0002 79.7073 54.0997 79.8135C54.1856 79.9085 54.276 80.0012 54.3642 80.0939C54.6808 80.4195 55.0064 80.7293 55.3433 81.0278C55.5604 81.22 55.782 81.4054 56.0081 81.584C56.1212 81.6744 56.2342 81.7627 56.3496 81.8486C56.449 81.9277 56.5508 82.0023 56.6548 82.0747C56.6729 82.0883 56.691 82.1018 56.7091 82.1131C57.055 82.3618 57.4123 82.597 57.7763 82.8164C57.9007 82.8932 58.0251 82.9656 58.1494 83.0357C58.2467 83.0922 58.3439 83.1465 58.4434 83.2007L53.2902 80.3969C47.6101 77.3059 43.8476 70.9859 43.8611 63.1804C43.8837 51.0651 53.003 39.9605 64.2274 38.3844C68.2229 37.8214 71.9471 38.5427 75.0856 40.2499L80.241 43.0537Z" fill="black"/>
<path d="M89.6701 60.2703C89.6475 72.3879 80.5282 83.488 69.3015 85.0663C65.3061 85.6271 61.5819 84.908 58.4434 83.2008C58.3439 83.1466 58.2467 83.0923 58.1495 83.0357C58.0251 82.9656 57.9007 82.891 57.7764 82.8164C57.4123 82.5971 57.0573 82.3619 56.7091 82.1132C56.691 82.1019 56.6729 82.0883 56.6548 82.0747C56.5531 82.0001 56.4491 81.9255 56.3496 81.8486C56.2343 81.7627 56.1189 81.6745 56.0081 81.5841C55.782 81.4054 55.5604 81.22 55.3434 81.0278C55.0064 80.7293 54.6808 80.4195 54.3643 80.094C54.2761 80.0012 54.1879 79.9085 54.0997 79.8136C54.0025 79.7073 53.903 79.5988 53.808 79.4902C53.7108 79.3794 53.6158 79.2686 53.5231 79.1578C53.2405 78.8209 52.9691 78.4727 52.7114 78.1132C52.6254 77.9933 52.5395 77.8712 52.4559 77.7491C52.4468 77.7378 52.44 77.7243 52.4287 77.7107C52.3563 77.6022 52.2817 77.4914 52.2094 77.3783C52.128 77.2539 52.0488 77.1273 51.972 77.0007C51.8996 76.8853 51.8318 76.7701 51.7617 76.6525C51.7549 76.6411 51.7481 76.6276 51.7413 76.6163C51.5152 76.2274 51.3027 75.8271 51.1014 75.4178C51.0336 75.2822 50.9703 75.1443 50.9047 75.0041C50.7781 74.7282 50.656 74.4456 50.5406 74.1584C50.4886 74.0295 50.4389 73.9006 50.3869 73.7695C50.3824 73.7559 50.3778 73.7401 50.3711 73.7265C50.3168 73.5818 50.2648 73.4348 50.2128 73.2879C50.111 72.9984 50.0161 72.7045 49.9256 72.4083C49.9233 72.3924 49.9188 72.3788 49.9143 72.3653C49.8713 72.2228 49.8306 72.0781 49.7899 71.9357C49.7492 71.7819 49.7085 71.6281 49.6701 71.4721C49.5932 71.1623 49.5208 70.848 49.4575 70.5292C49.4259 70.3709 49.3942 70.2104 49.3671 70.0498C49.3377 69.8893 49.3106 69.7287 49.2857 69.5659C49.2857 69.5659 49.2857 69.5659 49.2857 69.5637C49.2382 69.2584 49.1953 68.9487 49.1613 68.6366C49.1545 68.5869 49.15 68.5371 49.1455 68.4874C49.1319 68.3607 49.1184 68.2319 49.1071 68.103C49.1048 68.0781 49.1025 68.0532 49.1003 68.0261C49.089 67.8814 49.0777 67.7344 49.0664 67.5874V67.5693C49.0573 67.4201 49.0483 67.2709 49.0415 67.1194C49.0347 66.9792 49.0302 66.839 49.0257 66.6988C49.0234 66.6174 49.0211 66.5383 49.0211 66.4569C49.0166 66.2986 49.0166 66.1426 49.0166 65.9843C49.037 53.8667 58.1585 42.7643 69.3829 41.1883C70.509 41.03 71.6124 40.9735 72.6865 41.0142C72.829 41.0165 72.9737 41.0232 73.1139 41.0323C73.141 41.0346 73.1659 41.0368 73.1907 41.0391C73.3581 41.0481 73.5254 41.0617 73.6927 41.0775C73.695 41.0775 73.6972 41.0775 73.6972 41.0775C73.8555 41.0911 74.0138 41.1092 74.1698 41.1295C74.5271 41.1702 74.8798 41.2245 75.2281 41.2878C75.3615 41.3127 75.4926 41.3375 75.626 41.3669C75.6373 41.3669 75.6486 41.3692 75.6599 41.3737C75.7685 41.3963 75.877 41.4189 75.9833 41.4438C76.0715 41.4642 76.1574 41.4845 76.2456 41.5071C76.3044 41.5207 76.3632 41.5343 76.4197 41.5524C76.5305 41.5772 76.6413 41.6089 76.7498 41.6405C76.795 41.6518 76.8403 41.6632 76.8832 41.6767C77.0438 41.722 77.202 41.7717 77.3581 41.8214C77.4982 41.8667 77.6362 41.9119 77.7741 41.9616C77.9098 42.0091 78.0477 42.0589 78.1811 42.1109C78.1834 42.1109 78.1834 42.1109 78.1834 42.1109C78.3123 42.1583 78.4389 42.2081 78.5655 42.2624C78.5836 42.2669 78.604 42.2759 78.6221 42.285C78.7306 42.3279 78.8414 42.3754 78.9499 42.4229C79.3615 42.6015 79.7639 42.7983 80.1574 43.0108C85.8849 46.0837 89.6837 52.4286 89.6701 60.2703Z" fill="#1F1F1F"/>
<path d="M65.2698 73.0231L63.2076 71.9016C63.1239 71.8541 63.0448 71.7976 62.9724 71.7297L65.0346 72.849C65.0753 72.8897 65.1205 72.9259 65.1657 72.9553C65.1883 72.9734 65.211 72.9892 65.2358 73.0028C65.2472 73.0096 65.2585 73.0164 65.2698 73.0231Z" fill="white"/>
<path d="M81.1747 52.6726C81.1476 52.6568 81.116 52.6455 81.0865 52.6342C81.0413 52.6161 80.9961 52.6025 80.9509 52.5912C80.9034 52.5776 80.8559 52.5708 80.8084 52.5641C80.7609 52.5573 80.7135 52.555 80.666 52.555C80.6072 52.555 80.5461 52.5595 80.4873 52.5686C80.1391 52.6183 79.7887 52.8105 79.5218 53.1361L66.0046 69.5929L64.3223 68.0101L77.4619 52.0146C77.7287 51.689 78.0769 51.4968 78.4252 51.447C78.6807 51.4109 78.9339 51.4516 79.1555 51.5737L81.1747 52.6726Z" fill="white"/>
<path d="M65.0345 72.8492L62.9723 71.7299L56.7043 65.8328L58.7665 66.9543L65.0345 72.8492Z" fill="#6D6D6D"/>
<path d="M60.4512 64.4238C60.4196 64.408 60.3879 64.3921 60.3563 64.3808C60.311 64.3605 60.2658 64.3446 60.2183 64.3333C60.2048 64.3288 60.189 64.3243 60.1754 64.322C60.1392 64.313 60.103 64.3062 60.0668 64.3039C60.0623 64.3017 60.0578 64.3017 60.0533 64.3017C60.0103 64.2949 59.9673 64.2926 59.9221 64.2926C59.8611 64.2926 59.7978 64.2972 59.7367 64.3062C59.3862 64.3537 59.038 64.5482 58.7712 64.8715C58.2376 65.5227 58.2353 66.4543 58.7667 66.954L56.7045 65.8325C56.1731 65.3328 56.1754 64.4012 56.709 63.7522C56.9758 63.4266 57.3263 63.2322 57.6745 63.1847C57.9278 63.1485 58.181 63.1869 58.4026 63.309L60.4241 64.4102C60.4332 64.4147 60.4422 64.4193 60.4512 64.4238Z" fill="white"/>
<path d="M81.4485 54.9473L66.9657 72.5776C66.6989 72.9054 66.3484 73.0976 65.998 73.1474C65.7334 73.1836 65.4666 73.1383 65.236 73.0027C65.2111 72.9891 65.1885 72.9733 65.1658 72.9552C65.1206 72.9258 65.0754 72.8896 65.0347 72.8489L58.7667 66.954C58.2354 66.4543 58.2376 65.5227 58.7713 64.8715C59.0381 64.5482 59.3863 64.3537 59.7368 64.3062C59.7978 64.2972 59.8611 64.2927 59.9222 64.2927C59.9674 64.2927 60.0104 64.2949 60.0533 64.3017C60.0579 64.3017 60.0624 64.3017 60.0669 64.304C60.1031 64.3062 60.1393 64.313 60.1755 64.322C60.189 64.3243 60.2049 64.3288 60.2184 64.3333C60.2659 64.3447 60.3111 64.3605 60.3564 64.3808C60.3744 64.3876 60.3903 64.3944 60.4084 64.4034C60.4129 64.4057 60.4197 64.408 60.4242 64.4102C60.4332 64.4147 60.4423 64.4193 60.4513 64.4238C60.5395 64.4713 60.6232 64.5301 60.7001 64.6024L64.3224 68.01L66.0047 69.5928L79.522 53.136C79.7888 52.8104 80.1393 52.6182 80.4875 52.5685C80.5463 52.5594 80.6074 52.5549 80.6662 52.5549C80.7136 52.5549 80.7611 52.5572 80.8086 52.564C80.8561 52.5708 80.9036 52.5775 80.9511 52.5911C80.9963 52.6024 81.0415 52.616 81.0867 52.6341C81.1161 52.6454 81.1455 52.6589 81.1749 52.6725C81.1862 52.677 81.1975 52.6838 81.2066 52.6883C81.2948 52.7358 81.3762 52.7924 81.4508 52.8647C81.9821 53.3644 81.9821 54.296 81.4485 54.9473Z" fill="#C6C6C6"/>
<path d="M60.4238 64.41C60.4327 64.4145 60.4417 64.419 60.4507 64.4235C60.4193 64.4078 60.3879 64.3921 60.3564 64.3809C60.3789 64.3898 60.4013 64.3988 60.4238 64.41Z" fill="white"/>
</svg>
