<svg width="147" height="145" viewBox="0 0 147 145" fill="none" xmlns="http://www.w3.org/2000/svg">
<path d="M89.4848 43.1492L84.3281 40.3447C91.2715 44.1218 100.092 46.8358 110.224 45.4109L115.381 48.2154C105.226 49.6403 96.4281 46.9263 89.4848 43.1492Z" fill="#0BD8D2"/>
<path d="M65.2849 121.019L60.1282 118.215C42.4418 108.603 30.4096 88.8354 24.9363 57.3752L30.0929 60.1797C35.5888 91.6625 47.621 111.407 65.2849 121.019Z" fill="#126662"/>
<path d="M30.0929 60.1796L24.9363 57.3751C49.7244 53.9147 66.7324 27.8827 67.6144 26.5256L72.7711 29.3301C71.889 30.6871 54.8811 56.7192 30.0929 60.1796Z" fill="#0BD8D2"/>
<path d="M72.7712 29.3301C73.6532 30.4383 90.5707 51.6982 115.359 48.2152C109.026 85.601 94.3477 110.321 72.5902 124.321C50.9006 116.428 36.29 95.8238 30.093 60.2022C54.8812 56.7192 71.8891 30.6871 72.7712 29.3301Z" fill="#2E9B9B"/>
<path d="M72.3867 122.308C62.1638 118.395 53.6598 111.452 47.0557 101.659C40.248 91.5491 35.2723 78.1146 32.219 61.6947C53.117 57.8046 68.2478 38.8516 72.9521 32.2927C77.566 37.4041 91.1587 50.4089 109.908 50.4089C110.994 50.4089 112.102 50.3636 113.188 50.2732C110.066 67.4168 105.045 82.163 98.2152 94.1274C91.4527 105.956 82.7678 115.433 72.3867 122.308Z" fill="#2E9B9B"/>
<g opacity="0.5">
<g opacity="0.5">
<path opacity="0.5" d="M72.3867 122.308C62.1638 118.395 53.6598 111.452 47.0557 101.659C40.248 91.5491 35.2723 78.1146 32.219 61.6947C53.117 57.8046 68.2478 38.8516 72.9521 32.2927C77.566 37.4041 91.1587 50.4089 109.908 50.4089C110.994 50.4089 112.102 50.3636 113.188 50.2732C110.066 67.4168 105.045 82.163 98.2152 94.1274C91.4527 105.956 82.7678 115.433 72.3867 122.308Z" fill="#1F4F4B"/>
</g>
</g>
<path d="M88.0826 57.5335C88.06 57.5109 88.0374 57.5109 87.9921 57.4883C87.6077 57.2847 87.2005 57.0811 86.7935 56.9002C86.6804 56.855 86.5673 56.8097 86.4542 56.7645C86.4316 56.7645 86.409 56.7419 86.3864 56.7419C86.2507 56.6967 86.1376 56.6288 86.0019 56.5836C85.8662 56.5383 85.7305 56.4931 85.5948 56.4252C85.4591 56.38 85.3234 56.3348 85.1877 56.2895C85.0293 56.2443 84.871 56.1991 84.7127 56.1539C84.6675 56.1312 84.6222 56.1312 84.577 56.1086C84.4639 56.086 84.3508 56.0408 84.2378 56.0181C84.1699 55.9955 84.1247 55.9955 84.0568 55.9729C83.9663 55.9503 83.8759 55.9277 83.7854 55.9051C83.6723 55.8824 83.5592 55.8598 83.4688 55.8372H83.4462C83.3105 55.8146 83.1748 55.792 83.0391 55.7467C82.6998 55.6789 82.3379 55.6337 81.9761 55.5884C81.8177 55.5658 81.6594 55.5432 81.5011 55.5432C81.3428 55.5206 81.1618 55.5206 81.0035 55.498C80.9809 55.498 80.9583 55.498 80.9357 55.498C80.8 55.498 80.6417 55.4753 80.5059 55.4753C79.4203 55.4301 78.3347 55.498 77.2039 55.6563C65.9859 57.2395 56.8486 68.3444 56.826 80.467C56.826 80.6254 56.826 80.7837 56.826 80.942C56.826 81.0325 56.826 81.1003 56.826 81.1908C56.826 81.3265 56.826 81.4622 56.8486 81.6205C56.8486 81.7788 56.8713 81.9145 56.8713 82.0728V82.0955C56.8939 82.2312 56.8939 82.3895 56.8939 82.5252C56.8939 82.5478 56.8939 82.5704 56.8939 82.593C56.9165 82.7287 56.9165 82.8418 56.9391 82.9775C56.9391 83.0228 56.9391 83.068 56.9617 83.1358C56.9844 83.4525 57.0296 83.7691 57.0974 84.0631C57.1201 84.2215 57.1427 84.3798 57.1879 84.5381C57.2105 84.6964 57.2558 84.8547 57.2784 85.0131C57.3462 85.3297 57.4141 85.6463 57.4819 85.963C57.5272 86.1213 57.5498 86.2796 57.595 86.4153C57.6402 86.551 57.6855 86.7093 57.7307 86.845C57.7307 86.8676 57.7307 86.8676 57.7533 86.8903C57.8438 87.1843 57.9343 87.4783 58.0473 87.7723C58.0926 87.908 58.1604 88.0663 58.2057 88.202C58.2057 88.2246 58.2283 88.2246 58.2283 88.2473C58.2735 88.383 58.3187 88.4961 58.3866 88.6318C58.4997 88.9258 58.6128 89.1972 58.7485 89.4686C58.8163 89.6043 58.8842 89.74 58.952 89.8757C59.1556 90.2828 59.3591 90.6899 59.5853 91.0744C59.5853 91.0744 59.6079 91.097 59.6079 91.1196C59.6758 91.2327 59.7436 91.3458 59.8115 91.4589C59.8793 91.5946 59.9698 91.7077 60.0603 91.8434C60.1281 91.9565 60.196 92.0696 60.2864 92.1826C60.3091 92.2052 60.3091 92.2052 60.3091 92.2279C60.3995 92.3409 60.4674 92.4766 60.5578 92.5897C60.8066 92.9516 61.078 93.2909 61.372 93.6301C61.4625 93.7432 61.553 93.8563 61.6661 93.9694C61.7565 94.0825 61.8696 94.1955 61.9601 94.286C62.0505 94.3765 62.141 94.4669 62.2315 94.5574C62.5481 94.874 62.8647 95.1907 63.204 95.4847C63.4302 95.6883 63.6337 95.8692 63.8599 96.0501C63.973 96.1406 64.0861 96.2311 64.1991 96.3215C64.2896 96.412 64.4027 96.4799 64.5158 96.5477C64.5384 96.5703 64.561 96.5703 64.561 96.593C64.9003 96.8417 65.2621 97.0679 65.624 97.2941C65.7371 97.3619 65.8728 97.4524 65.9859 97.5202C66.0764 97.5881 66.1894 97.6333 66.2799 97.6786L61.1233 94.8741C55.4464 91.7755 51.6694 85.4654 51.692 77.6626C51.7146 65.5399 60.8292 54.435 72.0698 52.8518C76.0731 52.2864 79.7822 53.0101 82.926 54.729L88.0826 57.5335Z" fill="black"/>
<path d="M97.4913 74.7451C97.4687 86.8677 88.3541 97.9727 77.1135 99.5559C73.1103 100.121 69.4011 99.3975 66.2573 97.6786C66.1669 97.6334 66.0538 97.5656 65.9633 97.5203C65.8503 97.4525 65.7145 97.3846 65.6015 97.2942C65.2396 97.068 64.8777 96.8418 64.5385 96.593C64.5158 96.593 64.4932 96.5704 64.4932 96.5478C64.3801 96.4799 64.2897 96.3895 64.1766 96.3216C64.0635 96.2312 63.9504 96.1407 63.8373 96.0502C63.6112 95.8693 63.385 95.6883 63.1815 95.4848C62.8422 95.1908 62.5256 94.8741 62.2089 94.5575C62.1185 94.467 62.028 94.3766 61.9375 94.2861C61.847 94.173 61.734 94.0599 61.6435 93.9695C61.553 93.8564 61.44 93.7433 61.3495 93.6302C61.0555 93.2909 60.8067 92.9517 60.5353 92.5898C60.4448 92.4767 60.3543 92.341 60.2865 92.2279C60.2865 92.2279 60.2639 92.2053 60.2639 92.1827C60.196 92.0696 60.1282 91.9565 60.0377 91.8435C59.9472 91.7304 59.8794 91.5947 59.7889 91.4589C59.7211 91.3459 59.6532 91.2328 59.5854 91.1197C59.5854 91.1197 59.5627 91.0971 59.5627 91.0745C59.3366 90.69 59.133 90.2829 58.9295 89.8758C58.8616 89.7401 58.7938 89.6044 58.7259 89.4687C58.5902 89.1973 58.4771 88.9033 58.364 88.6318C58.3188 88.4961 58.2736 88.3831 58.2057 88.2474C58.2057 88.2248 58.2057 88.2248 58.1831 88.2021C58.1379 88.0664 58.07 87.9081 58.0248 87.7724C57.9343 87.4784 57.8212 87.1844 57.7308 86.8903C57.7308 86.8677 57.7308 86.8677 57.7081 86.8451C57.6629 86.7094 57.6177 86.5511 57.5724 86.4154C57.5272 86.2571 57.482 86.0988 57.4594 85.9631C57.3915 85.6464 57.301 85.3298 57.2558 85.0131C57.2332 84.8548 57.188 84.6965 57.1653 84.5382C57.1427 84.3799 57.0975 84.2215 57.0749 84.0632C57.0296 83.7466 56.9844 83.4526 56.9392 83.1359C56.9392 83.0907 56.9166 83.0455 56.9166 82.9776C56.8939 82.8419 56.8939 82.7288 56.8713 82.5931C56.8713 82.5705 56.8713 82.5479 56.8713 82.5253C56.8487 82.3896 56.8487 82.2312 56.8487 82.0956V82.0729C56.8487 81.9146 56.8261 81.7789 56.8261 81.6206C56.8261 81.4849 56.8035 81.3492 56.8035 81.1909C56.8035 81.1004 56.8035 81.0325 56.8035 80.9421C56.8035 80.7838 56.8035 80.6254 56.8035 80.4671C56.8261 68.3445 65.9407 57.2395 77.1813 55.6564C78.3121 55.498 79.4204 55.4528 80.4834 55.4754C80.6191 55.4754 80.7774 55.4754 80.9131 55.498C80.9357 55.498 80.9584 55.498 80.981 55.498C81.1393 55.498 81.3202 55.5207 81.4785 55.5433C81.6368 55.5659 81.7952 55.5659 81.9535 55.5885C82.3154 55.6338 82.6546 55.679 83.0165 55.7468C83.1522 55.7695 83.2879 55.7921 83.4236 55.8373H83.4462C83.5593 55.8599 83.6724 55.8825 83.7628 55.9051C83.8533 55.9278 83.9438 55.9504 84.0343 55.973C84.1021 55.9956 84.1473 55.9956 84.2152 56.0182C84.3283 56.0408 84.4414 56.0861 84.5544 56.1087C84.5997 56.1313 84.6449 56.1313 84.6901 56.1539C84.8484 56.1992 85.0068 56.2444 85.1651 56.2896C85.3008 56.3349 85.4365 56.3801 85.5722 56.4253C85.7079 56.4706 85.8436 56.5158 85.9793 56.5837C86.115 56.6289 86.2281 56.6741 86.3638 56.742C86.3864 56.742 86.409 56.7646 86.4316 56.7646C86.5447 56.8098 86.6578 56.8551 86.7709 56.9003C87.178 57.0812 87.5851 57.2848 87.9696 57.4883C93.7143 60.5643 97.5139 66.9196 97.4913 74.7451Z" fill="#1F1F1F"/>
<path d="M86.0249 86.5737L84.4869 85.7369C84.1251 85.5334 83.8763 85.1263 83.8763 84.6287C83.8763 82.1182 82.6549 80.0601 80.823 79.0649L82.3609 79.9018C84.1929 80.8969 85.4142 82.9551 85.4142 85.4655C85.4142 85.9857 85.663 86.3928 86.0249 86.5737Z" fill="#6D6D6D"/>
<path d="M83.763 77.3234C82.3381 76.5544 80.6644 76.2152 78.8551 76.4866C73.7889 77.1877 69.65 82.2313 69.65 87.7046C69.65 88.2022 69.8988 88.6092 70.2607 88.8128L68.7227 87.976C68.3609 87.7724 68.1121 87.3653 68.1121 86.8678C68.1121 81.3944 72.251 76.3735 77.3171 75.6497C79.1265 75.401 80.8001 75.7176 82.225 76.4866L83.763 77.3234Z" fill="white"/>
<path d="M78.8779 76.4864C83.944 75.7853 88.0603 79.6528 88.0377 85.1034C88.0377 85.895 87.4497 86.5962 86.7259 86.7093C86.0022 86.8223 85.4141 86.2569 85.4141 85.4879C85.4141 81.5752 82.474 78.8159 78.8553 79.3135C75.2365 79.8337 72.2737 83.4072 72.2737 87.3199C72.2737 88.1115 71.6857 88.8126 70.9619 88.9257C70.2382 89.0388 69.6501 88.4734 69.6501 87.7044C69.6728 82.2085 73.8117 77.1875 78.8779 76.4864Z" fill="#C6C6C6"/>
<path d="M77.7468 72.8679L76.2314 72.0537C76.5029 72.1894 76.7969 72.2799 77.1135 72.2573C77.2718 72.506 77.498 72.7096 77.7468 72.8679Z" fill="#6D6D6D"/>
<path d="M77.7466 72.8679C77.7918 72.8905 77.8597 72.9132 77.9049 72.9584C77.8597 72.9358 77.8145 72.9132 77.7692 72.8905L77.7466 72.8679Z" fill="#6D6D6D"/>
<path d="M77.905 72.9358C78.0407 73.0036 78.1764 73.0263 78.3121 73.0489C78.1764 73.0489 78.0407 73.0036 77.905 72.9358Z" fill="#6D6D6D"/>
<path d="M78.4255 67.9824L79.9635 68.8192C79.6921 68.6836 79.3981 68.5931 79.0814 68.6157C78.9231 68.3443 78.6969 68.1407 78.4255 67.9824Z" fill="#6D6D6D"/>
<path d="M80.4836 65.9016C80.6419 65.9468 80.8003 65.9921 80.936 66.0599C80.8003 65.9921 80.6419 65.9242 80.4836 65.9016Z" fill="white"/>
<path d="M81.3648 66.2402C81.3423 66.2402 81.3423 66.2178 81.3423 66.2178C81.2974 66.1953 81.2525 66.1729 81.23 66.1504C81.2525 66.1504 81.2749 66.1729 81.2974 66.1729L81.3648 66.2402Z" fill="white"/>
<path d="M81.2752 66.1957C81.2525 66.1957 81.2299 66.1731 81.2073 66.1731C81.1847 66.1731 81.1621 66.1505 81.1395 66.1505C81.0716 66.1279 81.0038 66.0826 80.9359 66.06C80.7776 65.9922 80.6419 65.9469 80.4836 65.9017C80.4157 65.8791 80.3252 65.8564 80.2574 65.8564H80.2348C80.1669 65.8338 80.0991 65.8338 80.0086 65.8338H79.986C79.9408 65.8338 79.8955 65.8112 79.8503 65.8112C79.8051 65.8112 79.7824 65.8112 79.7372 65.8112C79.6694 65.8112 79.5789 65.8112 79.5111 65.8112C79.3075 65.8112 79.1039 65.8338 78.9004 65.8564C76.3221 66.2183 74.2187 68.774 74.2187 71.5559C74.2187 71.6464 74.2187 71.7369 74.2187 71.8273C74.2187 71.8952 74.2187 71.9404 74.2187 71.9856C74.2187 72.0083 74.2187 72.0309 74.2187 72.0309C74.2187 72.0761 74.2187 72.144 74.2413 72.1892C74.2413 72.2118 74.2413 72.2571 74.2413 72.2797V72.3023C74.2413 72.3475 74.2639 72.4154 74.2639 72.4606C74.2639 72.5285 74.2865 72.5963 74.3091 72.6642C74.3318 72.7773 74.377 72.8903 74.3996 73.0034C74.3996 73.026 74.4222 73.0713 74.4222 73.1165C74.4449 73.1617 74.4449 73.207 74.4675 73.2522C74.4901 73.2974 74.4901 73.3427 74.5127 73.3879C74.5353 73.4331 74.5579 73.4784 74.5806 73.5236C74.6032 73.5688 74.6258 73.6141 74.6484 73.6593C74.671 73.7045 74.6936 73.7498 74.7162 73.795C74.7389 73.8402 74.7841 73.9081 74.8067 73.9533C74.8519 74.0212 74.8972 74.089 74.9424 74.1795C74.965 74.2247 74.9877 74.2474 75.0103 74.2926C75.0555 74.3604 75.1007 74.4057 75.1233 74.4509C75.1686 74.5188 75.2364 74.5866 75.2817 74.6545C75.3269 74.7223 75.3948 74.7675 75.44 74.8128C75.44 74.8128 75.44 74.8128 75.4626 74.8354C75.5078 74.8806 75.5757 74.9485 75.6209 74.9937C75.6436 75.0163 75.6436 75.0163 75.6662 75.039C75.734 75.1068 75.8019 75.152 75.8697 75.1973C75.915 75.2199 75.9376 75.2651 75.9828 75.2877C76.028 75.3104 76.0506 75.333 76.0959 75.3556C76.1185 75.3782 76.1637 75.4008 76.1864 75.4234C76.209 75.4461 76.2316 75.4461 76.2768 75.4687L74.8067 74.6771C73.4949 73.976 72.6355 72.5059 72.6355 70.7191C72.6355 67.9372 74.7389 65.3815 77.3172 65.0197C78.2219 64.884 79.0813 65.0649 79.8051 65.4494L81.2752 66.1957Z" fill="white"/>
<path d="M81.3883 66.241C81.3657 66.241 81.3657 66.241 81.3883 66.241C81.3657 66.241 81.3657 66.241 81.3657 66.2184C81.3657 66.2184 81.3657 66.2184 81.3431 66.2184C81.3205 66.2184 81.2979 66.1958 81.2753 66.1958C81.2526 66.1958 81.23 66.1732 81.2074 66.1732C81.1848 66.1732 81.1621 66.1505 81.1395 66.1505C81.0717 66.1279 81.0038 66.0827 80.936 66.0601C80.7777 65.9922 80.642 65.947 80.4837 65.9017C80.4158 65.8791 80.3253 65.8565 80.2575 65.8565H80.2349C80.167 65.8339 80.0992 65.8339 80.0087 65.8339H79.9861C79.9408 65.8339 79.8956 65.8339 79.8504 65.8113C79.8051 65.8113 79.7825 65.8113 79.7373 65.8113C79.6694 65.8113 79.579 65.8113 79.5111 65.8113C79.3076 65.8113 79.104 65.8339 78.9005 65.8565C76.3221 66.2184 74.2188 68.7741 74.2188 71.556C74.2188 71.6465 74.2188 71.7369 74.2188 71.8274C74.2188 71.8952 74.2188 71.9405 74.2188 71.9857C74.2188 72.0083 74.2188 72.0309 74.2188 72.0309C74.2188 72.0762 74.2188 72.144 74.2414 72.1893C74.2414 72.2119 74.2414 72.2571 74.2414 72.2797V72.3024C74.2414 72.3476 74.264 72.4154 74.264 72.4607C74.264 72.5285 74.2866 72.5964 74.3092 72.6642C74.3319 72.7773 74.3771 72.8904 74.3997 73.0035C74.3997 73.0261 74.4223 73.0713 74.4223 73.1166C74.4449 73.1618 74.4449 73.207 74.4676 73.2523C74.4902 73.2975 74.4902 73.3427 74.5128 73.388C74.5354 73.4332 74.558 73.4784 74.5806 73.5237C74.6033 73.5689 74.6259 73.6141 74.6485 73.6594C74.6711 73.7046 74.6937 73.7498 74.7163 73.7951C74.7389 73.8403 74.7842 73.9082 74.8068 73.9534C74.852 74.0212 74.8973 74.0891 74.9425 74.1796C74.9651 74.2248 74.9877 74.2474 75.0104 74.2926C75.0556 74.3605 75.1008 74.4057 75.1234 74.451C75.1687 74.5188 75.2365 74.5867 75.2818 74.6545C75.327 74.7224 75.3949 74.7676 75.4401 74.8128C75.4401 74.8128 75.4401 74.8128 75.4627 74.8355C75.5079 74.8807 75.5758 74.9486 75.621 74.9938C75.6436 75.0164 75.6436 75.0164 75.6663 75.039C75.7341 75.1069 75.802 75.1521 75.8698 75.1973C75.915 75.22 75.9376 75.2652 75.9829 75.2878C76.0281 75.3104 76.0507 75.333 76.096 75.3557C76.1186 75.3783 76.1638 75.4009 76.1864 75.4235C76.2091 75.4461 76.2317 75.4461 76.2769 75.4687C76.4804 75.5818 76.6614 75.6723 76.8876 75.7401C77.1816 75.8532 77.4756 75.9211 77.8149 75.9437C78.1541 75.9889 78.4934 75.9663 78.8553 75.9211C79.1719 75.8758 79.4885 75.808 79.8051 75.6949C81.9311 74.9259 83.537 72.6642 83.537 70.2442C83.5596 68.4122 82.6775 66.9421 81.3883 66.241ZM78.8779 73.0713C78.7647 73.0939 78.6291 73.0939 78.516 73.0939C78.4933 73.0939 78.4707 73.0939 78.4481 73.0939C78.4029 73.0939 78.3577 73.0939 78.3124 73.0713C78.1767 73.0487 78.041 73.0035 77.9053 72.9582C77.8827 72.9356 77.8601 72.9356 77.8149 72.913C77.7922 72.913 77.7696 72.8904 77.7244 72.8678C77.4756 72.7321 77.2494 72.5059 77.0911 72.2571C76.9102 71.9405 76.7971 71.5786 76.7971 71.1489C76.7971 69.9276 77.7244 68.7967 78.8553 68.6384C78.9231 68.6384 78.991 68.6158 79.0588 68.6158C79.3754 68.6158 79.6921 68.6836 79.9408 68.8193C80.0087 68.842 80.0539 68.8872 80.0992 68.9324C80.348 69.1133 80.5289 69.3395 80.6646 69.6109C80.6872 69.6562 80.6872 69.6788 80.7098 69.724C80.7324 69.7919 80.7551 69.8597 80.7777 69.9502C80.7777 69.9728 80.8003 69.9954 80.8003 70.0406V70.0633C80.8003 70.0859 80.8003 70.1085 80.8229 70.1537C80.8455 70.2894 80.8681 70.4251 80.8681 70.5608C80.936 71.7822 80.0087 72.913 78.8779 73.0713Z" fill="#C6C6C6"/>
<path d="M80.936 70.5608C80.936 71.7821 80.0087 72.9129 78.8779 73.0713C78.7648 73.0939 78.6291 73.0939 78.516 73.0939C78.4934 73.0939 78.4708 73.0939 78.4481 73.0939C78.4029 73.0939 78.3577 73.0939 78.3125 73.0713C78.1768 73.0487 78.0411 73.0034 77.9054 72.9582C77.8601 72.9356 77.7923 72.9129 77.747 72.8677C77.4982 72.732 77.2721 72.5058 77.1138 72.2571C77.1816 72.2571 77.2495 72.2571 77.3173 72.2344C78.4481 72.0761 79.3755 70.9453 79.3755 69.724C79.3755 69.2942 79.2624 68.9324 79.0814 68.6157C79.3981 68.6157 79.7147 68.6836 79.9635 68.8193C80.0314 68.8419 80.0766 68.8871 80.1218 68.9324C80.3706 69.1133 80.5515 69.3395 80.6872 69.6109C80.7099 69.6561 80.7099 69.6787 80.7325 69.724C80.7551 69.7918 80.7777 69.8597 80.8003 69.9501C80.8003 69.9727 80.8229 69.9954 80.8229 70.0406V70.0632C80.8229 70.0858 80.8229 70.1084 80.8456 70.1537C80.9134 70.2894 80.936 70.4251 80.936 70.5608Z" fill="#6D6D6D"/>
</svg>
