<svg width="122" height="114" viewBox="0 0 122 114" fill="none" xmlns="http://www.w3.org/2000/svg">
<path d="M77.8157 25.5501L72.8357 22.8411C79.5426 26.4896 88.0576 29.1057 97.8436 27.7304L102.824 30.4395C93.0375 31.8148 84.5226 29.1986 77.8157 25.5501Z" fill="#FFD527"/>
<path d="M54.454 100.78L49.474 98.0712C32.3895 88.7774 20.7717 69.6998 15.478 39.3062L20.458 42.0152C25.7516 72.4089 37.3695 91.4865 54.454 100.78Z" fill="#AD9015"/>
<path d="M20.458 42.0151L15.478 39.3061C39.4218 35.941 55.8413 10.8074 56.7055 9.48462L61.6854 12.1937C60.8212 13.5165 44.4018 38.65 20.458 42.0151Z" fill="#FFD527"/>
<path d="M61.6854 12.1938C62.5452 13.2744 78.8798 33.8047 102.824 30.4396C96.6991 66.5548 82.5172 90.4355 61.515 103.957C40.5521 96.3333 26.4515 76.4274 20.458 42.0153C44.4018 38.6502 60.8213 13.5167 61.6854 12.1938Z" fill="#DDB612"/>
<path d="M61.2991 102.011C51.4319 98.2295 43.2004 91.5195 36.8223 82.0549C30.2456 72.2958 25.4278 59.3152 22.4922 43.4534C42.6706 39.696 57.3033 21.3959 61.8362 15.0583C66.2931 19.9964 79.4139 32.5595 97.5274 32.5595C98.5793 32.5595 99.6397 32.5166 100.699 32.4317C97.6861 48.9872 92.8225 63.2334 86.2296 74.8056C79.7231 86.2259 71.3392 95.3741 61.2991 102.011Z" fill="#DDB612"/>
<path d="M61.2991 102.011C51.4319 98.2295 43.2004 91.5195 36.8223 82.0549C30.2456 72.2958 25.4278 59.3152 22.4922 43.4534C42.6706 39.696 57.3033 21.3959 61.8362 15.0583C66.2931 19.9964 79.4139 32.5595 97.5274 32.5595C98.5793 32.5595 99.6397 32.5166 100.699 32.4317C97.6861 48.9872 92.8225 63.2334 86.2296 74.8056C79.7231 86.2259 71.3392 95.3741 61.2991 102.011Z" fill="#AD9015"/>
<path d="M66.1041 38.8553C66.0888 38.8488 66.0735 38.84 66.0604 38.8357C66.0298 38.8204 65.9993 38.8073 65.9665 38.7963C65.8419 38.7461 65.713 38.7155 65.5798 38.7002C65.5557 38.6959 65.5295 38.6937 65.5033 38.6915C65.3744 38.6828 65.2455 38.6871 65.1166 38.7046C64.4655 38.7963 63.8144 39.2355 63.443 39.9805L46.2439 74.4289C45.9927 74.9336 45.9315 75.4514 46.0189 75.9059C46.0254 75.9452 46.0342 75.9845 46.0451 76.0217C46.0538 76.061 46.0626 76.096 46.0757 76.1331C46.0844 76.1615 46.0932 76.1899 46.1041 76.2161C46.2024 76.4892 46.3597 76.7295 46.5629 76.9153C46.5826 76.9371 46.6022 76.9546 46.6241 76.9699C46.659 77.0027 46.6962 77.0289 46.7333 77.0551C46.7639 77.0769 46.7945 77.0966 46.8273 77.1141C46.836 77.1206 46.8447 77.1272 46.8535 77.1316L41.9004 74.4377C41.0746 73.9876 40.7141 72.823 41.2647 71.7197L58.4616 37.2713C58.8351 36.5263 59.4862 36.0872 60.1351 35.9954C60.4978 35.9451 60.8583 36.0019 61.1729 36.1724L66.1041 38.8553Z" fill="black"/>
<path d="M82.1866 72.5018L47.9108 77.3194C47.4979 77.3784 47.1287 77.2953 46.8272 77.114C46.7944 77.0965 46.7638 77.0768 46.7332 77.055C46.6961 77.0288 46.6589 77.0004 46.624 76.9698C46.6021 76.9523 46.5825 76.9348 46.5628 76.9152C46.3596 76.7294 46.2023 76.4891 46.104 76.216C46.093 76.1898 46.0843 76.1614 46.0756 76.133C46.0625 76.0959 46.0537 76.0609 46.045 76.0216C46.0341 75.9844 46.0253 75.9451 46.0188 75.9058C45.9314 75.4513 45.9926 74.9335 46.2438 74.4288L63.4429 39.9804C63.8143 39.2354 64.4654 38.7962 65.1165 38.7045C65.2454 38.687 65.3743 38.6826 65.5032 38.6914C65.5294 38.6936 65.5556 38.6957 65.5796 38.7001C65.7129 38.7154 65.8418 38.746 65.9664 38.7962C65.9991 38.8072 66.0297 38.8203 66.0603 38.8356C66.0734 38.8399 66.0887 38.8487 66.104 38.8552C66.1171 38.8618 66.1302 38.8705 66.1455 38.8771C66.399 39.0125 66.6218 39.2223 66.7879 39.5107L83.8646 69.1415C84.6052 70.4262 83.6723 72.2942 82.1866 72.5018Z" fill="#1F1F1F"/>
<path d="M66.8919 47.9941C66.8832 47.9897 66.8745 47.9854 66.8636 47.981C66.8482 47.9722 66.8351 47.9657 66.8198 47.9592C66.8067 47.9526 66.7936 47.946 66.7784 47.9417C66.7652 47.9373 66.7521 47.9329 66.7368 47.9285C66.7324 47.9242 66.7281 47.922 66.7237 47.922C66.7062 47.9154 66.6866 47.9089 66.6669 47.9045C66.6582 47.9023 66.6494 47.9023 66.6407 47.9002C66.6014 47.8892 66.5642 47.8827 66.5249 47.8783H66.5161C66.4768 47.8718 66.4353 47.8696 66.396 47.8696C66.3566 47.8696 66.3152 47.8718 66.2736 47.8761C66.2605 47.8761 66.2474 47.8783 66.2343 47.8805C65.5264 47.981 64.9518 48.6801 64.9518 49.4448L64.9256 62.6828C64.9256 62.7265 64.9278 62.7702 64.9321 62.8117C64.9343 62.851 64.9387 62.8903 64.9474 62.9275C64.9671 63.0542 65.0064 63.1722 65.0589 63.2814C65.0741 63.312 65.0916 63.3448 65.1113 63.3732C65.1441 63.43 65.1834 63.4824 65.2249 63.5327L65.2686 63.5764C65.273 63.5829 65.2795 63.5873 65.2839 63.5939C65.3167 63.6266 65.3538 63.6572 65.391 63.6834C65.4106 63.7009 65.4325 63.7162 65.4543 63.7271C65.4587 63.7315 65.4609 63.7337 65.4652 63.7359L64.0254 62.9537C63.6671 62.7614 63.4312 62.3616 63.4312 61.8722L63.4574 48.6321C63.4574 47.8674 64.032 47.1682 64.7399 47.0677C64.753 47.0655 64.7661 47.0634 64.7792 47.0634C65.0064 47.0393 65.2162 47.083 65.3975 47.1813L66.8919 47.9941Z" fill="white"/>
<path d="M67.5102 49.1412L67.4862 62.3245C67.4862 63.0871 66.9094 63.7862 66.2037 63.8845C65.9524 63.9195 65.7186 63.8758 65.5198 63.7665L65.4805 63.7447C65.4761 63.7425 65.4696 63.7403 65.4652 63.7359C65.4608 63.7338 65.4586 63.7316 65.4543 63.7272C65.4324 63.7141 65.4128 63.6988 65.3909 63.6835C65.3538 63.6551 65.3188 63.6245 65.2839 63.5939C65.2795 63.5874 65.2729 63.583 65.2685 63.5765L65.2249 63.5328C65.1833 63.4825 65.144 63.4301 65.1113 63.3733C65.0916 63.3449 65.0741 63.3121 65.0588 63.2815C65.0064 63.1723 64.967 63.0543 64.9474 62.9276C64.9386 62.8904 64.9343 62.8511 64.9321 62.8118C64.9277 62.7703 64.9255 62.7266 64.9255 62.6829L64.9518 49.4449C64.9518 48.6802 65.5264 47.9811 66.2343 47.8806C66.2474 47.8784 66.2605 47.8762 66.2736 47.8762C66.3151 47.8718 66.3566 47.8696 66.3959 47.8696C66.4353 47.8696 66.4768 47.8718 66.5161 47.8784H66.5248C66.5642 47.8827 66.6013 47.8893 66.6407 47.9002C66.6494 47.9024 66.6581 47.9024 66.6669 47.9046C66.6865 47.909 66.7062 47.9155 66.7237 47.9221C66.728 47.9221 66.7324 47.9243 66.7368 47.9286C66.752 47.933 66.7652 47.9374 66.7783 47.9417C66.7936 47.9461 66.8067 47.9527 66.8198 47.9592C66.8351 47.9658 66.8482 47.9723 66.8635 47.9811C67.2546 48.1777 67.5124 48.619 67.5102 49.1412Z" fill="#C6C6C6"/>
<path d="M66.9201 66.5566C66.8939 66.5413 66.8655 66.5282 66.8371 66.5172C66.8022 66.4997 66.7672 66.4866 66.7301 66.4757C66.6973 66.4648 66.6623 66.4539 66.6252 66.4473C66.6143 66.4451 66.6033 66.443 66.5946 66.4408C66.564 66.4342 66.5312 66.4298 66.4985 66.4276C66.4613 66.4233 66.4198 66.4211 66.3805 66.4211C66.3215 66.4211 66.2603 66.4255 66.1992 66.4342C65.4541 66.5369 64.8489 67.2754 64.8467 68.0794C64.8467 68.1253 64.8489 68.1711 64.8533 68.2149C64.8598 68.3023 64.8751 68.3875 64.897 68.4683C64.897 68.4705 64.8992 68.4727 64.8992 68.4749C64.9079 68.512 64.921 68.5469 64.9341 68.5819C64.9363 68.5928 64.9407 68.6016 64.9451 68.6125C64.956 68.6431 64.9691 68.6737 64.9844 68.7021C65.0018 68.737 65.0215 68.772 65.0412 68.8047C65.0412 68.8069 65.0434 68.8091 65.0455 68.8135C65.0586 68.8353 65.0718 68.855 65.0871 68.8747C65.1002 68.8943 65.1155 68.9118 65.1308 68.9315C65.146 68.9533 65.1635 68.973 65.181 68.9926C65.1832 68.9948 65.1854 68.9948 65.1854 68.997C65.2072 69.0189 65.2291 69.0407 65.2509 69.0604C65.3077 69.1128 65.3689 69.1587 65.4344 69.198L63.9793 68.4071C63.6014 68.2017 63.3523 67.7844 63.3523 67.2666C63.3545 66.4626 63.9597 65.7263 64.7047 65.6215C64.9713 65.5821 65.2182 65.6302 65.4257 65.7438L66.9201 66.5566Z" fill="white"/>
<path d="M67.545 67.6993C67.545 68.5033 66.9398 69.2396 66.1947 69.3445C65.9129 69.3838 65.6507 69.327 65.4344 69.1981C65.3689 69.1588 65.3077 69.1128 65.2509 69.0604C65.229 69.0408 65.2072 69.0211 65.1853 68.9971C65.1853 68.9949 65.1831 68.9949 65.181 68.9927C65.1635 68.973 65.146 68.9534 65.1307 68.9315C65.1154 68.9118 65.1001 68.8944 65.087 68.8747C65.0717 68.855 65.0586 68.8354 65.0455 68.8135C65.0433 68.8092 65.0411 68.807 65.0411 68.8048C65.0193 68.772 65.0018 68.7371 64.9843 68.7021C64.9712 68.6737 64.9581 68.6431 64.945 68.6125C64.9406 68.6016 64.9363 68.5929 64.9341 68.5819C64.921 68.547 64.91 68.512 64.8991 68.4749C64.8991 68.4727 64.8969 68.4705 64.8969 68.4683C64.8751 68.3875 64.8598 68.3023 64.8532 68.2149C64.8489 68.1712 64.8467 68.1253 64.8467 68.0794C64.8489 67.2754 65.4541 66.5369 66.1991 66.4343C66.2603 66.4255 66.3214 66.4211 66.3804 66.4211C66.4198 66.4211 66.4591 66.4233 66.4984 66.4277C66.5312 66.4299 66.5618 66.4364 66.5946 66.4408C66.6033 66.443 66.6142 66.4452 66.6252 66.4474C66.6601 66.4561 66.6951 66.4648 66.73 66.4758C66.765 66.4867 66.8021 66.502 66.8371 66.5173C66.8655 66.5282 66.8939 66.5435 66.9201 66.5566C67.2959 66.762 67.5472 67.1815 67.545 67.6993Z" fill="#C6C6C6"/>
</svg>
