<svg width="80" height="80" viewBox="0 0 80 80" fill="none" xmlns="http://www.w3.org/2000/svg">
<circle cx="40" cy="40" r="40" fill="url(#paint0_linear)" fill-opacity="0.1"/>
<circle cx="40.0006" cy="39.9998" r="36.6667" fill="url(#paint1_linear)"/>
<circle cx="40.0006" cy="39.9998" r="36.6667" fill="white" fill-opacity="0.1"/>
<path d="M39.7792 44.0473C38.4806 44.0473 37.2177 44.1556 35.996 44.3627L37.8775 41.1039C38.5127 41.0619 39.1486 41.0408 39.7792 41.0408C41.2567 41.0408 42.7599 41.1627 44.2133 41.3959L36.9075 28.7419L24.7456 49.8069L23.0075 46.7964L36.8801 22.7683L36.9087 22.8179L36.9361 22.7705L53.6776 51.7676H50.2014L46.2886 44.9904C44.2499 44.3756 42.0704 44.0473 39.7792 44.0473Z" fill="white" fill-opacity="0.8"/>
<path d="M54.7595 49.8576L38.551 21.7837H42.0272L56.4976 46.8472L54.7595 49.8576Z" fill="white" fill-opacity="0.8"/>
<path d="M38.6722 35.6342L32.0168 47.1618C34.3981 46.4433 37.2014 46.1225 39.8461 46.1225C40.0599 46.1225 40.2742 46.1251 40.4889 46.1302C41.9913 46.1657 43.5091 46.3246 44.9635 46.5961L47.184 50.4421C44.9109 49.6154 42.4506 49.129 39.8461 49.129C35.9941 49.129 32.4565 50.0817 29.3756 51.7392L29.4241 51.6525L29.3576 51.7676H25.8815L36.9342 32.6238L38.6722 35.6342Z" fill="white" fill-opacity="0.8"/>
<path fill-rule="evenodd" clip-rule="evenodd" d="M40 66.7755C54.7877 66.7755 66.7755 54.7877 66.7755 40C66.7755 25.2123 54.7877 13.2245 40 13.2245C25.2123 13.2245 13.2245 25.2123 13.2245 40C13.2245 54.7877 25.2123 66.7755 40 66.7755ZM40.0653 63.5102C53.0857 63.5102 63.6408 52.9551 63.6408 39.9347C63.6408 26.9143 53.0857 16.3592 40.0653 16.3592C27.0449 16.3592 16.4898 26.9143 16.4898 39.9347C16.4898 52.9551 27.0449 63.5102 40.0653 63.5102Z" fill="white" fill-opacity="0.8"/>
<path fill-rule="evenodd" clip-rule="evenodd" d="M40 72C57.6731 72 72 57.6731 72 40C72 22.3269 57.6731 8 40 8C22.3269 8 8 22.3269 8 40C8 57.6731 22.3269 72 40 72ZM40.1306 68.9959C56.1446 68.9959 69.1265 56.014 69.1265 40C69.1265 23.986 56.1446 11.0041 40.1306 11.0041C24.1166 11.0041 11.1347 23.986 11.1347 40C11.1347 56.014 24.1166 68.9959 40.1306 68.9959Z" fill="white" fill-opacity="0.8"/>
<defs>
<linearGradient id="paint0_linear" x1="126.374" y1="66.0956" x2="65.9555" y2="-18.7321" gradientUnits="userSpaceOnUse">
<stop stop-color="#645AFF"/>
<stop offset="0.637566" stop-color="#E40C5B"/>
<stop offset="1" stop-color="#FF4C3B"/>
</linearGradient>
<linearGradient id="paint1_linear" x1="90.4682" y1="89.1069" x2="2.62232" y2="13.4455" gradientUnits="userSpaceOnUse">
<stop stop-color="#645AFF"/>
<stop offset="0.60257" stop-color="#E40C5B"/>
<stop offset="1" stop-color="#FF4C3B"/>
</linearGradient>
</defs>
</svg>
