<?xml version="1.0" encoding="utf-8"?>
<!-- Generator: Adobe Illustrator 24.2.3, SVG Export Plug-In . SVG Version: 6.00 Build 0)  -->
<svg version="1.1" id="Layer_1" xmlns="http://www.w3.org/2000/svg" xmlns:xlink="http://www.w3.org/1999/xlink" x="0px" y="0px"
	 viewBox="0 0 500 500" style="enable-background:new 0 0 500 500;" xml:space="preserve">
<style type="text/css">
	.st0{fill:#2F9C9C;}
	.st1{opacity:0.2;fill:#F8F8F8;enable-background:new    ;}
	.st2{fill:#F8F8F8;}
</style>
<circle class="st0" cx="250" cy="250" r="245"/>
<path class="st1" d="M477.4,339.3c0.1-30.3,2.4-60.6,7.6-90.4c3.3-0.2,6.6-0.5,10-0.7c0-2.6-0.1-5.2-0.2-7.7
	c-2.8,0.2-5.6,0.4-8.3,0.6c1.7-8.9,3.7-17.7,6-26.5c-0.9-6.2-2-12.4-3.4-18.4c-4.5,15-8.2,30.2-11.1,45.5c-16.9,1.1-33.9,2-50.8,2.6
	c14.8-41.4,28-83.9,28.4-127.7c-2.6-4-5.2-7.8-8-11.6c0.4,8,0.3,16-0.1,23.9c-2.2,34.9-11.8,68.9-23.3,101.7
	c-1.6,4.5-3.5,9.1-5.5,14c-23.4,0.8-46.9,1.1-70.4,1c23.1-43.5,34.7-94.4,63.8-135.1c1.8-2.5,3.6-4.8,5.5-7.1
	c9.1-0.7,18.2-1.3,27.3-2c-1.9-2.5-3.9-5-5.9-7.4c-4.6,0.4-9.3,0.7-13.9,1.1c2.6-2.7,5.3-5.3,8.1-7.7c-1.6-1.8-3.2-3.6-4.9-5.4
	c-0.4,0.4-0.8,0.7-1.2,1.1c-4.3,4-8.2,8.3-12,12.8c-52.2,3.7-104.5,6.7-156.8,8.6c-0.2-8.1-1.3-16.1-3.3-23.6
	c-2.5-8.9-6.8-16-12.5-21.5c1.6-18.1,2.9-36.2,4-54.3c-2.7,0-5.3,0.1-8,0.2c-0.9,16.1-2.1,32.1-3.5,48.1c-5.5-3.5-11.7-5.9-18.3-7.3
	c0.3-0.7,0.5-1.4,0.8-2.1c5.2-13.2,11.1-26,17.5-38.6c-3,0.2-6.1,0.4-9.1,0.7c-6.3,12.7-11.9,25.6-17,38.8c-4.9-0.5-9.8-0.4-14.9,0
	c-30.9,2.9-60.2,17.2-88.4,29.8c-1.9-6.2-3.8-12.4-5.6-18.7c-2.3,1.8-4.6,3.6-6.8,5.4c1.6,5.5,3.3,11,5,16.5
	C85.6,83.6,72.8,89.4,60,95.2c-4.8,5.9-9.4,12-13.6,18.4c21.5,0.5,43,0.9,64.5,1c5.9,16.2,12.4,32.3,19.5,48.2
	c7.7,17.3,16.2,34.3,25.6,50.7c4.9,8.7,10.7,17.9,19.4,22.7c-35.5-3.9-70.9-8.7-106.4-13.4c-19.2-2.5-40.4-2.4-54.7,13
	c-4.7,5-7.7,11-9.4,17.3c0.4,34.5,8,67.3,21.3,97c-0.5-2.5-1-5-1.5-7.5c-3.3-15.7-11.6-40-13.8-62.1c2.5-0.6,5-1.1,7.5-1.6
	c48.6,44.3,96.5,89.3,143.8,135c-6.1,18.9-12.6,37.8-19.4,56.5c2.3,1.1,4.6,2.2,7,3.3c6.5-17.8,12.7-35.7,18.6-53.7
	c9.2,8.9,18.3,17.8,27.5,26.7c16.3,16,32.6,32.1,48.8,48.3c1.8,0,3.5,0.1,5.3,0.1c2,0,4,0,6-0.1c-28.1-28-56.3-55.8-84.9-83.4
	c9.4-29.4,18-59,25.8-88.8c17,47.5,47.9,88.1,99.5,105.1c37.2,12.2,77.6,11.4,116,5.6c3.1-2.8,6.2-5.6,9.2-8.5
	c-17.6,2.8-35.1,4.5-52.6,4.9c-40.8,0.9-83.5-7.1-115.7-33.9c-25.1-20.9-41.3-50-51.4-80.9c0.7,0.3,1.4,0.6,2.1,0.9
	c33.9,13.5,68.3,9.4,97.4-12.7c18.3-14,31.7-31,42.5-49.7c23.8,0.2,47.6-0.1,71.4-0.9c-8.4,20.4-16.1,42.6-5.1,61.8
	c5.8,10,14.5,18.1,22.4,26.3c9.8,10.2,19.6,20.3,29.8,30.1c-1.8,3.6-3.7,7.2-5.5,10.8c10.2-16.1,18.6-33.4,24.9-51.7
	C480.3,332.9,478.9,336.1,477.4,339.3z M241.5,70.9c5.8,9.3,8.1,21.3,8.4,33.7c-4,0.1-8,0.3-12.1,0.4
	C239.2,93.7,240.4,82.3,241.5,70.9z M236.9,112.9c4.3-0.1,8.6-0.3,13-0.4c-0.4,9.4-1.7,18.8-3.3,27.3c-3.1,16.4-8.1,32.6-14.9,47.8
	c-2.5,5.6-5.3,11.8-8.8,17.7C228.4,174.6,233.1,143.8,236.9,112.9z M194.4,231c-2.7,0.7-5.1,0.9-7.4,0.7
	c-2.4-39.3,1.1-79.2,9.5-117.8c10.8-0.2,21.6-0.5,32.4-0.8c-4.4,35.8-10.1,71.5-16.9,107C207,225.2,201.2,229.2,194.4,231z
	 M209.5,232.4c-0.5,2.3-0.9,4.7-1.4,7c-3.6-0.3-7.1-0.6-10.7-1C201.7,237.2,205.8,235.1,209.5,232.4z M214.1,53.4
	c8.5,1.4,15.1,4.6,20.2,9.1c-1.3,14.3-2.8,28.6-4.5,42.8c-10.5,0.3-21,0.6-31.6,0.8C202.5,88.1,207.8,70.5,214.1,53.4z M56.2,106
	C71,99.1,86,92.4,101,85.8c2.3,7,4.6,14,7.1,21C90.8,106.7,73.5,106.4,56.2,106z M108.4,82.6c1.7-0.8,3.5-1.5,5.2-2.3
	c28.5-12.2,60.6-29.1,92.7-27.7c-6.4,17.5-11.7,35.4-15.8,53.6c-24.6,0.5-49.2,0.7-73.9,0.6C113.7,98.8,111,90.7,108.4,82.6z
	 M155.9,196.8c-8.5-16-16.3-32.6-23.5-49.2c-4.6-10.9-9-21.9-13-32.9c23.1,0.1,46.2-0.1,69.3-0.6c-8,37.8-11.1,76.6-9.1,115.4
	C168.4,223.4,161.5,207.2,155.9,196.8z M10.4,272.9c0-0.4,0-0.9,0-1.3c0.4,0.4,0.8,0.7,1.2,1.1C11.2,272.7,10.8,272.8,10.4,272.9z
	 M10.9,261.3c2.2-17.1,11.4-30.1,34.9-32c12.7-1,25.6,1.7,38,3.7c14.4,2.2,28.8,4.2,43.1,6c17.8,2.3,35.7,4.3,53.6,6
	c1.6,18.4,4.6,37,9.4,55.1c-22.7-10.7-44.5-22-69.4-27.8c-32.3-7.4-66.4-7.8-99.4-1.7C17.8,267.5,14.3,264.4,10.9,261.3z
	 M164.9,405.5c-45-43.3-90.5-86.1-136.6-128.3c21.6-3.3,43.7-3.8,65.3-1.2c18.3,2.2,36.5,6.7,53.7,13.5c15.2,6,29.6,14,44.5,21
	C183.9,342.4,174.9,374.1,164.9,405.5z M196,293.7c-3.7-15.7-6.4-31.8-8-48c6.1,0.6,12.3,1.1,18.4,1.6
	C203.2,262.8,199.7,278.3,196,293.7z M290.5,302.2c-28.7,18.2-58.9,16.4-89.1,3.2c1.7-6.7,3.3-13.4,4.9-20.1
	c2.9-12.4,5.6-24.8,8.3-37.3c0.6,0,1.3,0.1,1.9,0.2c40,3.1,80.2,4.8,120.3,5.3C325,272.5,310.4,289.5,290.5,302.2z M341.3,245.5
	c-33.5-0.3-67-1.5-100.4-3.6c-8.3-0.5-16.5-1.1-24.8-1.8c1.2-5.7,2.3-11.4,3.4-17.2c10.3-12.1,17.7-28.4,22.4-40.3
	c8.2-20.7,15.6-46.1,16.4-70.4c24.7-0.9,49.3-2,74-3.3c25.4-1.4,50.9-3,76.3-4.8c-11.1,15.2-19.8,32.1-27.3,49.3
	C368.2,183.4,357.5,216.5,341.3,245.5z M469.1,356.9c-1,2.1-2,4.1-3,6.2c-3.8-3.7-7.6-7.4-11.4-11.2c-9.2-9.2-18.3-18.5-27.1-28.1
	c-5.4-5.9-10.7-11.9-13.3-19.7c-4.1-11.8-0.3-23.6,3.8-34.8c2.1-5.7,4.2-11.4,6.2-17.2c17.4-0.6,34.9-1.6,52.3-2.7
	C470.5,284.6,468.3,320.7,469.1,356.9z"/>
<g>
	<path class="st2" d="M174.2,355.8c-16.3,0-29.4-4-39-11.9c-9.4-7.8-14.2-22-14.2-42.4v-86.5H91.6v-27.3h29.2v-43.6h33.3v43.6h48.4
		v27.3h-48.4v86.5c0,10.1,2.2,16.9,6.6,20.8c4.4,3.9,11.6,5.8,22.1,5.8h18v27.6H174.2z"/>
	<path class="st2" d="M400.6,217.6l-1.4-2.8c0-0.1-0.1-0.2-0.1-0.3c-10.3-20.5-28.8-30.8-55-30.8c-0.3,0-0.6,0-1,0
		c-11.2,0.1-21.2,2.6-29.8,7.3c-8.8,4.9-16,11.7-21.3,20.2l-2.6,4.1l0.1-8.2l0.3-19.3h-33.1v168h33.1V269c0-18.3,4.3-32.7,12.7-42.6
		c2.1-2.5,4.4-4.7,6.8-6.6c0.8-0.6,1.6-1.2,2.4-1.7c0.6-0.4,1.2-0.8,1.8-1.1c0,0,0.1-0.1,0.1,0v0c0.6-0.4,1.2-0.6,1.7-1
		c0.7-0.4,1.4-0.7,2-1c2.8-1.2,5.8-2.2,8.9-2.8c0.6-0.1,1.3-0.2,1.9-0.3c0.3-0.1,0.6-0.1,0.9-0.1c0.2,0,0.5-0.1,0.7-0.1
		c1-0.1,2-0.2,3.1-0.2c0.8,0,1.7-0.1,2.5-0.1c0.7,0,1.4,0,2.1,0.1c0.6,0,1.1,0.1,1.7,0.1c0.5,0,1.1,0.1,1.6,0.1c0.1,0,0.2,0,0.3,0
		h0.1c0.1,0,0.1,0,0.2,0c0,0,0,0,0.1,0c0.2,0,0.4,0,0.5,0.1c0.1,0,0.3,0,0.4,0.1c0.5,0.1,1,0.1,1.5,0.2c0,0,0.1,0,0.1,0
		c0.3,0.1,0.6,0.1,1,0.2c0.3,0,0.6,0.1,0.9,0.2c8.6,1.9,15.3,6.2,20.2,13c0.1,0,0.1,0.1,0.1,0.1c0.2,0.2,0.3,0.4,0.5,0.7
		c0.1,0.2,0.3,0.4,0.4,0.6c1,1.6,2,3.3,2.8,5.2v0c0.9,1.9,1.6,3.9,2.2,6c0.5,1.6,0.9,3.2,1.3,4.8c1.3,5.9,1.9,12.5,1.9,20v93h33.1
		V259C408.4,242.6,405.8,228.7,400.6,217.6z"/>
</g>
</svg>
